<mxfile host="app.diagrams.net" modified="2023-04-03T17:43:47.918Z" agent="Mozilla/5.0 (X11; Linux x86_64) AppleWebKit/537.36 (KHTML, like Gecko) Chrome/111.0.0.0 Safari/537.36" etag="-m-BPkCL6QuO-XytgB2K" version="21.1.2" type="github">
  <diagram name="PÃ¡gina-1" id="9Z7AQM2SOjS9ChT2Cdfp">
    <mxGraphModel dx="2607" dy="1467" grid="1" gridSize="10" guides="1" tooltips="1" connect="1" arrows="1" fold="1" page="1" pageScale="1" pageWidth="2500" pageHeight="2500" math="0" shadow="0">
      <root>
        <mxCell id="0" />
        <mxCell id="1" parent="0" />
        <mxCell id="4rNJ4vwEb-hpk1fD-wyn-2" value="" style="group" parent="1" vertex="1" connectable="0">
          <mxGeometry x="1380" y="210" width="360" height="1060" as="geometry" />
        </mxCell>
        <mxCell id="acgDZ-SoyNHMQ0wOxpw4-46" value="" style="rounded=0;whiteSpace=wrap;html=1;fillColor=#e1d5e7;strokeColor=#9673a6;" parent="4rNJ4vwEb-hpk1fD-wyn-2" vertex="1">
          <mxGeometry width="360" height="1060" as="geometry" />
        </mxCell>
        <mxCell id="acgDZ-SoyNHMQ0wOxpw4-44" value="" style="endArrow=classic;html=1;rounded=0;entryX=0.492;entryY=0.094;entryDx=0;entryDy=0;entryPerimeter=0;strokeWidth=8;" parent="4rNJ4vwEb-hpk1fD-wyn-2" edge="1">
          <mxGeometry width="50" height="50" relative="1" as="geometry">
            <mxPoint x="179.17000000000007" y="319.5" as="sourcePoint" />
            <mxPoint x="179.17000000000007" y="414.5" as="targetPoint" />
          </mxGeometry>
        </mxCell>
        <mxCell id="acgDZ-SoyNHMQ0wOxpw4-45" value="" style="shape=image;verticalLabelPosition=bottom;labelBackgroundColor=#ffffff;verticalAlign=top;aspect=fixed;imageAspect=0;image=data:image/svg+xml,PHN2ZyB4bWxuczpjYz0iaHR0cDovL2NyZWF0aXZlY29tbW9ucy5vcmcvbnMjIiB4bWxuczpkYz0iaHR0cDovL3B1cmwub3JnL2RjL2VsZW1lbnRzLzEuMS8iIHhtbG5zOmlua3NjYXBlPSJodHRwOi8vd3d3Lmlua3NjYXBlLm9yZy9uYW1lc3BhY2VzL2lua3NjYXBlIiB4bWxuczpyZGY9Imh0dHA6Ly93d3cudzMub3JnLzE5OTkvMDIvMjItcmRmLXN5bnRheC1ucyMiIHhtbG5zOnNvZGlwb2RpPSJodHRwOi8vc29kaXBvZGkuc291cmNlZm9yZ2UubmV0L0RURC9zb2RpcG9kaS0wLmR0ZCIgeG1sbnM6c3ZnPSJodHRwOi8vd3d3LnczLm9yZy8yMDAwL3N2ZyIgeG1sbnM9Imh0dHA6Ly93d3cudzMub3JnLzIwMDAvc3ZnIiB4bWxuczp4bGluaz0iaHR0cDovL3d3dy53My5vcmcvMTk5OS94bGluayIgdmVyc2lvbj0iMS4xIiBpZD0ic3ZnMTc1NjcxIiBpbmtzY2FwZTp2ZXJzaW9uPSIwLjkyLjMgKDI0MDU1NDYsIDIwMTgtMDMtMTEpIiBzb2RpcG9kaTpkb2NuYW1lPSJnaXRodWIuc3ZnIiB4PSIwcHgiIHk9IjBweCIgdmlld0JveD0iMCAwIDQ1LjI3IDQ1LjI5IiBzdHlsZT0iZW5hYmxlLWJhY2tncm91bmQ6bmV3IDAgMCA0NS4yNyA0NS4yOTsiIHhtbDpzcGFjZT0icHJlc2VydmUiPiYjeGE7PHNvZGlwb2RpOm5hbWVkdmlldyBib3JkZXJjb2xvcj0iIzY2NjY2NiIgYm9yZGVyb3BhY2l0eT0iMSIgZml0LW1hcmdpbi1ib3R0b209IjAiIGZpdC1tYXJnaW4tbGVmdD0iMCIgZml0LW1hcmdpbi1yaWdodD0iMCIgZml0LW1hcmdpbi10b3A9IjAiIGdyaWR0b2xlcmFuY2U9IjEwIiBndWlkZXRvbGVyYW5jZT0iMTAiIGlkPSJuYW1lZHZpZXcxNzU2NzMiIGlua3NjYXBlOmN1cnJlbnQtbGF5ZXI9InN2ZzE3NTY3MSIgaW5rc2NhcGU6Y3g9IjMwLjE3ODAyNSIgaW5rc2NhcGU6Y3k9IjMwLjE5NDMxOSIgaW5rc2NhcGU6cGFnZW9wYWNpdHk9IjAiIGlua3NjYXBlOnBhZ2VzaGFkb3c9IjIiIGlua3NjYXBlOndpbmRvdy1oZWlnaHQ9IjEwMTciIGlua3NjYXBlOndpbmRvdy1tYXhpbWl6ZWQ9IjEiIGlua3NjYXBlOndpbmRvdy13aWR0aD0iMTkyMCIgaW5rc2NhcGU6d2luZG93LXg9Ii04IiBpbmtzY2FwZTp3aW5kb3cteT0iLTgiIGlua3NjYXBlOnpvb209IjEwLjA5NTE1OCIgb2JqZWN0dG9sZXJhbmNlPSIxMCIgcGFnZWNvbG9yPSIjZmZmZmZmIiBzaG93Z3JpZD0iZmFsc2UiPiYjeGE7CTwvc29kaXBvZGk6bmFtZWR2aWV3PiYjeGE7PGcgaWQ9ImcxNzU2NjkiIHRyYW5zZm9ybT0idHJhbnNsYXRlKC05LjU2MjU0MTcsLTkuNTYxMzEpIj4mI3hhOwk8dGl0bGUgaWQ9InRpdGxlMTc1NjU5Ij5QYWdlLTE8L3RpdGxlPiYjeGE7CTxnIGlkPSJncm91cDIyNTAtMSIgdHJhbnNmb3JtPSJ0cmFuc2xhdGUoOS41NjMwOCwtOS4zNzg2OSkiPiYjeGE7CQk8dGl0bGUgaWQ9InRpdGxlMTc1NjYxIj5HaXRIdWI8L3RpdGxlPiYjeGE7CQk8ZyBpZD0ic2hhcGUyMjUxLTIiPiYjeGE7CQkJPHRpdGxlIGlkPSJ0aXRsZTE3NTY2MyI+U2hlZXQuMjI1MTwvdGl0bGU+JiN4YTsJCQk8cGF0aCBpZD0icGF0aDE3NTY2NSIgaW5rc2NhcGU6Y29ubmVjdG9yLWN1cnZhdHVyZT0iMCIgZD0iTTIyLjYzLDE4Ljk0QzEwLjE0LDE4Ljk0LDAsMjkuMzMsMCw0Mi4xNSAgICAgYy0wLjA3LDkuODksNi4xNSwxOC43MywxNS40OCwyMi4wMWMxLjEzLDAuMjIsMS41NC0wLjUsMS41NC0xLjExYzAtMC42MiwwLTIuMDEsMC0zLjk1Yy02LjI5LDEuNDEtNy42Mi0zLjExLTcuNjItMy4xMSAgICAgYy0xLjAzLTIuNjgtMi41MS0zLjQtMi41MS0zLjRjLTIuMDYtMS40MSwwLjE1LTEuNDEsMC4xNS0xLjQxYzIuMjcsMC4xNiwzLjQ3LDIuMzksMy40NywyLjM5YzIuMDIsMy41NCw1LjMsMi41Miw2LjU4LDEuOTMgICAgIGMwLjEtMS4xNywwLjYtMi4yNiwxLjQyLTMuMUMxMy40OCw1MS44MSw4LjIsNDkuODIsOC4yLDQwLjkyYy0wLjA0LTIuMjksMC43OS00LjUxLDIuMzItNi4yMmMtMC42OS0yLTAuNjEtNC4xOSwwLjIyLTYuMTQgICAgIGMwLDAsMS45MS0wLjYyLDYuMjMsMi40YzMuNy0xLjA0LDcuNjItMS4wNCwxMS4zMiwwYzQuMzItMyw2LjIyLTIuMzcsNi4yMi0yLjM3YzAuODMsMS45NSwwLjkxLDQuMTQsMC4yMiw2LjE0ICAgICBjMS41MywxLjcsMi4zNywzLjkzLDIuMzMsNi4yMmMwLDguOTEtNS4yOSwxMC44OC0xMC4zMywxMS40NWMwLjgxLDAuNzEsMS41MywyLjEyLDEuNTMsNC4zYzAsMy4xMSwwLDUuNjEsMCw2LjM3ICAgICBjMCwwLjYyLDAuNDEsMS4zNCwxLjU2LDEuMTJjOS4zMy0zLjMsMTUuNTMtMTIuMTUsMTUuNDUtMjIuMDRDNDUuMjcsMjkuMzMsMzUuMTMsMTguOTQsMjIuNjMsMTguOTR6Ii8+JiN4YTsJCTwvZz4mI3hhOwk8L2c+JiN4YTs8L2c+JiN4YTs8L3N2Zz4=;" parent="4rNJ4vwEb-hpk1fD-wyn-2" vertex="1">
          <mxGeometry x="140" y="222.5" width="80" height="80" as="geometry" />
        </mxCell>
        <mxCell id="acgDZ-SoyNHMQ0wOxpw4-50" value="&lt;font style=&quot;font-size: 30px;&quot;&gt;Backend&lt;/font&gt;" style="text;html=1;strokeColor=none;fillColor=none;align=center;verticalAlign=middle;whiteSpace=wrap;rounded=0;" parent="4rNJ4vwEb-hpk1fD-wyn-2" vertex="1">
          <mxGeometry x="102.68000000000006" y="10" width="154.63" height="70" as="geometry" />
        </mxCell>
        <mxCell id="8S9XdfxbaQZMKcPUOWBK-1" value="" style="outlineConnect=0;dashed=0;verticalLabelPosition=bottom;verticalAlign=top;align=center;html=1;shape=mxgraph.aws3.lightsail;fillColor=#F58534;gradientColor=none;" parent="4rNJ4vwEb-hpk1fD-wyn-2" vertex="1">
          <mxGeometry x="140" y="420" width="80" height="82.5" as="geometry" />
        </mxCell>
        <mxCell id="4rNJ4vwEb-hpk1fD-wyn-28" value="" style="group" parent="4rNJ4vwEb-hpk1fD-wyn-2" vertex="1" connectable="0">
          <mxGeometry x="35" y="700" width="290" height="210" as="geometry" />
        </mxCell>
        <mxCell id="acgDZ-SoyNHMQ0wOxpw4-35" value="" style="rounded=0;whiteSpace=wrap;html=1;" parent="4rNJ4vwEb-hpk1fD-wyn-28" vertex="1">
          <mxGeometry width="290" height="210" as="geometry" />
        </mxCell>
        <mxCell id="acgDZ-SoyNHMQ0wOxpw4-36" value="&lt;font style=&quot;font-size: 26px;&quot;&gt;Express, Typescript&lt;br&gt;&lt;/font&gt;" style="text;html=1;strokeColor=none;fillColor=none;align=center;verticalAlign=middle;whiteSpace=wrap;rounded=0;" parent="4rNJ4vwEb-hpk1fD-wyn-28" vertex="1">
          <mxGeometry x="12.5" y="138" width="265" height="48" as="geometry" />
        </mxCell>
        <mxCell id="4rNJ4vwEb-hpk1fD-wyn-26" value="" style="shape=image;verticalLabelPosition=bottom;labelBackgroundColor=#ffffff;verticalAlign=top;aspect=fixed;imageAspect=0;image=data:image/svg+xml,PHN2ZyB4bWxuczpjYz0iaHR0cDovL2NyZWF0aXZlY29tbW9ucy5vcmcvbnMjIiB4bWxuczpkYz0iaHR0cDovL3B1cmwub3JnL2RjL2VsZW1lbnRzLzEuMS8iIHhtbG5zOmlua3NjYXBlPSJodHRwOi8vd3d3Lmlua3NjYXBlLm9yZy9uYW1lc3BhY2VzL2lua3NjYXBlIiB4bWxuczpyZGY9Imh0dHA6Ly93d3cudzMub3JnLzE5OTkvMDIvMjItcmRmLXN5bnRheC1ucyMiIHhtbG5zOnNvZGlwb2RpPSJodHRwOi8vc29kaXBvZGkuc291cmNlZm9yZ2UubmV0L0RURC9zb2RpcG9kaS0wLmR0ZCIgeG1sbnM6c3ZnPSJodHRwOi8vd3d3LnczLm9yZy8yMDAwL3N2ZyIgeG1sbnM9Imh0dHA6Ly93d3cudzMub3JnLzIwMDAvc3ZnIiB4bWxuczp4bGluaz0iaHR0cDovL3d3dy53My5vcmcvMTk5OS94bGluayIgdmVyc2lvbj0iMS4xIiBpZD0ic3ZnMTg1NTk3IiBpbmtzY2FwZTp2ZXJzaW9uPSIwLjkyLjMgKDI0MDU1NDYsIDIwMTgtMDMtMTEpIiBzb2RpcG9kaTpkb2NuYW1lPSJub2RlanNfc2RrLnN2ZyIgeD0iMHB4IiB5PSIwcHgiIHZpZXdCb3g9IjAgMCA5MC40MyA1NS4zOCIgc3R5bGU9ImVuYWJsZS1iYWNrZ3JvdW5kOm5ldyAwIDAgOTAuNDMgNTUuMzg7IiB4bWw6c3BhY2U9InByZXNlcnZlIj4mI3hhOzxzb2RpcG9kaTpuYW1lZHZpZXcgYm9yZGVyY29sb3I9IiM2NjY2NjYiIGJvcmRlcm9wYWNpdHk9IjEiIGZpdC1tYXJnaW4tYm90dG9tPSIwIiBmaXQtbWFyZ2luLWxlZnQ9IjAiIGZpdC1tYXJnaW4tcmlnaHQ9IjAiIGZpdC1tYXJnaW4tdG9wPSIwIiBncmlkdG9sZXJhbmNlPSIxMCIgZ3VpZGV0b2xlcmFuY2U9IjEwIiBpZD0ibmFtZWR2aWV3MTg1NTk5IiBpbmtzY2FwZTpjdXJyZW50LWxheWVyPSJzdmcxODU1OTciIGlua3NjYXBlOmN4PSI2MC4yODMzNTkiIGlua3NjYXBlOmN5PSIzNi45MTk2ODQiIGlua3NjYXBlOnBhZ2VvcGFjaXR5PSIwIiBpbmtzY2FwZTpwYWdlc2hhZG93PSIyIiBpbmtzY2FwZTp3aW5kb3ctaGVpZ2h0PSIxMDE3IiBpbmtzY2FwZTp3aW5kb3ctbWF4aW1pemVkPSIxIiBpbmtzY2FwZTp3aW5kb3ctd2lkdGg9IjE5MjAiIGlua3NjYXBlOndpbmRvdy14PSItOCIgaW5rc2NhcGU6d2luZG93LXk9Ii04IiBpbmtzY2FwZTp6b29tPSI5LjE5OTg0NjIiIG9iamVjdHRvbGVyYW5jZT0iMTAiIHBhZ2Vjb2xvcj0iI2ZmZmZmZiIgc2hvd2dyaWQ9ImZhbHNlIj4mI3hhOwk8L3NvZGlwb2RpOm5hbWVkdmlldz4mI3hhOzxnIGlkPSJnMTg1NTk1IiB0cmFuc2Zvcm09InRyYW5zbGF0ZSgtNy42NTAyMzc3LC03LjY0NzUwMDYpIj4mI3hhOwk8dGl0bGUgaWQ9InRpdGxlMTg1NTIwIj5QYWdlLTE8L3RpdGxlPiYjeGE7CTxnIGlkPSJncm91cDEyOTQtMSIgdHJhbnNmb3JtPSJ0cmFuc2xhdGUoNy42NSwtNy42NSkiPiYjeGE7CQk8dGl0bGUgaWQ9InRpdGxlMTg1NTIyIj5Ob2RlLmpzIFNESzwvdGl0bGU+JiN4YTsJCTxnIGlkPSJncm91cDEyOTUtMiIgdHJhbnNmb3JtPSJ0cmFuc2xhdGUoMzQuODEyNikiPiYjeGE7CQkJPHRpdGxlIGlkPSJ0aXRsZTE4NTUyNCI+U2hlZXQuMTI5NTwvdGl0bGU+JiN4YTsJCQk8ZyBpZD0ic2hhcGUxMjk2LTMiPiYjeGE7CQkJCTx0aXRsZSBpZD0idGl0bGUxODU1MjYiPlNoZWV0LjEyOTY8L3RpdGxlPiYjeGE7CQkJCTxwYXRoIGlkPSJwYXRoMTg1NTI4IiBpbmtzY2FwZTpjb25uZWN0b3ItY3VydmF0dXJlPSIwIiBzdHlsZT0iZmlsbDojNjk5RjYzOyIgZD0iTTkuODgsNzAuNjhjLTAuMywwLTAuNTktMC4wOC0wLjg2LTAuMjMgICAgICBMNi4zLDY4Ljg0Yy0wLjQxLTAuMjMtMC4yMS0wLjMxLTAuMDgtMC4zNmMwLjU1LTAuMTksMC42Ni0wLjIzLDEuMjQtMC41NmMwLjA2LTAuMDMsMC4xNC0wLjAyLDAuMiwwLjAybDIuMDksMS4yNCAgICAgIGMwLjA4LDAuMDQsMC4xOSwwLjA0LDAuMjYsMGw4LjE2LTQuNzFjMC4wOC0wLjA0LDAuMTMtMC4xMywwLjEzLTAuMjJ2LTkuNDNjMC0wLjA5LTAuMDUtMC4xOC0wLjEzLTAuMjJsLTguMTYtNC43MSAgICAgIGMtMC4wOC0wLjA1LTAuMTgtMC4wNS0wLjI1LDBMMS42LDU0LjZjLTAuMDgsMC4wNC0wLjEzLDAuMTMtMC4xMywwLjIydjkuNDNjMCwwLjA5LDAuMDUsMC4xNywwLjEyLDAuMjJsMi4yNCwxLjI5ICAgICAgYzEuMjIsMC42LDEuOTYtMC4xMSwxLjk2LTAuODN2LTkuM2MwLTAuMTMsMC4xLTAuMjQsMC4yNC0wLjI0aDEuMDNjMC4xMywwLDAuMjQsMC4xMSwwLjI0LDAuMjR2OS4zYzAsMS42Mi0wLjg4LDIuNTUtMi40MiwyLjU1ICAgICAgYy0wLjQ3LDAtMC44NCwwLTEuODgtMC41MWwtMi4xNC0xLjIzQzAuMzMsNjUuNDMsMCw2NC44NiwwLDY0LjI1di05LjQzYzAtMC42MSwwLjMzLTEuMTgsMC44Ni0xLjQ5bDguMTYtNC43MiAgICAgIGMwLjUyLTAuMjksMS4yMS0wLjI5LDEuNzIsMGw4LjE2LDQuNzJjMC41MywwLjMxLDAuODYsMC44OCwwLjg2LDEuNDl2OS40M2MwLDAuNjEtMC4zMywxLjE4LTAuODYsMS40OWwtOC4xNiw0LjcxICAgICAgQzEwLjQ4LDcwLjYsMTAuMTgsNzAuNjgsOS44OCw3MC42OHoiLz4mI3hhOwkJCTwvZz4mI3hhOwkJCTxnIGlkPSJzaGFwZTEyOTctNSIgdHJhbnNmb3JtPSJ0cmFuc2xhdGUoOC4wODE3NSwtNi40OTI1MykiPiYjeGE7CQkJCTx0aXRsZSBpZD0idGl0bGUxODU1MzEiPlNoZWV0LjEyOTc8L3RpdGxlPiYjeGE7CQkJCTxwYXRoIGlkPSJwYXRoMTg1NTMzIiBpbmtzY2FwZTpjb25uZWN0b3ItY3VydmF0dXJlPSIwIiBzdHlsZT0iZmlsbDojNjk5RjYzOyIgZD0iTTQuMzIsNzAuNjhDMC43NSw3MC42OCwwLDY5LjA0LDAsNjcuNjYgICAgICBjMC0wLjEzLDAuMTEtMC4yMywwLjI0LTAuMjNoMS4wNWMwLjEyLDAsMC4yMiwwLjA4LDAuMjQsMC4yYzAuMTYsMS4wNywwLjYzLDEuNjIsMi43OSwxLjYyYzEuNzIsMCwyLjQ2LTAuMzksMi40Ni0xLjMgICAgICBjMC0wLjUzLTAuMjEtMC45Mi0yLjg5LTEuMThjLTIuMjMtMC4yMy0zLjYxLTAuNzItMy42MS0yLjUxYzAtMS42NCwxLjM5LTIuNjMsMy43Mi0yLjYzYzIuNjEsMCwzLjkxLDAuOTEsNC4wNywyLjg2ICAgICAgYzAuMDEsMC4wNy0wLjAyLDAuMTMtMC4wNiwwLjE4Yy0wLjA1LDAuMDUtMC4xMSwwLjA4LTAuMTcsMC4wOEg2Ljc4Yy0wLjExLDAtMC4yMS0wLjA4LTAuMjMtMC4xOSAgICAgIEM2LjI5LDYzLjQzLDUuNjcsNjMuMDcsNCw2My4wN2MtMS44OCwwLTIuMSwwLjY2LTIuMSwxLjE1YzAsMC41OSwwLjI2LDAuNzYsMi43OSwxLjFjMi41MSwwLjMzLDMuNywwLjgsMy43LDIuNTYgICAgICBDOC4zOSw2OS42Niw2LjkxLDcwLjY4LDQuMzIsNzAuNjh6Ii8+JiN4YTsJCQk8L2c+JiN4YTsJCTwvZz4mI3hhOwkJPGcgaWQ9InNoYXBlMTI5OC03IiB0cmFuc2Zvcm09InRyYW5zbGF0ZSg1NS44NDQzLC0xNC44MDI2KSI+JiN4YTsJCQk8dGl0bGUgaWQ9InRpdGxlMTg1NTM3Ij5TaGVldC4xMjk4PC90aXRsZT4mI3hhOwkJCTxwYXRoIGlkPSJwYXRoMTg1NTM5IiBpbmtzY2FwZTpjb25uZWN0b3ItY3VydmF0dXJlPSIwIiBzdHlsZT0iZmlsbDojNjk5RjYzOyIgZD0iTTMuMTUsNjkuMTFjMCwwLjg2LTAuNzEsMS41Ny0xLjU4LDEuNTcgICAgIGMtMC44NSwwLTEuNTctMC43LTEuNTctMS41N2MwLTAuODksMC43My0xLjU4LDEuNTctMS41OEMyLjQyLDY3LjUzLDMuMTUsNjguMjIsMy4xNSw2OS4xMXogTTAuMjUsNjkuMSAgICAgYzAsMC43NCwwLjU5LDEuMzMsMS4zMiwxLjMzczEuMzItMC42MSwxLjMyLTEuMzNjMC0wLjczLTAuNi0xLjMxLTEuMzItMS4zMVMwLjI1LDY4LjM2LDAuMjUsNjkuMXogTTAuOTgsNjguMjJoMC42MSAgICAgYzAuMjEsMCwwLjYyLDAsMC42MiwwLjQ3YzAsMC4zMy0wLjIxLDAuMzktMC4zNCwwLjQzYzAuMjQsMC4wMiwwLjI2LDAuMTgsMC4yOSwwLjRjMC4wMiwwLjE1LDAuMDUsMC4zOSwwLjEsMC40N0gxLjg4ICAgICBjLTAuMDEtMC4wOC0wLjA2LTAuNTMtMC4wNi0wLjU2Yy0wLjAzLTAuMS0wLjA2LTAuMTUtMC4xOS0wLjE1SDEuMzJ2MC43MUgwLjk4VjY4LjIyeiBNMS4zMiw2OWgwLjI3YzAuMjMsMCwwLjI3LTAuMTYsMC4yNy0wLjI1ICAgICBjMC0wLjI0LTAuMTctMC4yNC0wLjI2LTAuMjRIMS4zMlY2OXoiLz4mI3hhOwkJPC9nPiYjeGE7CQk8ZyBpZD0ic2hhcGUxMjk5LTkiIHRyYW5zZm9ybT0idHJhbnNsYXRlKDAsLTIyLjkwNTgpIj4mI3hhOwkJCTx0aXRsZSBpZD0idGl0bGUxODU1NDIiPlNoZWV0LjEyOTk8L3RpdGxlPiYjeGE7CQkJPHBhdGggaWQ9InBhdGgxODU1NDQiIGlua3NjYXBlOmNvbm5lY3Rvci1jdXJ2YXR1cmU9IjAiIHN0eWxlPSJmaWxsOiMzRjU3NjU7IiBkPSJNMTkuNDEsNTYuNzJjMC0wLjM4LTAuMi0wLjczLTAuNTMtMC45MSAgICAgbC04LjY2LTQuOTljLTAuMTQtMC4wOC0wLjMxLTAuMTMtMC40Ny0wLjEzYy0wLjAyLDAtMC4wOCwwLTAuMDksMGMtMC4xNywwLTAuMzMsMC4wNS0wLjQ4LDAuMTNsLTguNjYsNC45OSAgICAgQzAuMiw1NS45OSwwLDU2LjM0LDAsNTYuNzJsMC4wMiwxMy40MWMwLDAuMTksMC4xLDAuMzYsMC4yNiwwLjQ1YzAuMTYsMC4xLDAuMzYsMC4xLDAuNTIsMGw1LjE0LTIuOTQgICAgIGMwLjMzLTAuMiwwLjUzLTAuNTQsMC41My0wLjkxdi02LjI3YzAtMC4zNywwLjItMC43MiwwLjUyLTAuOWwyLjE5LTEuMjdjMC4xNi0wLjA5LDAuMzQtMC4xNCwwLjUyLTAuMTQgICAgIGMwLjE4LDAsMC4zNywwLjA1LDAuNTIsMC4xNGwyLjIsMS4yN2MwLjMyLDAuMTgsMC41MiwwLjUzLDAuNTIsMC45djYuMjdjMCwwLjM3LDAuMiwwLjcyLDAuNTIsMC45MWw1LjE1LDIuOTQgICAgIGMwLjE2LDAuMSwwLjM2LDAuMSwwLjUyLDBjMC4xNi0wLjA5LDAuMjYtMC4yNiwwLjI2LTAuNDVMMTkuNDEsNTYuNzJ6Ii8+JiN4YTsJCTwvZz4mI3hhOwkJPGcgaWQ9InNoYXBlMTMwMC0xMSIgdHJhbnNmb3JtPSJ0cmFuc2xhdGUoNDcuMzM5OCwtMjAuNTA2MikiPiYjeGE7CQkJPHRpdGxlIGlkPSJ0aXRsZTE4NTU0NyI+U2hlZXQuMTMwMDwvdGl0bGU+JiN4YTsJCQk8cGF0aCBpZD0icGF0aDE4NTU0OSIgaW5rc2NhcGU6Y29ubmVjdG9yLWN1cnZhdHVyZT0iMCIgc3R5bGU9ImZpbGw6IzNGNTc2NTsiIGQ9Ik0xMy43MiwzNS44N2MtMC4xNi0wLjA5LTAuMzYtMC4wOS0wLjUyLDAuMDEgICAgIGMtMC4xNiwwLjA5LTAuMjUsMC4yNi0wLjI1LDAuNDV2MTMuMjljMCwwLjEzLTAuMDcsMC4yNS0wLjE5LDAuMzFjLTAuMTEsMC4wNy0wLjI1LDAuMDctMC4zNiwwbC0yLjE3LTEuMjUgICAgIGMtMC4zMi0wLjE4LTAuNzItMC4xOC0xLjA1LDBsLTguNjYsNUMwLjIsNTMuODcsMCw1NC4yMSwwLDU0LjU5djEwYzAsMC4zNywwLjIsMC43MSwwLjUyLDAuOWw4LjY2LDVjMC4zMywwLjE5LDAuNzMsMC4xOSwxLjA1LDAgICAgIGw4LjY2LTVjMC4zMy0wLjE5LDAuNTMtMC41MywwLjUzLTAuOVYzOS42NmMwLTAuMzgtMC4yMS0wLjczLTAuNTQtMC45MUwxMy43MiwzNS44N3ogTTEyLjkyLDYxLjNjMCwwLjA5LTAuMDUsMC4xOC0wLjEzLDAuMjMgICAgIGwtMi45NywxLjcxYy0wLjA4LDAuMDUtMC4xOSwwLjA1LTAuMjcsMGwtMi45Ny0xLjcxYy0wLjA4LTAuMDUtMC4xMy0wLjE0LTAuMTMtMC4yM3YtMy40M2MwLTAuMSwwLjA1LTAuMTgsMC4xMy0wLjIzbDIuOTctMS43MiAgICAgYzAuMDgtMC4wNCwwLjE4LTAuMDQsMC4yNywwbDIuOTcsMS43MmMwLjA4LDAuMDUsMC4xMywwLjEzLDAuMTMsMC4yM0wxMi45Miw2MS4zeiIvPiYjeGE7CQk8L2c+JiN4YTsJCTxnIGlkPSJncm91cDEzMDEtMTMiIHRyYW5zZm9ybT0idHJhbnNsYXRlKDcxLjA2OTcsLTIwLjc0MjQpIj4mI3hhOwkJCTx0aXRsZSBpZD0idGl0bGUxODU1NTIiPlNoZWV0LjEzMDE8L3RpdGxlPiYjeGE7CQkJPGcgaWQ9InNoYXBlMTMwMi0xNCI+JiN4YTsJCQkJPHRpdGxlIGlkPSJ0aXRsZTE4NTU1NCI+U2hlZXQuMTMwMjwvdGl0bGU+JiN4YTsJCQkJPHBhdGggaWQ9InBhdGgxODU1NTYiIGlua3NjYXBlOmNvbm5lY3Rvci1jdXJ2YXR1cmU9IjAiIHN0eWxlPSJmaWxsOiMzRjU3NjU7IiBkPSJNMTguODQsNTguMDFjMC4zMi0wLjE4LDAuNTItMC41MywwLjUyLTAuOSAgICAgIHYtMi40MmMwLTAuMzgtMC4yLTAuNzItMC41My0wLjkxbC04LjYtNC45OWMtMC4zMi0wLjE5LTAuNzItMC4xOS0xLjA1LDBsLTguNjYsNC45OUMwLjIsNTMuOTcsMCw1NC4zMiwwLDU0LjY5djEwICAgICAgYzAsMC4zNywwLjIsMC43MiwwLjUzLDAuOWw4LjYsNC45MWMwLjMyLDAuMTgsMC43MSwwLjE4LDEuMDMsMGw1LjItMi44OWMwLjE3LTAuMDksMC4yNy0wLjI3LDAuMjctMC40NSAgICAgIGMwLTAuMTktMC4xLTAuMzctMC4yNi0wLjQ2bC04LjcxLTVjLTAuMTctMC4xLTAuMjctMC4yNy0wLjI3LTAuNDZ2LTMuMTNjMC0wLjE5LDAuMS0wLjM2LDAuMjctMC40NWwyLjcxLTEuNTcgICAgICBjMC4xNi0wLjA5LDAuMzYtMC4wOSwwLjUyLDBsMi43MSwxLjU3YzAuMTYsMC4wOSwwLjI3LDAuMjYsMC4yNywwLjQ1djIuNDdjMCwwLjE4LDAuMSwwLjM2LDAuMjYsMC40NXMwLjM2LDAuMDksMC41MiwwICAgICAgTDE4Ljg0LDU4LjAxeiIvPiYjeGE7CQkJPC9nPiYjeGE7CQkJPGcgaWQ9InNoYXBlMTMwMy0xNiIgdHJhbnNmb3JtPSJ0cmFuc2xhdGUoNy44MTYxMywtOC45MTM2NikiPiYjeGE7CQkJCTx0aXRsZSBpZD0idGl0bGUxODU1NTkiPlNoZWV0LjEzMDM8L3RpdGxlPiYjeGE7CQkJCTxwYXRoIGlkPSJwYXRoMTg1NTYxIiBpbmtzY2FwZTpjb25uZWN0b3ItY3VydmF0dXJlPSIwIiBzdHlsZT0iZmlsbDojNjk5RjYzOyIgZD0iTTEuNzYsNjYuNDZjMC4wNi0wLjA0LDAuMTQtMC4wNCwwLjIsMCAgICAgIGwxLjY2LDAuOTZjMC4wNywwLjAzLDAuMSwwLjEsMC4xLDAuMTd2MS45MmMwLDAuMDctMC4wMywwLjE0LTAuMSwwLjE4bC0xLjY2LDAuOTVjLTAuMDYsMC4wNC0wLjE0LDAuMDQtMC4yLDBMMC4xLDY5LjY4ICAgICAgQzAuMDQsNjkuNjUsMCw2OS41OCwwLDY5LjUxdi0xLjkyYzAtMC4wNywwLjA0LTAuMTQsMC4xLTAuMTdMMS43Niw2Ni40NnoiLz4mI3hhOwkJCTwvZz4mI3hhOwkJPC9nPiYjeGE7CQk8ZyBpZD0iZ3JvdXAxMzA0LTE4IiB0cmFuc2Zvcm09InRyYW5zbGF0ZSgyMy43MjA4LC0yMC43MDc0KSI+JiN4YTsJCQk8dGl0bGUgaWQ9InRpdGxlMTg1NTY1Ij5TaGVldC4xMzA0PC90aXRsZT4mI3hhOwkJCTxnIGlkPSJzaGFwZTEzMDUtMTkiPiYjeGE7CQkJCTx0aXRsZSBpZD0idGl0bGUxODU1NjciPlhNTElEXzE0M188L3RpdGxlPiYjeGE7CQkJCSYjeGE7CQkJCQk8bGluZWFyR3JhZGllbnQgaWQ9InBhdGgxODU1NjlfMV8iIGdyYWRpZW50VW5pdHM9InVzZXJTcGFjZU9uVXNlIiB4MT0iLTYuMzE4NSIgeTE9IjYxLjExOTciIHgyPSIxNC4yNzMzIiB5Mj0iNjEuMTE5NyIgZ3JhZGllbnRUcmFuc2Zvcm09Im1hdHJpeCgwLjkzNzMgMCAwIC0xLjA2NjkgNS45MjIzIDEyNC44NjA1KSI+JiN4YTsJCQkJCTxzdG9wIG9mZnNldD0iMCIgc3R5bGU9InN0b3AtY29sb3I6IzQxODczRiIvPiYjeGE7CQkJCQk8c3RvcCBvZmZzZXQ9IjAuMzMiIHN0eWxlPSJzdG9wLWNvbG9yOiM0MThCM0QiLz4mI3hhOwkJCQkJPHN0b3Agb2Zmc2V0PSIwLjYzNSIgc3R5bGU9InN0b3AtY29sb3I6IzQxOTYzNyIvPiYjeGE7CQkJCQk8c3RvcCBvZmZzZXQ9IjAuOTMiIHN0eWxlPSJzdG9wLWNvbG9yOiMzRkE5MkQiLz4mI3hhOwkJCQkJPHN0b3Agb2Zmc2V0PSIxIiBzdHlsZT0ic3RvcC1jb2xvcjojM0ZBRTJBIi8+JiN4YTsJCQkJPC9saW5lYXJHcmFkaWVudD4mI3hhOwkJCQk8cGF0aCBpZD0icGF0aDE4NTU2OSIgaW5rc2NhcGU6Y29ubmVjdG9yLWN1cnZhdHVyZT0iMCIgc3R5bGU9ImZpbGw6dXJsKCNwYXRoMTg1NTY5XzFfKTsiIGQ9Ik0xMC4xNyw0OC44ICAgICAgYy0wLjMyLTAuMTgtMC43MS0wLjE4LTEuMDQsMGwtOC42MSw0Ljk3QzAuMiw1My45NiwwLDU0LjMsMCw1NC42N3Y5Ljk1YzAsMC4zNywwLjIsMC43MSwwLjUyLDAuOWw4LjYxLDQuOTggICAgICBjMC4zMywwLjE4LDAuNzIsMC4xOCwxLjA0LDBsOC42MS00Ljk4YzAuMzMtMC4xOSwwLjUyLTAuNTMsMC41Mi0wLjl2LTkuOTVjMC0wLjM3LTAuMTktMC43MS0wLjUyLTAuOUwxMC4xNyw0OC44eiIvPiYjeGE7CQkJPC9nPiYjeGE7CQkJPGcgaWQ9Imdyb3VwMTMwNi0yMyIgdHJhbnNmb3JtPSJ0cmFuc2xhdGUoMC4wMTU4MjQ0LC0wLjAxMTMwMzEpIj4mI3hhOwkJCQk8dGl0bGUgaWQ9InRpdGxlMTg1NTcyIj5TaGVldC4xMzA2PC90aXRsZT4mI3hhOwkJCQk8ZyBpZD0ic2hhcGUxMzA3LTI0IiB0cmFuc2Zvcm09InRyYW5zbGF0ZSgwLC01LjM4NzA4KSI+JiN4YTsJCQkJCTx0aXRsZSBpZD0idGl0bGUxODU1NzQiPlNoZWV0LjEzMDc8L3RpdGxlPiYjeGE7CQkJCQk8cGF0aCBpZD0icGF0aDE4NTU3NiIgaW5rc2NhcGU6Y29ubmVjdG9yLWN1cnZhdHVyZT0iMCIgc3R5bGU9ImZpbGw6bm9uZTsiIGQ9Ik05LjEsNTQuMmwtOC41OSw0Ljk3QzAuMTksNTkuMzYsMCw1OS43LDAsNjAuMDcgICAgICAgdjkuOTVjMCwwLjI0LDAuMDYsMC40OCwwLjIyLDAuNjZMOS45LDU0LjA5QzkuNjQsNTQuMDMsOS4zNCw1NC4wNiw5LjEsNTQuMnoiLz4mI3hhOwkJCQk8L2c+JiN4YTsJCQkJPGcgaWQ9InNoYXBlMTMwOC0yNiIgdHJhbnNmb3JtPSJ0cmFuc2xhdGUoOS45MjY0MiwtMC4wNzM0NzA1KSI+JiN4YTsJCQkJCTx0aXRsZSBpZD0idGl0bGUxODU1NzkiPlNoZWV0LjEzMDg8L3RpdGxlPiYjeGE7CQkJCQk8cGF0aCBpZD0icGF0aDE4NTU4MSIgaW5rc2NhcGU6Y29ubmVjdG9yLWN1cnZhdHVyZT0iMCIgc3R5bGU9ImZpbGw6bm9uZTsiIGQ9Ik0wLDcwLjY4YzAuMDgtMC4wMiwwLjE3LTAuMDYsMC4yNC0wLjEgICAgICAgbDkuMTMtNC45N2MwLjMyLTAuMTksMS4wNS0wLjUzLDEuMDUtMC45MXYtOS45NGMwLTAuMjgtMC42My0wLjUzLTAuODItMC43M0wwLDcwLjY4eiIvPiYjeGE7CQkJCTwvZz4mI3hhOwkJCQk8ZyBpZD0ic2hhcGUxMzA5LTI4IiB0cmFuc2Zvcm09InRyYW5zbGF0ZSgwLjE4MDg1KSI+JiN4YTsJCQkJCTx0aXRsZSBpZD0idGl0bGUxODU1ODQiPlNoZWV0LjEzMDk8L3RpdGxlPiYjeGE7CQkJCQkmI3hhOwkJCQkJCTxsaW5lYXJHcmFkaWVudCBpZD0icGF0aDE4NTU4Nl8xXyIgZ3JhZGllbnRVbml0cz0idXNlclNwYWNlT25Vc2UiIHgxPSItMy4zMDAzIiB5MT0iNjUuNjkwNyIgeDI9IjE3LjAzMzYiIHkyPSI2NS42OTA3IiBncmFkaWVudFRyYW5zZm9ybT0ibWF0cml4KDAuOTI2NSAwIDAgLTEuMDc5MyAzLjA1OCAxMzAuNTcyOSkiPiYjeGE7CQkJCQkJPHN0b3Agb2Zmc2V0PSIwLjE0IiBzdHlsZT0ic3RvcC1jb2xvcjojNDE4NzNGIi8+JiN4YTsJCQkJCQk8c3RvcCBvZmZzZXQ9IjAuNDA1IiBzdHlsZT0ic3RvcC1jb2xvcjojNTRBMDQ0Ii8+JiN4YTsJCQkJCQk8c3RvcCBvZmZzZXQ9IjAuNzE1IiBzdHlsZT0ic3RvcC1jb2xvcjojNjZCODQ4Ii8+JiN4YTsJCQkJCQk8c3RvcCBvZmZzZXQ9IjAuOTEiIHN0eWxlPSJzdG9wLWNvbG9yOiM2Q0MwNEEiLz4mI3hhOwkJCQkJPC9saW5lYXJHcmFkaWVudD4mI3hhOwkJCQkJPHBhdGggaWQ9InBhdGgxODU1ODYiIGlua3NjYXBlOmNvbm5lY3Rvci1jdXJ2YXR1cmU9IjAiIHN0eWxlPSJmaWxsOnVybCgjcGF0aDE4NTU4Nl8xXyk7IiBkPSJNMTguNiw1My43OGwtOC42My00Ljk3ICAgICAgIGMtMC4wOS0wLjA1LTAuMTgtMC4wOC0wLjI3LTAuMTFMMCw2NS4yOWMwLjA4LDAuMSwwLjE4LDAuMTgsMC4yOSwwLjI0bDguNjUsNC45OGMwLjI1LDAuMTQsMC41NCwwLjE3LDAuODEsMC4xbDkuMDktMTYuNjUgICAgICAgQzE4Ljc3LDUzLjg5LDE4LjY5LDUzLjgzLDE4LjYsNTMuNzh6Ii8+JiN4YTsJCQkJPC9nPiYjeGE7CQkJPC9nPiYjeGE7CQkJPGcgaWQ9Imdyb3VwMTMxMC0zMiI+JiN4YTsJCQkJPHRpdGxlIGlkPSJ0aXRsZTE4NTU5MCI+U2hlZXQuMTMxMDwvdGl0bGU+JiN4YTsJCQk8L2c+JiN4YTsJCTwvZz4mI3hhOwk8L2c+JiN4YTs8L2c+JiN4YTs8L3N2Zz4=;" parent="4rNJ4vwEb-hpk1fD-wyn-28" vertex="1">
          <mxGeometry x="50.91000000000008" y="8" width="188.18" height="115" as="geometry" />
        </mxCell>
        <mxCell id="acgDZ-SoyNHMQ0wOxpw4-34" value="" style="endArrow=classic;html=1;rounded=0;entryX=0.492;entryY=0.094;entryDx=0;entryDy=0;entryPerimeter=0;strokeWidth=8;" parent="4rNJ4vwEb-hpk1fD-wyn-2" edge="1">
          <mxGeometry width="50" height="50" relative="1" as="geometry">
            <mxPoint x="179.17000000000007" y="600" as="sourcePoint" />
            <mxPoint x="179.17000000000007" y="695" as="targetPoint" />
          </mxGeometry>
        </mxCell>
        <mxCell id="8S9XdfxbaQZMKcPUOWBK-2" value="&lt;font style=&quot;font-size: 30px;&quot;&gt;Amazon Lightsail&lt;/font&gt;" style="text;html=1;strokeColor=none;fillColor=none;align=center;verticalAlign=middle;whiteSpace=wrap;rounded=0;" parent="4rNJ4vwEb-hpk1fD-wyn-2" vertex="1">
          <mxGeometry x="110" y="502.5" width="140" height="80" as="geometry" />
        </mxCell>
        <mxCell id="acgDZ-SoyNHMQ0wOxpw4-3" value="" style="endArrow=classic;html=1;rounded=0;exitX=1;exitY=0.5;exitDx=0;exitDy=0;endSize=21;startSize=19;strokeWidth=7;entryX=0.04;entryY=0.5;entryDx=0;entryDy=0;entryPerimeter=0;" parent="1" source="acgDZ-SoyNHMQ0wOxpw4-48" target="acgDZ-SoyNHMQ0wOxpw4-22" edge="1">
          <mxGeometry width="50" height="50" relative="1" as="geometry">
            <mxPoint x="840" y="570" as="sourcePoint" />
            <mxPoint x="450" y="485" as="targetPoint" />
          </mxGeometry>
        </mxCell>
        <mxCell id="acgDZ-SoyNHMQ0wOxpw4-33" value="" style="endArrow=classic;html=1;rounded=0;endSize=21;startSize=19;strokeWidth=7;entryX=0;entryY=0.5;entryDx=0;entryDy=0;exitX=0.97;exitY=0.5;exitDx=0;exitDy=0;exitPerimeter=0;" parent="1" source="acgDZ-SoyNHMQ0wOxpw4-30" target="acgDZ-SoyNHMQ0wOxpw4-46" edge="1">
          <mxGeometry width="50" height="50" relative="1" as="geometry">
            <mxPoint x="1270" y="520" as="sourcePoint" />
            <mxPoint x="1170" y="485" as="targetPoint" />
          </mxGeometry>
        </mxCell>
        <mxCell id="acgDZ-SoyNHMQ0wOxpw4-38" value="" style="endArrow=classic;html=1;rounded=0;endSize=21;startSize=19;strokeWidth=7;entryX=0;entryY=0.5;entryDx=0;entryDy=0;exitX=1;exitY=0.5;exitDx=0;exitDy=0;" parent="1" source="acgDZ-SoyNHMQ0wOxpw4-46" target="acgDZ-SoyNHMQ0wOxpw4-47" edge="1">
          <mxGeometry width="50" height="50" relative="1" as="geometry">
            <mxPoint x="1810" y="458.33000000000004" as="sourcePoint" />
            <mxPoint x="1910" y="458.33000000000004" as="targetPoint" />
          </mxGeometry>
        </mxCell>
        <mxCell id="W28Hg_RXF8OLAKR3yMh1-30" value="" style="endArrow=classic;html=1;rounded=0;exitX=1;exitY=0.5;exitDx=0;exitDy=0;endSize=21;startSize=19;strokeWidth=7;entryX=0.04;entryY=0.5;entryDx=0;entryDy=0;entryPerimeter=0;" parent="1" source="W28Hg_RXF8OLAKR3yMh1-27" target="W28Hg_RXF8OLAKR3yMh1-43" edge="1">
          <mxGeometry width="50" height="50" relative="1" as="geometry">
            <mxPoint x="840" y="1720" as="sourcePoint" />
            <mxPoint x="450" y="1635" as="targetPoint" />
          </mxGeometry>
        </mxCell>
        <mxCell id="W28Hg_RXF8OLAKR3yMh1-45" value="" style="endArrow=classic;html=1;rounded=0;endSize=21;startSize=19;strokeWidth=7;entryX=0;entryY=0.5;entryDx=0;entryDy=0;exitX=0.97;exitY=0.5;exitDx=0;exitDy=0;exitPerimeter=0;" parent="1" source="W28Hg_RXF8OLAKR3yMh1-43" target="W28Hg_RXF8OLAKR3yMh1-1" edge="1">
          <mxGeometry width="50" height="50" relative="1" as="geometry">
            <mxPoint x="570" y="1635" as="sourcePoint" />
            <mxPoint x="670" y="1635" as="targetPoint" />
          </mxGeometry>
        </mxCell>
        <mxCell id="4rNJ4vwEb-hpk1fD-wyn-1" value="" style="group" parent="1" vertex="1" connectable="0">
          <mxGeometry x="1870" y="210" width="280" height="1060" as="geometry" />
        </mxCell>
        <mxCell id="acgDZ-SoyNHMQ0wOxpw4-47" value="" style="rounded=0;whiteSpace=wrap;html=1;fillColor=#d5e8d4;strokeColor=#82b366;" parent="4rNJ4vwEb-hpk1fD-wyn-1" vertex="1">
          <mxGeometry width="280" height="1060" as="geometry" />
        </mxCell>
        <mxCell id="acgDZ-SoyNHMQ0wOxpw4-37" value="" style="shape=image;verticalLabelPosition=bottom;labelBackgroundColor=#ffffff;verticalAlign=top;aspect=fixed;imageAspect=0;image=data:image/svg+xml,PHN2ZyB4bWxuczpjYz0iaHR0cDovL2NyZWF0aXZlY29tbW9ucy5vcmcvbnMjIiB4bWxuczpkYz0iaHR0cDovL3B1cmwub3JnL2RjL2VsZW1lbnRzLzEuMS8iIHhtbG5zOmlua3NjYXBlPSJodHRwOi8vd3d3Lmlua3NjYXBlLm9yZy9uYW1lc3BhY2VzL2lua3NjYXBlIiB4bWxuczpyZGY9Imh0dHA6Ly93d3cudzMub3JnLzE5OTkvMDIvMjItcmRmLXN5bnRheC1ucyMiIHhtbG5zOnNvZGlwb2RpPSJodHRwOi8vc29kaXBvZGkuc291cmNlZm9yZ2UubmV0L0RURC9zb2RpcG9kaS0wLmR0ZCIgeG1sbnM6c3ZnPSJodHRwOi8vd3d3LnczLm9yZy8yMDAwL3N2ZyIgeG1sbnM9Imh0dHA6Ly93d3cudzMub3JnLzIwMDAvc3ZnIiB4bWxuczp4bGluaz0iaHR0cDovL3d3dy53My5vcmcvMTk5OS94bGluayIgdmVyc2lvbj0iMS4xIiBpZD0ic3ZnMTAxMjg5IiBpbmtzY2FwZTp2ZXJzaW9uPSIwLjkyLjMgKDI0MDU1NDYsIDIwMTgtMDMtMTEpIiBzb2RpcG9kaTpkb2NuYW1lPSJtb25nb2RiLnN2ZyIgeD0iMHB4IiB5PSIwcHgiIHZpZXdCb3g9IjAgMCAxMDEuMjggNjQuNDYiIHN0eWxlPSJlbmFibGUtYmFja2dyb3VuZDpuZXcgMCAwIDEwMS4yOCA2NC40NjsiIHhtbDpzcGFjZT0icHJlc2VydmUiPiYjeGE7PHNvZGlwb2RpOm5hbWVkdmlldyBib3JkZXJjb2xvcj0iIzY2NjY2NiIgYm9yZGVyb3BhY2l0eT0iMSIgZml0LW1hcmdpbi1ib3R0b209IjAiIGZpdC1tYXJnaW4tbGVmdD0iMCIgZml0LW1hcmdpbi1yaWdodD0iMCIgZml0LW1hcmdpbi10b3A9IjAiIGdyaWR0b2xlcmFuY2U9IjEwIiBndWlkZXRvbGVyYW5jZT0iMTAiIGlkPSJuYW1lZHZpZXcxMDEyOTEiIGlua3NjYXBlOmN1cnJlbnQtbGF5ZXI9InN2ZzEwMTI4OSIgaW5rc2NhcGU6Y3g9IjY3LjUyMzY1MyIgaW5rc2NhcGU6Y3k9IjQzLjE3NTI0NCIgaW5rc2NhcGU6cGFnZW9wYWNpdHk9IjAiIGlua3NjYXBlOnBhZ2VzaGFkb3c9IjIiIGlua3NjYXBlOndpbmRvdy1oZWlnaHQ9IjEwMTciIGlua3NjYXBlOndpbmRvdy1tYXhpbWl6ZWQ9IjEiIGlua3NjYXBlOndpbmRvdy13aWR0aD0iMTkyMCIgaW5rc2NhcGU6d2luZG93LXg9Ii04IiBpbmtzY2FwZTp3aW5kb3cteT0iLTgiIGlua3NjYXBlOnpvb209IjkuODQ1NDgxNCIgb2JqZWN0dG9sZXJhbmNlPSIxMCIgcGFnZWNvbG9yPSIjZmZmZmZmIiBzaG93Z3JpZD0iZmFsc2UiPiYjeGE7CTwvc29kaXBvZGk6bmFtZWR2aWV3PiYjeGE7PGcgaWQ9ImcxMDEyODciIHRyYW5zZm9ybT0idHJhbnNsYXRlKC0wLjY0NTM3OTIxLC0wLjk0MzY1ODU5KSI+JiN4YTsJPHRpdGxlIGlkPSJ0aXRsZTEwMTIxNyI+UGFnZS0xPC90aXRsZT4mI3hhOwk8ZyBpZD0iZ3JvdXAzOTM5LTEiIHRyYW5zZm9ybT0idHJhbnNsYXRlKDAuNTc1NTk0LC0wLjU4MDQ2NikiPiYjeGE7CQk8dGl0bGUgaWQ9InRpdGxlMTAxMjE5Ij5Nb25nb0RCPC90aXRsZT4mI3hhOwkJPGcgaWQ9Imdyb3VwMzk0MC0yIj4mI3hhOwkJCTx0aXRsZSBpZD0idGl0bGUxMDEyMjEiPkxheWVyIDE8L3RpdGxlPiYjeGE7CQkJPGcgaWQ9Imdyb3VwMzk0MS0zIj4mI3hhOwkJCQk8dGl0bGUgaWQ9InRpdGxlMTAxMjIzIj5zdmdfMTwvdGl0bGU+JiN4YTsJCQkJPGcgaWQ9Imdyb3VwMzk0Mi00IiB0cmFuc2Zvcm09InRyYW5zbGF0ZSgzOS4zOTksLTIwLjUxMTUpIj4mI3hhOwkJCQkJPHRpdGxlIGlkPSJ0aXRsZTEwMTIyNSI+Zzg2MjwvdGl0bGU+JiN4YTsJCQkJCTxnIGlkPSJzaGFwZTM5NDMtNSIgdHJhbnNmb3JtPSJ0cmFuc2xhdGUoOS43MDgzNywtNS44MDEwNykiPiYjeGE7CQkJCQkJPHRpdGxlIGlkPSJ0aXRsZTEwMTIyNyI+cGF0aDI8L3RpdGxlPiYjeGE7CQkJCQkJPHBhdGggaWQ9InBhdGgxMDEyMjkiIGlua3NjYXBlOmNvbm5lY3Rvci1jdXJ2YXR1cmU9IjAiIHN0eWxlPSJmaWxsOiM1OTk2MzY7IiBkPSJNMC4xNCwyNy45NmMwLjM0LDAuNjIsMC43OSwxLjYsMS4xOCwyLjIgICAgICAgIGMwLjI2LDAuNDEsMC41NSwwLjc3LDAuODksMS4xYzAuOTgsMC45OSwxLjkxLDIuMDIsMi43NSwzLjEyYzEuOTksMi42MSwzLjMzLDUuNTEsNC4yOSw4LjY1YzAuNTgsMS45MiwwLjg5LDMuODksMC45MSw1Ljg4ICAgICAgICBjMC4xLDUuOTQtMS45NCwxMS4wNS02LjA2LDE1LjI5Yy0wLjY3LDAuNjctMS4zOSwxLjI5LTIuMTYsMS44NWMtMC40MSwwLTAuNi0wLjMyLTAuNzctMC42Yy0wLjMxLTAuNTMtMC41LTEuMTMtMC41OS0xLjczICAgICAgICBjLTAuMTUtMC43Mi0wLjI0LTEuNDQtMC4yLTIuMThjMC0wLjEyLDAtMC4yMiwwLTAuMzRDMC4zNiw2MS4xMywwLDI4LjEyLDAuMTQsMjcuOTZ6Ii8+JiN4YTsJCQkJCTwvZz4mI3hhOwkJCQkJPGcgaWQ9InNoYXBlMzk0NC03IiB0cmFuc2Zvcm09InRyYW5zbGF0ZSgwLC01LjM5MzU3KSI+JiN4YTsJCQkJCQk8dGl0bGUgaWQ9InRpdGxlMTAxMjMyIj5wYXRoODwvdGl0bGU+JiN4YTsJCQkJCQk8cGF0aCBpZD0icGF0aDEwMTIzNCIgaW5rc2NhcGU6Y29ubmVjdG9yLWN1cnZhdHVyZT0iMCIgc3R5bGU9ImZpbGw6IzZDQUM0ODsiIGQ9Ik05Ljg1LDI3LjQ4Yy0wLjA1LTAuMS0wLjA5LTAuMDMtMC4xNCwwLjAyICAgICAgICBjMC4wMiwwLjQ4LTAuMTUsMC45MS0wLjQxLDEuMzJjLTAuMjksMC40MS0wLjY3LDAuNzItMS4wNSwxLjA1Yy0yLjE0LDEuODUtMy44Miw0LjA4LTUuMTYsNi41NyAgICAgICAgYy0xLjc3LDMuMzYtMi43MSw2Ljk1LTIuOTcsMTAuNzRDMCw0OC41NSwwLjU1LDUzLjM2LDAuOTgsNTQuNzZjMS4xOCwzLjY5LDMuMjksNi43OCw2LjAyLDkuNDYgICAgICAgIGMwLjY3LDAuNjUsMS4zOSwxLjI1LDIuMTMsMS44M2MwLjIyLDAsMC4yNC0wLjIsMC4yOS0wLjM0YzAuMS0wLjMxLDAuMTctMC42MiwwLjIyLTAuOTNjMC4yMS0xLjIsMC4zMy0yLjQsMC40OC0zLjYgICAgICAgIEMxMC4xMiw2MS4wNCw5LjkyLDI3LjYsOS44NSwyNy40OHoiLz4mI3hhOwkJCQkJPC9nPiYjeGE7CQkJCQk8ZyBpZD0ic2hhcGUzOTQ1LTkiIHRyYW5zZm9ybT0idHJhbnNsYXRlKDkuMTMzMDcpIj4mI3hhOwkJCQkJCTx0aXRsZSBpZD0idGl0bGUxMDEyMzciPnBhdGgxMDwvdGl0bGU+JiN4YTsJCQkJCQk8cGF0aCBpZD0icGF0aDEwMTIzOSIgaW5rc2NhcGU6Y29ubmVjdG9yLWN1cnZhdHVyZT0iMCIgc3R5bGU9ImZpbGw6I0MyQkZCRjsiIGQ9Ik0xLjg5LDYxLjcxYzAuMDUtMC41NSwwLjMyLTEuMDEsMC42LTEuNDcgICAgICAgIGMtMC4yOC0wLjEyLTAuNS0wLjM2LTAuNjctMC42MmMtMC4xNC0wLjI0LTAuMjYtMC41My0wLjM2LTAuNzljLTAuMzMtMS4wMS0wLjQxLTIuMDYtMC41LTMuMDlsMCwwYzAtMC4xLDAtMC4yMiwwLTAuMzFsMCwwICAgICAgICBjMC0wLjEsMC0wLjIyLDAtMC4zMmMtMC4xMiwwLjEtMC4xNCwwLjkyLTAuMTQsMS4wNGMtMC4wOCwxLjEtMC4yMiwyLjE4LTAuNDQsMy4yM0MwLjMxLDU5LjgxLDAuMjYsNjAuMjQsMCw2MC42MyAgICAgICAgYzAsMC4wNSwwLDAuMDksMC4wMiwwLjE3YzAuNDQsMS4yNywwLjU2LDIuNTYsMC42MywzLjg4YzAsMC4xNywwLDAuMzEsMCwwLjQ4YzAsMC41Ny0wLjAzLDAuNDUsMC40NSwwLjY1ICAgICAgICBjMC4xOSwwLjA3LDAuNDEsMC4wOSwwLjYsMC4yNGMwLjE1LDAsMC4xNy0wLjEyLDAuMTctMC4yMkMxLjg1LDY1LjU3LDEuOCw2NS4zLDEuOCw2NS4wNGMwLTAuNzQtMC4wMy0xLjQ2LDAtMi4yMSAgICAgICAgQzEuNzcsNjIuNDUsMS44NSw2Mi4wNywxLjg5LDYxLjcxeiIvPiYjeGE7CQkJCQk8L2c+JiN4YTsJCQkJPC9nPiYjeGE7CQkJCTxnIGlkPSJncm91cDM5NDYtMTEiPiYjeGE7CQkJCQk8dGl0bGUgaWQ9InRpdGxlMTAxMjQzIj5nODgwPC90aXRsZT4mI3hhOwkJCQkJPGcgaWQ9InNoYXBlMzk0Ny0xMiIgdHJhbnNmb3JtPSJ0cmFuc2xhdGUoMCwtNi4xMTU1NikiPiYjeGE7CQkJCQkJPHRpdGxlIGlkPSJ0aXRsZTEwMTI0NSI+cGF0aDQ8L3RpdGxlPiYjeGE7CQkJCQkJPHBhdGggaWQ9InBhdGgxMDEyNDciIGlua3NjYXBlOmNvbm5lY3Rvci1jdXJ2YXR1cmU9IjAiIHN0eWxlPSJmaWxsOiM0NzQ3NEE7IiBkPSJNMy44NSw2MS40N2MwLDAuODgsMCwxLjc2LDAsMi42MiAgICAgICAgYzAsMC4xMSwwLDAuMjEsMC4wMiwwLjMxYzAuMDMsMC4zMiwwLjIyLDAuNTEsMC41MiwwLjU5YzAuMjYsMC4wNywwLjUzLDAuMTIsMC43OSwwLjE2YzAuMTYsMC4wMSwwLjIxLDAuMDgsMC4yMywwLjI0ICAgICAgICBjMC4wMSwwLjU5LTAuMDQsMC42Ni0wLjYxLDAuNjJjLTEuMzMtMC4wNy0yLjY2LTAuMDktMy45OSwwYy0wLjA1LDAtMC4xLDAtMC4xNCwwYy0wLjQxLDAuMDItMC40NS0wLjAyLTAuNDUtMC40MyAgICAgICAgYzAtMC4wNywwLjAyLTAuMTYsMC4wMi0wLjIzYzAtMC4xMywwLjA5LTAuMTksMC4yMS0wLjE5YzAuMjgtMC4wMywwLjUzLTAuMSwwLjc5LTAuMTVjMC4zNy0wLjA5LDAuNTctMC4zMSwwLjYxLTAuNjcgICAgICAgIGMwLjA1LTAuNCwwLjA1LTAuODIsMC4wNS0xLjIxYzAuMDUtMS41NCwwLjAzLTMuMSwwLjAyLTQuNjNjMC0wLjMtMC4xMi0wLjUyLTAuMzgtMC42NmMtMC4zMS0wLjE3LTAuNjQtMC4zMS0wLjk5LTAuNDIgICAgICAgIGMtMC4xLTAuMDMtMC4yLTAuMDUtMC4yOS0wLjFDMC4wMiw1Ny4yLDAsNTYuOTgsMC4yNCw1Ni44NGMwLjA5LTAuMDUsMC4xOS0wLjA5LDAuMy0wLjExYzEuMDUtMC4xNSwyLjA3LTAuNDEsMy4wNy0wLjc3ICAgICAgICBjMC4yMS0wLjA3LDAuMjYtMC4wNiwwLjI4LDAuMTVjMC4wMSwwLjE0LDAsMC4yOC0wLjAyLDAuNGMtMC4wMywwLjIyLTAuMDMsMC40NS0wLjAzLDAuNjZjMCwwLjA4LDAuMDEsMC4xNywwLjEsMC4yMiAgICAgICAgYzAuMDksMC4wNSwwLjE3LDAsMC4yNC0wLjA1YzAuMzYtMC4yOCwwLjczLTAuNTQsMS4xMi0wLjc2YzAuNTctMC4zMSwxLjE4LTAuNTksMS44My0wLjY4YzAuOC0wLjEsMS40OSwwLjExLDIuMSwwLjYzICAgICAgICBjMC4yNSwwLjIyLDAuNDYsMC40OCwwLjY1LDAuNzZjMC4xNywwLjI0LDAuMTksMC4yNiwwLjQyLDAuMDhjMC42NS0wLjQ4LDEuMzQtMC45MSwyLjA5LTEuMjJjMC43Ny0wLjMzLDEuNTctMC4zOCwyLjM2LTAuMTEgICAgICAgIGMwLjgyLDAuMywxLjM3LDAuODcsMS43LDEuNjRjMC4yNywwLjYzLDAuMzksMS4yOCwwLjM5LDEuOTRjMCwxLjAyLDAsMi4wNCwwLDMuMDdjMCwwLjUyLDAsMS4wNCwwLDEuNTYgICAgICAgIGMwLDAuMzEsMC4xNCwwLjUyLDAuNDQsMC42NmMwLjMyLDAuMTMsMC42OSwwLjE5LDEuMDMsMC4yNWMwLjIzLDAuMDYsMC4yMywwLjA2LDAuMjMsMC4yOGMtMC4wNCwwLjU3LTAuMDksMC42MS0wLjY0LDAuNTcgICAgICAgIGMtMS4zOC0wLjA5LTIuNzgtMC4wNy00LjE3LDBjLTAuMjcsMC4wMi0wLjI3LDAuMDItMC4yOS0wLjI2YzAtMC4wMywwLTAuMDUsMC0wLjA4Yy0wLjAyLTAuNDctMC4wMi0wLjQ3LDAuNDMtMC41NyAgICAgICAgYzAuMTYtMC4wNCwwLjMtMC4wNywwLjQ1LTAuMTNjMC4zNS0wLjEsMC41Mi0wLjMyLDAuNTQtMC42N2MwLjAxLTAuNDMsMC4wMy0wLjg2LDAuMDUtMS4yOWMwLTEuMTMsMC4wMy0yLjI3LTAuMDQtMy4zOSAgICAgICAgYy0wLjAxLTAuMjktMC4wNi0wLjU5LTAuMTktMC44OGMtMC40My0xLjA2LTEuMzgtMS40NC0yLjI5LTEuMzNjLTAuNjksMC4wNy0xLjMsMC4zNC0xLjg3LDAuNzQgICAgICAgIGMtMC4xMiwwLjA5LTAuMjEsMC4xOS0wLjE5LDAuMzZjMC4xNiwxLjExLDAuMDUsMi4yMSwwLjA3LDMuMzJjMC4wMiwwLjc5LDAsMS42MSwwLDIuNGMwLDAuNDMsMC4xNywwLjY0LDAuNTksMC43NCAgICAgICAgYzAuMjYsMC4wNywwLjUyLDAuMTMsMC43OSwwLjE4YzAuMTIsMC4wMSwwLjE5LDAuMDcsMC4xOSwwLjJjMCwwLjA2LDAsMC4xMSwwLDAuMTRjLTAuMDIsMC40OS0wLjA1LDAuNTItMC41MywwLjUgICAgICAgIGMtMS4zOS0wLjA3LTIuNzctMC4wNS00LjEzLDBjLTAuNDcsMC4wMi0wLjUyLTAuMDMtMC40OS0wLjUxYzAuMDItMC4yOCwwLjA2LTAuMywwLjMxLTAuMzVjMC4xOS0wLjAzLDAuMzgtMC4wNywwLjU3LTAuMSAgICAgICAgYzAuNTItMC4xMSwwLjctMC4zLDAuNzMtMC44M2MwLjAyLTAuMzgsMC4wNS0wLjc4LDAuMDUtMS4xNmMwLjAyLTEuMTYsMC4wNS0yLjMyLTAuMDMtMy40N2MtMC4wNC0wLjQzLTAuMTQtMC44NS0wLjM3LTEuMjUgICAgICAgIGMtMC4zNC0wLjY0LTAuODktMC45Ni0xLjYyLTFjLTAuNzQtMC4wNS0xLjQsMC4yMy0yLjAyLDAuNTdjLTAuNDMsMC4yNC0wLjYyLDAuNTUtMC41OSwxLjA2ICAgICAgICBDMy44Nyw1OS44MSwzLjg0LDYwLjY0LDMuODUsNjEuNDdDMy44NCw2MS40NywzLjg1LDYxLjQ3LDMuODUsNjEuNDdDMy44NSw2MS40NywzLjg1LDYxLjQ3LDMuODUsNjEuNDd6Ii8+JiN4YTsJCQkJCTwvZz4mI3hhOwkJCQkJPGcgaWQ9Imdyb3VwMzk0OC0xNCIgdHJhbnNmb3JtPSJ0cmFuc2xhdGUoMjAuMzY3OSkiPiYjeGE7CQkJCQkJPHRpdGxlIGlkPSJ0aXRsZTEwMTI1MCI+Zzg3MDwvdGl0bGU+JiN4YTsJCQkJCQk8ZyBpZD0ic2hhcGUzOTQ5LTE1IiB0cmFuc2Zvcm09InRyYW5zbGF0ZSgxMS45NzIsLTUuOTYwMDYpIj4mI3hhOwkJCQkJCQk8dGl0bGUgaWQ9InRpdGxlMTAxMjUyIj5wYXRoNjwvdGl0bGU+JiN4YTsJCQkJCQkJPHBhdGggaWQ9InBhdGgxMDEyNTQiIGlua3NjYXBlOmNvbm5lY3Rvci1jdXJ2YXR1cmU9IjAiIHN0eWxlPSJmaWxsOiM0NzQ3NEE7IiBkPSJNNC4wNiw2MS40MmMwLDAuODEsMCwxLjYyLDAsMi40MyAgICAgICAgIGMwLDAuMTcsMC4wMiwwLjM1LDAuMDMsMC41MmMwLjA0LDAuMjYsMC4xOCwwLjQxLDAuNDIsMC40OGMwLjI5LDAuMDksMC42LDAuMTQsMC45MSwwLjE2YzAuMTgsMC4wMiwwLjIxLDAuMDksMC4yMywwLjIyICAgICAgICAgYzAsMC4wNCwwLDAuMDcsMCwwLjEyYy0wLjAyLDAuNjEtMC4wOSwwLjY4LTAuNjcsMC42NGMtMS4zMi0wLjA4LTIuNjMtMC4wNy0zLjk0LDBjLTAuMTgsMC0wLjM1LDAuMDItMC41MiwwLjAyICAgICAgICAgYy0wLjExLDAtMC4xNC0wLjA1LTAuMTYtMC4xMmMtMC4wNS0wLjI0LTAuMDUtMC40OCwwLTAuNzNjMC4wMi0wLjEsMC4wOS0wLjEzLDAuMTktMC4xNWMwLjI0LTAuMDQsMC40Ny0wLjA5LDAuNzEtMC4xNCAgICAgICAgIGMwLjQzLTAuMSwwLjU5LTAuMjgsMC42MS0wLjcyYzAuMDMtMC40OSwwLjA1LTAuOTcsMC4wNS0xLjQ2YzAtMS40MSwwLTIuODMsMC00LjI1YzAtMC4zMS0wLjEyLTAuNS0wLjQtMC42NCAgICAgICAgIGMtMC4zMS0wLjE3LTAuNjQtMC4yOS0wLjk4LTAuNDFjLTAuMTEtMC4wMy0wLjIxLTAuMDctMC4zLTAuMTJDMC4wMiw1Ny4xMSwwLDU2Ljg5LDAuMjEsNTYuNzJjMC4xLTAuMDksMC4yLTAuMTIsMC4zNC0wLjE0ICAgICAgICAgYzEuMTEtMC4xNywyLjE4LTAuNDIsMy4yMi0wLjgzYzAuMTItMC4wNSwwLjE3LTAuMDIsMC4yMiwwLjA5YzAuMDUsMC4xLDAuMDcsMC4yMiwwLjA1LDAuMzRjLTAuMDEsMC4yOC0wLjAzLDAuNTQtMC4wNSwwLjgxICAgICAgICAgYzAsMC4xMS0wLjA1LDAuMjQsMC4wNCwwLjNjMC4xLDAuMDcsMC4xNy0wLjA5LDAuMjUtMC4xNGMwLjUyLTAuNDIsMS4wOC0wLjgsMS42OC0xLjA3YzAuNTQtMC4yNCwxLjA5LTAuNDIsMS43MS0wLjM4ICAgICAgICAgYzEuMTYsMC4wNywxLjk5LDAuNjUsMi41MiwxLjY3YzAuMjgsMC41NCwwLjQsMS4xMywwLjQ1LDEuNzNjMC4wNCwwLjQyLDAuMDUsMC44NSwwLjA1LDEuMjhjMCwxLjE5LDAuMDIsMi4zNywwLjAyLDMuNTYgICAgICAgICBjMCwwLjA4LDAsMC4xNywwLDAuMjZjMC4wMiwwLjI5LDAuMTIsMC40OCwwLjQyLDAuNThjMC4zMSwwLjExLDAuNiwwLjE4LDAuOTMsMC4yM2MwLjI3LDAuMDMsMC4yOSwwLjA5LDAuMzEsMC4zNCAgICAgICAgIGMwLDAuMDQsMCwwLjA2LDAsMC4wOWMtMC4wNCwwLjU5LTAuMDcsMC42MS0wLjY2LDAuNTdjLTEuMjktMC4wNy0yLjU5LTAuMDctMy44NywwYy0wLjE3LDAuMDItMC4zNCwwLTAuNTIsMC4wMiAgICAgICAgIGMtMC4xLDAtMC4xNy0wLjAyLTAuMTktMC4xMmMtMC4wMy0wLjIzLTAuMDYtMC40NS0wLjAxLTAuNjljMC4wMS0wLjExLDAuMDctMC4xNiwwLjE5LTAuMThjMC4yNi0wLjAzLDAuNTMtMC4wNywwLjc5LTAuMTMgICAgICAgICBjMC4yOC0wLjA3LDAuNDMtMC4yNSwwLjQ3LTAuNTJjMC4wMi0wLjE2LDAuMDMtMC4zMywwLjAzLTAuNDljMC0xLjIxLDAtMi40Mi0wLjAxLTMuNjFjMC0wLjQxLTAuMDItMC44My0wLjExLTEuMjQgICAgICAgICBjLTAuMi0wLjktMC44OC0xLjUtMS43OS0xLjYxYy0wLjgtMC4wOC0xLjUxLDAuMTItMi4xOCwwLjU2Yy0wLjMzLDAuMi0wLjQ3LDAuNS0wLjQ3LDAuODZjMCwwLjYsMCwxLjIxLDAsMS44MyAgICAgICAgIGMwLDAuMjYsMCwwLjUyLDAsMC43OEM0LjA0LDYxLjQyLDQuMDQsNjEuNDIsNC4wNiw2MS40MkM0LjA2LDYxLjQyLDQuMDYsNjEuNDIsNC4wNiw2MS40MnoiLz4mI3hhOwkJCQkJCTwvZz4mI3hhOwkJCQkJCTxnIGlkPSJzaGFwZTM5NTAtMTciIHRyYW5zZm9ybT0idHJhbnNsYXRlKDUwLjgwNzYsLTYuMTE1NTIpIj4mI3hhOwkJCQkJCQk8dGl0bGUgaWQ9InRpdGxlMTAxMjU3Ij5wYXRoMTI8L3RpdGxlPiYjeGE7CQkJCQkJCTxwYXRoIGlkPSJwYXRoMTAxMjU5IiBpbmtzY2FwZTpjb25uZWN0b3ItY3VydmF0dXJlPSIwIiBzdHlsZT0iZmlsbDojQzJCRkJGOyIgZD0iTTE1LjgyLDU2LjY4ICAgICAgICAgYy0wLjE5LTEuMjYtMC42NS0yLjM4LTEuNDYtMy4zN2MtMC43My0wLjg4LTEuNjEtMS41My0yLjY2LTEuOTdjLTEuMDktMC40NS0yLjI1LTAuNTgtMy40Mi0wLjYyICAgICAgICAgYy0wLjQ5LTAuMDItNy4wOSwwLjA5LTcuNTcsMGMtMC4xMi0wLjAyLTAuMjEsMC4wMi0wLjI4LDAuMTJjLTAuMDgsMC4xNC0wLjE3LDAuMjYtMC4yMiwwLjRDMCw1MS43MSwwLDUxLjY3LDAuNSw1MS43NCAgICAgICAgIGMwLjQyLDAuMDcsMC44MSwwLjEsMS4yMSwwLjIzYzAuMzYsMC4xMiwwLjYyLDAuMzIsMC43MSwwLjcyYzAuMDMsMC4xOSwwLjA3LDYuMjcsMC4wNyw5LjExYzAsMC42Ny0wLjAyLDEuMzQtMC4wNywyLjAyICAgICAgICAgYy0wLjAyLDAuMTUtMC4wNCwwLjMxLTAuMDksMC40NWMtMC4wNywwLjItMC4xOSwwLjM4LTAuNCwwLjQ2Yy0wLjIyLDAuMTEtMC40NiwwLjE4LTAuNzIsMC4xOSAgICAgICAgIGMtMC40NywwLjA1LTAuNTQsMC4wNy0wLjY5LDAuNTljLTAuMDIsMC4wNy0wLjA0LDAuMTQtMC4wNSwwLjE5Yy0wLjA0LDAuMjItMC4wMiwwLjI2LDAuMiwwLjI2ICAgICAgICAgYzEuMDQsMC4wMiw0LjMxLDAuMDUsNS4xNywwLjA1YzAuNDgtMC4wMiwxLjI2LDAuMDQsMi4wMi0wLjAzYzAuNDctMC4wNiwwLjkzLTAuMDksMS40LTAuMThjMS41OS0wLjI5LDMuMDEtMC45NSw0LjIyLTIgICAgICAgICBjMC43LTAuNjIsMS4yNC0xLjM1LDEuNjUtMi4xOGMwLjQ5LTAuOTYsMC42OS0yLjAyLDAuNzUtMy4wOUMxNS45Niw1Ny45MywxNS45Myw1Ny4zLDE1LjgyLDU2LjY4TDE1LjgyLDU2LjY4eiBNMTMuMzIsNTkuMTQgICAgICAgICBjLTAuMDcsMS4xLTAuMjksMi4xNy0wLjg2LDMuMTRjLTAuNzMsMS4yNi0xLjc3LDIuMTQtMy4yLDIuNDVjLTAuNjIsMC4xNC0xLjI0LDAuMTktMS44OCwwLjExICAgICAgICAgYy0wLjQ3LTAuMDYtMC45Mi0wLjExLTEuMzUtMC4yNmMtMC43OC0wLjI4LTEuMDUtMC43Ni0xLjA3LTEuNTFjLTAuMDQtMS4wOCwwLTguNy0wLjAyLTEwLjQxYzAtMC42MywwLjI4LTAuNzYsMC43My0wLjc4ICAgICAgICAgYzAuNjctMC4wNSwxLjM2LTAuMDQsMi4wMywwLjAzYzAuNzMsMC4wNywxLjQyLDAuMjUsMi4xLDAuNTJjMC41LDAuMjEsMC45NiwwLjUsMS4zNiwwLjg1YzAuOTMsMC43OSwxLjU1LDEuOCwxLjg4LDIuOTcgICAgICAgICBDMTMuMzIsNTcuMiwxMy4zNyw1OC4xNywxMy4zMiw1OS4xNHoiLz4mI3hhOwkJCQkJCTwvZz4mI3hhOwkJCQkJCTxnIGlkPSJzaGFwZTM5NTEtMTkiIHRyYW5zZm9ybT0idHJhbnNsYXRlKDY3Ljg5MzIsLTYuMDExOSkiPiYjeGE7CQkJCQkJCTx0aXRsZSBpZD0idGl0bGUxMDEyNjIiPnBhdGgxNDwvdGl0bGU+JiN4YTsJCQkJCQkJPHBhdGggaWQ9InBhdGgxMDEyNjQiIGlua3NjYXBlOmNvbm5lY3Rvci1jdXJ2YXR1cmU9IjAiIHN0eWxlPSJmaWxsOiNDMkJGQkY7IiBkPSJNMTMuMDksNjAuNzJjMC0wLjEsMC0wLjE5LTAuMDEtMC4yOSAgICAgICAgIGMtMC4xNi0wLjk1LTAuNjYtMS42Ny0xLjQ0LTIuMjNjLTAuNS0wLjM2LTEuMDctMC42LTEuNjUtMC43OGMtMC4xMS0wLjAzLTAuMTktMC4wNi0wLjMtMC4wOGMwLjAyLTAuMDksMC4wNy0wLjExLDAuMTItMC4xMiAgICAgICAgIGMwLjM1LTAuMTgsMC42OC0wLjM3LDAuOTctMC42MmMwLjU0LTAuNDUsMC45LTEuMDEsMS4wNy0xLjY4YzAuMS0wLjM2LDAuMS0wLjczLDAuMDctMS4xMWMtMC4wOS0wLjk1LTAuNS0xLjY5LTEuMjYtMi4yNCAgICAgICAgIGMtMC44LTAuNTktMS43My0wLjgzLTIuNy0wLjg1Yy0xLjg2LTAuMDMtMy43NCwwLTUuNjEsMGMtMC41NCwwLTEuMDcsMC4wNC0xLjYyLTAuMDVjLTAuMTEtMC4wMi0wLjI1LTAuMDUtMC4zMywwLjA3ICAgICAgICAgYy0wLjE0LDAuMjItMC4yOCwwLjQ1LTAuMzMsMC43MWMtMC4wMiwwLjEyLDAuMDIsMC4xOSwwLjE1LDAuMmMwLjQsMC4wNiwwLjgsMC4xMywxLjIsMC4xOGMwLjQ2LDAuMDcsMC43OSwwLjMzLDAuODMsMC43NCAgICAgICAgIGMwLjAzLDAuMjksMC4wNSwwLjU3LDAuMDUsMC44NmMwLDEuMDgtMC4wMiwyLjE2LTAuMDQsMy4yM2MtMC4wMywyLjEzLTAuMDEsNC4yNy0wLjAxLDYuNGMwLDAuMzgtMC4wNiwwLjc0LTAuMTMsMS4xMiAgICAgICAgIGMtMC4wNSwwLjI2LTAuMTksMC40My0wLjQ0LDAuNTJDMS4zMyw2NC44LDEsNjQuOTEsMC42NCw2NC45MWMtMC4yMywwLTAuMzYsMC4wOC0wLjQ1LDAuMjljLTAuMDcsMC4xNS0wLjE0LDAuMzMtMC4xNiwwLjQ4ICAgICAgICAgQzAsNjUuODksMC4wNSw2NS45NiwwLjI2LDY1LjkyYzAuMTUtMC4wMSw1Ljg2LDAuMTMsNi45MywwLjAyYzAuNjQtMC4wNywxLjI4LTAuMTUsMS45LTAuMzRjMS4wOS0wLjM1LDIuMDktMC44NSwyLjg4LTEuNyAgICAgICAgIGMwLjY2LTAuNjksMS4wNC0xLjUyLDEuMDctMi40OEMxMy4wOSw2MS4xOSwxMy4wOSw2MC45NywxMy4wOSw2MC43MnogTTQuNzIsNTMuNjZjMC4wMy0wLjQ3LDAuMDMtMC45MiwwLjA1LTEuMzggICAgICAgICBjMC0wLjI2LDAuMS0wLjM4LDAuMzYtMC40NGMwLjQyLTAuMDgsMC44My0wLjA1LDEuMjQtMC4wM2MwLjQyLDAuMDMsMC44MiwwLjA5LDEuMjMsMC4yMWMwLjc2LDAuMjIsMS4zNSwwLjY1LDEuNjksMS4zOCAgICAgICAgIGMwLjE2LDAuMzMsMC4yNSwwLjY5LDAuMjUsMS4wNWMwLjAxLDAuNDktMC4wMiwwLjk1LTAuMjEsMS40MmMtMC4yOSwwLjY0LTAuNzYsMS4wNS0xLjQ0LDEuMTcgICAgICAgICBjLTAuNjcsMC4xMy0yLjU5LDAuMDctMi44OCwwLjA3Yy0wLjI2LDAtMC4yOC0wLjAzLTAuMjgtMC4yOWMwLTAuNTUsMC0xLjExLDAtMS42NGwwLDBDNC43LDU0LjcsNC42OCw1NC4xOCw0LjcyLDUzLjY2eiAgICAgICAgICBNMTAuMzMsNjIuOTVjLTAuMjksMC43OC0wLjgzLDEuMzItMS41OSwxLjYxYy0wLjQxLDAuMTYtMC44MywwLjI0LTEuMjgsMC4yMmMtMC41My0wLjAxLTEuMDcsMC0xLjYtMC4xICAgICAgICAgYy0wLjczLTAuMTUtMS4wNi0wLjg1LTEuMTEtMS4zNWMtMC4wOS0wLjg4LTAuMDMtMS43OC0wLjA1LTIuNDNjMC0wLjkyLDAtMS41OSwwLTIuMjhjMC0wLjI4LDAuMDMtMC4zNywwLjMzLTAuMzcgICAgICAgICBjMC41My0wLjAxLDEuMDctMC4wMywxLjYyLDAuMDJjMC4zOCwwLjA0LDAuNzQsMC4wNywxLjExLDAuMTRjMC43NywwLjE3LDEuNDgsMC40NywyLjA0LDEuMDdjMC40NCwwLjQ4LDAuNjksMS4wNywwLjc0LDEuNzEgICAgICAgICBDMTAuNTksNjEuOCwxMC41Niw2Mi4zOCwxMC4zMyw2Mi45NUMxMC4zMyw2Mi45NSwxMC4zMyw2Mi45NSwxMC4zMyw2Mi45NXoiLz4mI3hhOwkJCQkJCTwvZz4mI3hhOwkJCQkJCTxnIGlkPSJzaGFwZTM5NTItMjEiIHRyYW5zZm9ybT0idHJhbnNsYXRlKDI1LjU4NTIpIj4mI3hhOwkJCQkJCQk8dGl0bGUgaWQ9InRpdGxlMTAxMjY3Ij5wYXRoMTY8L3RpdGxlPiYjeGE7CQkJCQkJCTxwYXRoIGlkPSJwYXRoMTAxMjY5IiBpbmtzY2FwZTpjb25uZWN0b3ItY3VydmF0dXJlPSIwIiBzdHlsZT0iZmlsbDojNDc0NzRBOyIgZD0iTTguNzQsNTEuNzJjMC4xNiwwLjAyLDAuMzEsMC4wNiwwLjQ1LDAuMDcgICAgICAgICBjMC40OCwwLjAyLDEuMDUtMC4xNSwxLjIzLTAuODNjMC4wOC0wLjMyLDAuMS0wLjY0LDAtMC45OGMtMC4xMSwwLTAuMTYsMC4wOS0wLjIxLDAuMTJjLTAuMjYsMC4yMS0wLjU1LDAuMzMtMC44NiwwLjM2ICAgICAgICAgQzguNzIsNTAuNTMsOC4xLDUwLjUsNy41LDUwLjI3Yy0wLjI4LTAuMS0wLjU2LTAuMi0wLjg1LTAuMjljLTAuNTktMC4xOS0xLjIxLTAuMjgtMS44My0wLjI0ICAgICAgICAgYy0wLjg4LDAuMDctMS43MSwwLjM2LTIuNDksMC43N2MtMC44MywwLjQ1LTEuNDEsMS4xMy0xLjY5LDIuMDRjLTAuMTYsMC41NC0wLjE3LDEuMDktMC4xLDEuNjRjMC4xNywxLjI3LDAuODIsMi4xNSwyLDIuNjEgICAgICAgICBjMC4wNywwLjAyLDAuMTIsMC4wNSwwLjE5LDAuMDdjMC4xNiwwLjA5LDAuMTcsMC4xNywwLjAzLDAuM2MtMC4xMywwLjEtMC4yNywwLjItMC40MywwLjI5Yy0wLjM0LDAuMjEtMC42OSwwLjQxLTEuMDMsMC42NCAgICAgICAgIGMtMC4yNiwwLjE1LTAuMywwLjI4LTAuMjEsMC41NWMwLjEsMC4zMywwLjI5LDAuNjEsMC41NSwwLjgzYzAuMjQsMC4yMSwwLjUsMC4zNiwwLjgsMC40OGMwLjE5LDAuMDksMC4xOSwwLjE0LDAuMDEsMC4yOCAgICAgICAgIGMtMC4zMywwLjI0LTAuNjUsMC40Ny0wLjk4LDAuNzFjLTAuMzMsMC4yNC0wLjY2LDAuNTItMC45MywwLjgzYy0wLjQsMC40NS0wLjU0LDAuOTctMC40MiwxLjU1ICAgICAgICAgYzAuMTQsMC42MywwLjQzLDEuMTMsMC45LDEuNTZDMS40Nyw2NS4zLDIsNjUuNiwyLjYxLDY1Ljc1YzAuOTcsMC4yOCwxLjk3LDAuMywyLjk1LDAuMTFjMS40Mi0wLjI2LDIuNjUtMC45LDMuNjMtMS45NiAgICAgICAgIGMwLjY3LTAuNywxLjA3LTEuNTMsMS4xMS0yLjU0YzAuMDUtMS4yMS0wLjY5LTIuMjItMS44Ny0yLjUyYy0wLjMxLTAuMDctMC42Mi0wLjEyLTAuOTMtMC4xN2MtMC45NS0wLjEyLTEuOS0wLjE3LTIuODUtMC4yNCAgICAgICAgIGMtMC4zMS0wLjAyLTAuNjItMC4wNy0wLjg4LTAuMjNjLTAuMzMtMC4yLTAuNDItMC42LTAuMjEtMC44NmMwLjE1LTAuMTksMC4zNC0wLjMxLDAuNTktMC4zM2MwLjE5LTAuMDIsMC4zNi0wLjAzLDAuNTUtMC4wNSAgICAgICAgIGMxLjEyLTAuMTIsMi4wOS0wLjU3LDIuOTItMS4zM2MwLjQzLTAuNCwwLjcyLTAuOSwwLjg4LTEuNDdjMC4yMS0wLjc0LDAuMjEtMS41LDAuMDMtMi4yNkM4LjQ4LDUxLjcxLDguNSw1MS42OSw4Ljc0LDUxLjcyeiAgICAgICAgICBNNC41MSw2MC4zM2MwLjEsMC4wMSwwLjIxLDAsMC4zMSwwQzUuNTUsNjAuMzYsNi4yOSw2MC40MSw3LDYwLjZjMC4yNCwwLjA3LDAuNDUsMC4xNiwwLjY3LDAuMjYgICAgICAgICBjMC42OSwwLjM4LDAuOTUsMS4wNCwwLjg2LDEuNzVDOC40Myw2My4zOSw4LDYzLjk0LDcuMzIsNjQuM2MtMC40NCwwLjI0LTAuOTUsMC4zNi0xLjQ2LDAuNDJjLTAuMTksMC4wMS0wLjM3LDAtMC41NiwwICAgICAgICAgYy0wLjYsMC4wMS0xLjE5LTAuMDYtMS43Ni0wLjNjLTAuNC0wLjE1LTAuNzItMC4zOC0xLjAyLTAuNjljLTAuNi0wLjYtMC45LTEuNzEsMC4wMi0yLjYxQzMuMDksNjAuNiwzLjcxLDYwLjI2LDQuNTEsNjAuMzN6ICAgICAgICAgIE02LjQ4LDU0Ljk0Yy0wLjM2LDAuOTEtMS4xNiwxLjE5LTEuOTUsMS4wN2MtMC43My0wLjExLTEuMjYtMC41LTEuNjEtMS4xNmMtMC40NS0wLjg4LTAuNTctMS44LTAuMzEtMi43NSAgICAgICAgIGMwLjE5LTAuNywwLjYyLTEuMjQsMS4zOC0xLjM2YzAuOTctMC4xNywxLjg4LDAuMTcsMi4zOCwxLjE0YzAuMjUsMC40NywwLjM3LDEuMDQsMC4zNywxLjg1ICAgICAgICAgQzYuNzIsNTQuMDYsNi42NSw1NC41MSw2LjQ4LDU0Ljk0eiIvPiYjeGE7CQkJCQkJPC9nPiYjeGE7CQkJCQkJPGcgaWQ9InNoYXBlMzk1My0yMyIgdHJhbnNmb3JtPSJ0cmFuc2xhdGUoMCwtNS43NTI3NykiPiYjeGE7CQkJCQkJCTx0aXRsZSBpZD0idGl0bGUxMDEyNzIiPnBhdGgxODwvdGl0bGU+JiN4YTsJCQkJCQkJPHBhdGggaWQ9InBhdGgxMDEyNzQiIGlua3NjYXBlOmNvbm5lY3Rvci1jdXJ2YXR1cmU9IjAiIHN0eWxlPSJmaWxsOiM0NzQ3NEE7IiBkPSJNMTAuMyw1OS41MmMtMC4xNi0wLjk0LTAuNS0xLjc4LTEuMTQtMi40OSAgICAgICAgIEM4LjIxLDU1Ljk3LDcsNTUuNTIsNS42Myw1NS41MWMtMS4xOS0wLjAyLTIuMzEsMC4zMy0zLjMyLDAuOTVjLTEsMC42Mi0xLjY5LDEuNS0yLjAyLDIuNjRjLTAuMjksMS0wLjI3LDIuMDItMC4wNSwzLjA0ICAgICAgICAgYzAuNjEsMi43MywyLjcxLDMuOTEsNS4yNCwzLjczYzAuNzQtMC4wNSwxLjQ1LTAuMjksMi4xMi0wLjYyYzEtMC40NywxLjczLTEuMjEsMi4yMy0yLjE5YzAuNC0wLjgyLDAuNTctMS42OCwwLjU1LTIuNjYgICAgICAgICBDMTAuMzcsNjAuMTUsMTAuMzUsNTkuODMsMTAuMyw1OS41MnogTTcuODQsNjMuMzVjLTAuMzEsMC44My0wLjksMS4zMy0xLjc4LDEuNDVjLTAuNzYsMC4xMS0xLjQ2LTAuMDgtMi4xLTAuNTMgICAgICAgICBjLTAuNDctMC4zNS0wLjgzLTAuNzgtMS4wOS0xLjNDMi4xNiw2MS41MiwyLjA0LDYwLDIuNCw1OC40NGMwLjEyLTAuNDgsMC4zNi0wLjkxLDAuNzMtMS4yNmMwLjY0LTAuNTgsMS4zOC0wLjcyLDIuMjEtMC41NSAgICAgICAgIGMwLjc5LDAuMTcsMS40LDAuNiwxLjg4LDEuMjZzMC43MywxLjQyLDAuODYsMi4yMWMwLjA3LDAuNCwwLjA3LDAuODEsMC4wOSwxLjA3QzguMTcsNjIsOC4xLDYyLjY4LDcuODQsNjMuMzV6Ii8+JiN4YTsJCQkJCQk8L2c+JiN4YTsJCQkJCQk8ZyBpZD0ic2hhcGUzOTU0LTI1IiB0cmFuc2Zvcm09InRyYW5zbGF0ZSgzNy42MjYzLC01LjczNTUpIj4mI3hhOwkJCQkJCQk8dGl0bGUgaWQ9InRpdGxlMTAxMjc3Ij5wYXRoMjA8L3RpdGxlPiYjeGE7CQkJCQkJCTxwYXRoIGlkPSJwYXRoMTAxMjc5IiBpbmtzY2FwZTpjb25uZWN0b3ItY3VydmF0dXJlPSIwIiBzdHlsZT0iZmlsbDojNDc0NzRBOyIgZD0iTTEwLjQyLDU5LjY0ICAgICAgICAgYy0wLjE0LTEuMDEtMC41LTEuOTItMS4yMS0yLjY4Yy0wLjkzLTEuMDItMi4xNC0xLjQ1LTMuNDktMS40N2MtMS4xNi0wLjAyLTIuMjMsMC4zMS0zLjIyLDAuODggICAgICAgICBjLTEuMSwwLjY2LTEuODYsMS41OS0yLjE1LDIuODVjLTAuMzUsMS40Mi0wLjIxLDIuOCwwLjQxLDQuMTFjMC41NywxLjIxLDEuNTQsMS45OSwyLjgyLDIuMzRjMS40MSwwLjM4LDIuNzYsMC4yLDQuMDctMC40NCAgICAgICAgIGMxLjE0LTAuNTUsMS45Ni0xLjQxLDIuNDItMi41OWMwLjI4LTAuNjksMC4zOC0xLjQzLDAuNC0yLjNDMTAuNDksNjAuMTksMTAuNDUsNTkuOTEsMTAuNDIsNTkuNjR6IE04LjAzLDYzLjExICAgICAgICAgYy0wLjI3LDAuOTMtMC44NiwxLjU0LTEuODUsMS42N2MtMC43MiwwLjExLTEuNDEtMC4wNi0yLjAzLTAuNDhjLTAuNTQtMC4zNi0wLjkyLTAuODUtMS4yLTEuNDIgICAgICAgICBjLTAuMzEtMC42LTAuNDgtMS4yNC0wLjU1LTEuOWMtMC4xLTAuODEtMC4xLTEuNiwwLjA5LTIuNDFjMC4wMy0wLjE2LDAuMDgtMC4zMiwwLjE1LTAuNDdjMC40OS0xLjIxLDEuNTYtMS43NiwyLjgyLTEuNDkgICAgICAgICBjMC44NSwwLjE5LDEuNDgsMC42NiwxLjk3LDEuMzdjMC40NiwwLjY5LDAuNjksMS40NSwwLjc5LDIuMjZjMC4wNiwwLjMzLDAuMDcsMC42NywwLjA2LDAuOTcgICAgICAgICBDOC4yOCw2MS44OCw4LjIyLDYyLjUsOC4wMyw2My4xMXoiLz4mI3hhOwkJCQkJCTwvZz4mI3hhOwkJCQkJPC9nPiYjeGE7CQkJCTwvZz4mI3hhOwkJCTwvZz4mI3hhOwkJPC9nPiYjeGE7CTwvZz4mI3hhOzwvZz4mI3hhOzwvc3ZnPg==;" parent="4rNJ4vwEb-hpk1fD-wyn-1" vertex="1">
          <mxGeometry x="32.680000000000064" y="370" width="214.63" height="136" as="geometry" />
        </mxCell>
        <mxCell id="acgDZ-SoyNHMQ0wOxpw4-39" value="&lt;span style=&quot;font-size: 26px;&quot;&gt;Atlas&lt;/span&gt;" style="text;html=1;strokeColor=none;fillColor=none;align=center;verticalAlign=middle;whiteSpace=wrap;rounded=0;" parent="4rNJ4vwEb-hpk1fD-wyn-1" vertex="1">
          <mxGeometry x="60.00000000000023" y="508.5" width="160" height="60" as="geometry" />
        </mxCell>
        <mxCell id="acgDZ-SoyNHMQ0wOxpw4-51" value="&lt;font style=&quot;font-size: 30px;&quot;&gt;Base de datos&lt;/font&gt;" style="text;html=1;strokeColor=none;fillColor=none;align=center;verticalAlign=middle;whiteSpace=wrap;rounded=0;" parent="4rNJ4vwEb-hpk1fD-wyn-1" vertex="1">
          <mxGeometry x="27.309999999999945" y="10" width="220" height="70" as="geometry" />
        </mxCell>
        <mxCell id="4rNJ4vwEb-hpk1fD-wyn-3" value="" style="group;fillColor=#f8cecc;strokeColor=#b85450;" parent="1" vertex="1" connectable="0">
          <mxGeometry x="710" y="211.5" width="360" height="1060" as="geometry" />
        </mxCell>
        <mxCell id="4rNJ4vwEb-hpk1fD-wyn-18" value="" style="group" parent="4rNJ4vwEb-hpk1fD-wyn-3" vertex="1" connectable="0">
          <mxGeometry width="360" height="1060" as="geometry" />
        </mxCell>
        <mxCell id="4rNJ4vwEb-hpk1fD-wyn-29" value="" style="group" parent="4rNJ4vwEb-hpk1fD-wyn-18" vertex="1" connectable="0">
          <mxGeometry width="360" height="1060" as="geometry" />
        </mxCell>
        <mxCell id="acgDZ-SoyNHMQ0wOxpw4-43" value="" style="rounded=0;whiteSpace=wrap;html=1;fillColor=#f8cecc;strokeColor=#b85450;" parent="4rNJ4vwEb-hpk1fD-wyn-29" vertex="1">
          <mxGeometry width="360" height="1060" as="geometry" />
        </mxCell>
        <mxCell id="acgDZ-SoyNHMQ0wOxpw4-19" value="&lt;font style=&quot;font-size: 26px;&quot;&gt;AWS Amplify&lt;/font&gt;" style="text;html=1;strokeColor=none;fillColor=none;align=center;verticalAlign=middle;whiteSpace=wrap;rounded=0;" parent="4rNJ4vwEb-hpk1fD-wyn-29" vertex="1">
          <mxGeometry x="100" y="530" width="160" height="60" as="geometry" />
        </mxCell>
        <mxCell id="acgDZ-SoyNHMQ0wOxpw4-20" value="" style="endArrow=classic;html=1;rounded=0;entryX=0.492;entryY=0.094;entryDx=0;entryDy=0;entryPerimeter=0;strokeWidth=8;" parent="4rNJ4vwEb-hpk1fD-wyn-29" edge="1">
          <mxGeometry width="50" height="50" relative="1" as="geometry">
            <mxPoint x="179.17000000000007" y="307" as="sourcePoint" />
            <mxPoint x="179.17000000000007" y="402" as="targetPoint" />
          </mxGeometry>
        </mxCell>
        <mxCell id="acgDZ-SoyNHMQ0wOxpw4-21" value="" style="shape=image;verticalLabelPosition=bottom;labelBackgroundColor=#ffffff;verticalAlign=top;aspect=fixed;imageAspect=0;image=data:image/svg+xml,PHN2ZyB4bWxuczpjYz0iaHR0cDovL2NyZWF0aXZlY29tbW9ucy5vcmcvbnMjIiB4bWxuczpkYz0iaHR0cDovL3B1cmwub3JnL2RjL2VsZW1lbnRzLzEuMS8iIHhtbG5zOmlua3NjYXBlPSJodHRwOi8vd3d3Lmlua3NjYXBlLm9yZy9uYW1lc3BhY2VzL2lua3NjYXBlIiB4bWxuczpyZGY9Imh0dHA6Ly93d3cudzMub3JnLzE5OTkvMDIvMjItcmRmLXN5bnRheC1ucyMiIHhtbG5zOnNvZGlwb2RpPSJodHRwOi8vc29kaXBvZGkuc291cmNlZm9yZ2UubmV0L0RURC9zb2RpcG9kaS0wLmR0ZCIgeG1sbnM6c3ZnPSJodHRwOi8vd3d3LnczLm9yZy8yMDAwL3N2ZyIgeG1sbnM9Imh0dHA6Ly93d3cudzMub3JnLzIwMDAvc3ZnIiB4bWxuczp4bGluaz0iaHR0cDovL3d3dy53My5vcmcvMTk5OS94bGluayIgdmVyc2lvbj0iMS4xIiBpZD0ic3ZnMTc1NjcxIiBpbmtzY2FwZTp2ZXJzaW9uPSIwLjkyLjMgKDI0MDU1NDYsIDIwMTgtMDMtMTEpIiBzb2RpcG9kaTpkb2NuYW1lPSJnaXRodWIuc3ZnIiB4PSIwcHgiIHk9IjBweCIgdmlld0JveD0iMCAwIDQ1LjI3IDQ1LjI5IiBzdHlsZT0iZW5hYmxlLWJhY2tncm91bmQ6bmV3IDAgMCA0NS4yNyA0NS4yOTsiIHhtbDpzcGFjZT0icHJlc2VydmUiPiYjeGE7PHNvZGlwb2RpOm5hbWVkdmlldyBib3JkZXJjb2xvcj0iIzY2NjY2NiIgYm9yZGVyb3BhY2l0eT0iMSIgZml0LW1hcmdpbi1ib3R0b209IjAiIGZpdC1tYXJnaW4tbGVmdD0iMCIgZml0LW1hcmdpbi1yaWdodD0iMCIgZml0LW1hcmdpbi10b3A9IjAiIGdyaWR0b2xlcmFuY2U9IjEwIiBndWlkZXRvbGVyYW5jZT0iMTAiIGlkPSJuYW1lZHZpZXcxNzU2NzMiIGlua3NjYXBlOmN1cnJlbnQtbGF5ZXI9InN2ZzE3NTY3MSIgaW5rc2NhcGU6Y3g9IjMwLjE3ODAyNSIgaW5rc2NhcGU6Y3k9IjMwLjE5NDMxOSIgaW5rc2NhcGU6cGFnZW9wYWNpdHk9IjAiIGlua3NjYXBlOnBhZ2VzaGFkb3c9IjIiIGlua3NjYXBlOndpbmRvdy1oZWlnaHQ9IjEwMTciIGlua3NjYXBlOndpbmRvdy1tYXhpbWl6ZWQ9IjEiIGlua3NjYXBlOndpbmRvdy13aWR0aD0iMTkyMCIgaW5rc2NhcGU6d2luZG93LXg9Ii04IiBpbmtzY2FwZTp3aW5kb3cteT0iLTgiIGlua3NjYXBlOnpvb209IjEwLjA5NTE1OCIgb2JqZWN0dG9sZXJhbmNlPSIxMCIgcGFnZWNvbG9yPSIjZmZmZmZmIiBzaG93Z3JpZD0iZmFsc2UiPiYjeGE7CTwvc29kaXBvZGk6bmFtZWR2aWV3PiYjeGE7PGcgaWQ9ImcxNzU2NjkiIHRyYW5zZm9ybT0idHJhbnNsYXRlKC05LjU2MjU0MTcsLTkuNTYxMzEpIj4mI3hhOwk8dGl0bGUgaWQ9InRpdGxlMTc1NjU5Ij5QYWdlLTE8L3RpdGxlPiYjeGE7CTxnIGlkPSJncm91cDIyNTAtMSIgdHJhbnNmb3JtPSJ0cmFuc2xhdGUoOS41NjMwOCwtOS4zNzg2OSkiPiYjeGE7CQk8dGl0bGUgaWQ9InRpdGxlMTc1NjYxIj5HaXRIdWI8L3RpdGxlPiYjeGE7CQk8ZyBpZD0ic2hhcGUyMjUxLTIiPiYjeGE7CQkJPHRpdGxlIGlkPSJ0aXRsZTE3NTY2MyI+U2hlZXQuMjI1MTwvdGl0bGU+JiN4YTsJCQk8cGF0aCBpZD0icGF0aDE3NTY2NSIgaW5rc2NhcGU6Y29ubmVjdG9yLWN1cnZhdHVyZT0iMCIgZD0iTTIyLjYzLDE4Ljk0QzEwLjE0LDE4Ljk0LDAsMjkuMzMsMCw0Mi4xNSAgICAgYy0wLjA3LDkuODksNi4xNSwxOC43MywxNS40OCwyMi4wMWMxLjEzLDAuMjIsMS41NC0wLjUsMS41NC0xLjExYzAtMC42MiwwLTIuMDEsMC0zLjk1Yy02LjI5LDEuNDEtNy42Mi0zLjExLTcuNjItMy4xMSAgICAgYy0xLjAzLTIuNjgtMi41MS0zLjQtMi41MS0zLjRjLTIuMDYtMS40MSwwLjE1LTEuNDEsMC4xNS0xLjQxYzIuMjcsMC4xNiwzLjQ3LDIuMzksMy40NywyLjM5YzIuMDIsMy41NCw1LjMsMi41Miw2LjU4LDEuOTMgICAgIGMwLjEtMS4xNywwLjYtMi4yNiwxLjQyLTMuMUMxMy40OCw1MS44MSw4LjIsNDkuODIsOC4yLDQwLjkyYy0wLjA0LTIuMjksMC43OS00LjUxLDIuMzItNi4yMmMtMC42OS0yLTAuNjEtNC4xOSwwLjIyLTYuMTQgICAgIGMwLDAsMS45MS0wLjYyLDYuMjMsMi40YzMuNy0xLjA0LDcuNjItMS4wNCwxMS4zMiwwYzQuMzItMyw2LjIyLTIuMzcsNi4yMi0yLjM3YzAuODMsMS45NSwwLjkxLDQuMTQsMC4yMiw2LjE0ICAgICBjMS41MywxLjcsMi4zNywzLjkzLDIuMzMsNi4yMmMwLDguOTEtNS4yOSwxMC44OC0xMC4zMywxMS40NWMwLjgxLDAuNzEsMS41MywyLjEyLDEuNTMsNC4zYzAsMy4xMSwwLDUuNjEsMCw2LjM3ICAgICBjMCwwLjYyLDAuNDEsMS4zNCwxLjU2LDEuMTJjOS4zMy0zLjMsMTUuNTMtMTIuMTUsMTUuNDUtMjIuMDRDNDUuMjcsMjkuMzMsMzUuMTMsMTguOTQsMjIuNjMsMTguOTR6Ii8+JiN4YTsJCTwvZz4mI3hhOwk8L2c+JiN4YTs8L2c+JiN4YTs8L3N2Zz4=;" parent="4rNJ4vwEb-hpk1fD-wyn-29" vertex="1">
          <mxGeometry x="140" y="210" width="80" height="80" as="geometry" />
        </mxCell>
        <mxCell id="acgDZ-SoyNHMQ0wOxpw4-25" value="" style="endArrow=classic;html=1;rounded=0;entryX=0.492;entryY=0.094;entryDx=0;entryDy=0;entryPerimeter=0;strokeWidth=8;" parent="4rNJ4vwEb-hpk1fD-wyn-29" edge="1">
          <mxGeometry width="50" height="50" relative="1" as="geometry">
            <mxPoint x="179.17000000000007" y="590" as="sourcePoint" />
            <mxPoint x="179.17000000000007" y="685" as="targetPoint" />
          </mxGeometry>
        </mxCell>
        <mxCell id="acgDZ-SoyNHMQ0wOxpw4-49" value="&lt;font style=&quot;font-size: 30px;&quot;&gt;Frontend panel de administraciÃ³n&lt;/font&gt;" style="text;html=1;strokeColor=none;fillColor=none;align=center;verticalAlign=middle;whiteSpace=wrap;rounded=0;" parent="4rNJ4vwEb-hpk1fD-wyn-29" vertex="1">
          <mxGeometry x="75" y="20" width="210" height="140" as="geometry" />
        </mxCell>
        <mxCell id="4rNJ4vwEb-hpk1fD-wyn-21" value="" style="group" parent="4rNJ4vwEb-hpk1fD-wyn-29" vertex="1" connectable="0">
          <mxGeometry x="35" y="728.5" width="290" height="210" as="geometry" />
        </mxCell>
        <mxCell id="4rNJ4vwEb-hpk1fD-wyn-22" value="" style="rounded=0;whiteSpace=wrap;html=1;" parent="4rNJ4vwEb-hpk1fD-wyn-21" vertex="1">
          <mxGeometry width="290" height="210" as="geometry" />
        </mxCell>
        <mxCell id="4rNJ4vwEb-hpk1fD-wyn-23" value="&lt;font style=&quot;font-size: 26px;&quot;&gt;HTML, CSS, Typescript&lt;br&gt;&lt;/font&gt;" style="text;html=1;strokeColor=none;fillColor=none;align=center;verticalAlign=middle;whiteSpace=wrap;rounded=0;" parent="4rNJ4vwEb-hpk1fD-wyn-21" vertex="1">
          <mxGeometry x="41.239999999999995" y="80" width="207.5" height="100" as="geometry" />
        </mxCell>
        <mxCell id="4rNJ4vwEb-hpk1fD-wyn-24" value="" style="shape=image;verticalLabelPosition=bottom;labelBackgroundColor=#ffffff;verticalAlign=top;aspect=fixed;imageAspect=0;image=data:image/svg+xml,PHN2ZyB4bWxuczpjYz0iaHR0cDovL2NyZWF0aXZlY29tbW9ucy5vcmcvbnMjIiB4bWxuczpkYz0iaHR0cDovL3B1cmwub3JnL2RjL2VsZW1lbnRzLzEuMS8iIHhtbG5zOmlua3NjYXBlPSJodHRwOi8vd3d3Lmlua3NjYXBlLm9yZy9uYW1lc3BhY2VzL2lua3NjYXBlIiB4bWxuczpyZGY9Imh0dHA6Ly93d3cudzMub3JnLzE5OTkvMDIvMjItcmRmLXN5bnRheC1ucyMiIHhtbG5zOnNvZGlwb2RpPSJodHRwOi8vc29kaXBvZGkuc291cmNlZm9yZ2UubmV0L0RURC9zb2RpcG9kaS0wLmR0ZCIgeG1sbnM6c3ZnPSJodHRwOi8vd3d3LnczLm9yZy8yMDAwL3N2ZyIgeG1sbnM9Imh0dHA6Ly93d3cudzMub3JnLzIwMDAvc3ZnIiB4bWxuczp4bGluaz0iaHR0cDovL3d3dy53My5vcmcvMTk5OS94bGluayIgdmVyc2lvbj0iMS4xIiBpZD0ic3ZnMTE0OTA2IiBpbmtzY2FwZTp2ZXJzaW9uPSIwLjkyLjMgKDI0MDU1NDYsIDIwMTgtMDMtMTEpIiBzb2RpcG9kaTpkb2NuYW1lPSJhbmd1bGFyLnN2ZyIgeD0iMHB4IiB5PSIwcHgiIHZpZXdCb3g9IjAgMCA1Ni44MiAxNS4zOSIgc3R5bGU9ImVuYWJsZS1iYWNrZ3JvdW5kOm5ldyAwIDAgNTYuODIgMTUuMzk7IiB4bWw6c3BhY2U9InByZXNlcnZlIj4mI3hhOzxzb2RpcG9kaTpuYW1lZHZpZXcgYm9yZGVyY29sb3I9IiM2NjY2NjYiIGJvcmRlcm9wYWNpdHk9IjEiIGZpdC1tYXJnaW4tYm90dG9tPSIwIiBmaXQtbWFyZ2luLWxlZnQ9IjAiIGZpdC1tYXJnaW4tcmlnaHQ9IjAiIGZpdC1tYXJnaW4tdG9wPSIwIiBncmlkdG9sZXJhbmNlPSIxMCIgZ3VpZGV0b2xlcmFuY2U9IjEwIiBpZD0ibmFtZWR2aWV3MTE0OTA4IiBpbmtzY2FwZTpjdXJyZW50LWxheWVyPSJzdmcxMTQ5MDYiIGlua3NjYXBlOmN4PSIzNy44ODExNTgiIGlua3NjYXBlOmN5PSIxMC4yNTk4NDYiIGlua3NjYXBlOnBhZ2VvcGFjaXR5PSIwIiBpbmtzY2FwZTpwYWdlc2hhZG93PSIyIiBpbmtzY2FwZTp3aW5kb3ctaGVpZ2h0PSIxMDE3IiBpbmtzY2FwZTp3aW5kb3ctbWF4aW1pemVkPSIxIiBpbmtzY2FwZTp3aW5kb3ctd2lkdGg9IjE5MjAiIGlua3NjYXBlOndpbmRvdy14PSItOCIgaW5rc2NhcGU6d2luZG93LXk9Ii04IiBpbmtzY2FwZTp6b29tPSIyMC44MzUyOTgiIG9iamVjdHRvbGVyYW5jZT0iMTAiIHBhZ2Vjb2xvcj0iI2ZmZmZmZiIgc2hvd2dyaWQ9ImZhbHNlIj4mI3hhOwk8L3NvZGlwb2RpOm5hbWVkdmlldz4mI3hhOzxnIGlkPSJnMTE0OTA0IiB0cmFuc2Zvcm09InRyYW5zbGF0ZSgtMy42NjIxMSwtMy42NTc5MzA3KSI+JiN4YTsJPHRpdGxlIGlkPSJ0aXRsZTExNDg3OSI+UGFnZS0xPC90aXRsZT4mI3hhOwk8ZyBpZD0iZ3JvdXAxMjEzLTEiIHRyYW5zZm9ybT0idHJhbnNsYXRlKDMuNjYyMTEsLTMuNjYyMTEpIj4mI3hhOwkJPHRpdGxlIGlkPSJ0aXRsZTExNDg4MSI+QW5ndWxhcjwvdGl0bGU+JiN4YTsJCTxnIGlkPSJzaGFwZTEyMTQtMiIgdHJhbnNmb3JtPSJ0cmFuc2xhdGUoMTYuNzEzNiwtMy45MTc1OSkiPiYjeGE7CQkJPHRpdGxlIGlkPSJ0aXRsZTExNDg4MyI+U2hlZXQuMTIxNDwvdGl0bGU+JiN4YTsJCQk8cGF0aCBpZD0icGF0aDExNDg4NSIgaW5rc2NhcGU6Y29ubmVjdG9yLWN1cnZhdHVyZT0iMCIgc3R5bGU9ImZpbGw6I0I1MkUzMTsiIGQ9Ik0wLDIyLjY1di02Ljk5aDAuOWw0LjI3LDUuNjN2LTUuNjNoMC44NnY2Ljk5ICAgICBoLTAuOWwtNC4yOC01LjY4djUuNjhIMHogTTEyLjk4LDIyLjM3Yy0wLjU2LDAuMjEtMS4xNywwLjMyLTEuODIsMC4zMmMtMi41MywwLTMuNzktMS4yLTMuNzktMy42NGMwLTIuMjksMS4yMi0zLjQ1LDMuNjYtMy40NSAgICAgYzAuNywwLDEuMzYsMC4xLDEuOTUsMC4yOXYwLjc4Yy0wLjU5LTAuMjMtMS4yMi0wLjM1LTEuODUtMC4zNWMtMS45MSwwLTIuODYsMC45MS0yLjg2LDIuNzFjMCwxLjk0LDAuOTQsMi45MSwyLjgyLDIuOTEgICAgIGMwLjMsMCwwLjYzLTAuMDQsMS0wLjEydi0yLjM0aDAuODlWMjIuMzd6IE0xNC40MywxOS45NXYtNC4yOWgwLjl2NC4yOWMwLDEuMzUsMC42NiwyLjAyLDIuMDEsMi4wMmMxLjMzLDAsMi0wLjY3LDItMi4wMnYtNC4yOSAgICAgaDAuOXY0LjI5YzAsMS44My0wLjk2LDIuNzYtMi45LDIuNzZDMTUuMzksMjIuNzEsMTQuNDMsMjEuNzgsMTQuNDMsMTkuOTV6IE0yMi43NSwxNS42NnY2LjI2aDMuNjZ2MC43M2gtNC41NnYtNi45OUwyMi43NSwxNS42NiAgICAgeiBNMjcuNzEsMjIuNjVoLTAuOTRsMy40Ny03LjkxbDMuNDgsNy45MWgtMWwtMC45LTIuMmgtMi4zMWwwLjI0LTAuNzNoMS43N2wtMS4zMS0zLjE2TDI3LjcxLDIyLjY1eiBNMzQuNjgsMjIuNjV2LTYuOTloMi45OSAgICAgYzEuMzMsMCwxLjk5LDAuNTUsMS45OSwxLjY3YzAsMC45MS0wLjY1LDEuNTktMS45NSwyLjAybDIuNCwzLjNoLTEuMTlsLTIuMjItMy4xNHYtMC41OWMxLjMzLTAuMjEsMi4wMS0wLjcyLDIuMDEtMS41NCAgICAgYzAtMC42NC0wLjM3LTAuOTctMS4xMS0wLjk3aC0ydjYuMjRMMzQuNjgsMjIuNjV6Ii8+JiN4YTsJCTwvZz4mI3hhOwkJPGcgaWQ9InNoYXBlMTIxNS00Ij4mI3hhOwkJCTx0aXRsZSBpZD0idGl0bGUxMTQ4ODgiPlNoZWV0LjEyMTU8L3RpdGxlPiYjeGE7CQkJPHBhdGggaWQ9InBhdGgxMTQ4OTAiIGlua3NjYXBlOmNvbm5lY3Rvci1jdXJ2YXR1cmU9IjAiIHN0eWxlPSJmaWxsOiNFMjMyMzc7IiBkPSJNMCw5Ljg4bDcuMTYtMi41Nmw3LjM1LDIuNTFsLTEuMTksOS40NyAgICAgbC02LjE2LDMuNDFMMS4xLDE5LjM0TDAsOS44OHoiLz4mI3hhOwkJPC9nPiYjeGE7CQk8ZyBpZD0ic2hhcGUxMjE2LTYiIHRyYW5zZm9ybT0idHJhbnNsYXRlKDcuMTU4MjEpIj4mI3hhOwkJCTx0aXRsZSBpZD0idGl0bGUxMTQ4OTMiPlNoZWV0LjEyMTY8L3RpdGxlPiYjeGE7CQkJPHBhdGggaWQ9InBhdGgxMTQ4OTUiIGlua3NjYXBlOmNvbm5lY3Rvci1jdXJ2YXR1cmU9IjAiIHN0eWxlPSJmaWxsOiNCNTJFMzE7IiBkPSJNNy4zNSw5LjgzTDAsNy4zMnYxNS4zOWw2LjE2LTMuNDFMNy4zNSw5LjgzeiIvPiYjeGE7CQk8L2c+JiN4YTsJCTxnIGlkPSJzaGFwZTEyMTctOCIgdHJhbnNmb3JtPSJ0cmFuc2xhdGUoMi43MDc5MSwtMy42NDAxNCkiPiYjeGE7CQkJPHRpdGxlIGlkPSJ0aXRsZTExNDg5OCI+U2hlZXQuMTIxNzwvdGl0bGU+JiN4YTsJCQk8cGF0aCBpZD0icGF0aDExNDkwMCIgaW5rc2NhcGU6Y29ubmVjdG9yLWN1cnZhdHVyZT0iMCIgc3R5bGU9ImZpbGw6I0ZGRkZGRjsiIGQ9Ik00LjQ2LDEyLjc2TDAsMjIuNjhsMS42Ni0wLjAzbDAuOS0yLjI0aDMuOTkgICAgIGwwLjk3LDIuMjZsMS41OSwwLjA0TDQuNDYsMTIuNzZ6IE00LjQ3LDE1Ljk1bDEuNTEsMy4xNUgzLjE1TDQuNDcsMTUuOTV6Ii8+JiN4YTsJCTwvZz4mI3hhOwk8L2c+JiN4YTs8L2c+JiN4YTs8L3N2Zz4=;" parent="4rNJ4vwEb-hpk1fD-wyn-21" vertex="1">
          <mxGeometry x="30.99000000000001" y="20" width="228" height="60" as="geometry" />
        </mxCell>
        <mxCell id="5a80hl0X2YX2dgV17xgM-1" value="" style="sketch=0;points=[[0,0,0],[0.25,0,0],[0.5,0,0],[0.75,0,0],[1,0,0],[0,1,0],[0.25,1,0],[0.5,1,0],[0.75,1,0],[1,1,0],[0,0.25,0],[0,0.5,0],[0,0.75,0],[1,0.25,0],[1,0.5,0],[1,0.75,0]];outlineConnect=0;fontColor=#232F3E;gradientColor=#F54749;gradientDirection=north;fillColor=#C7131F;strokeColor=#ffffff;dashed=0;verticalLabelPosition=bottom;verticalAlign=top;align=center;html=1;fontSize=12;fontStyle=0;aspect=fixed;shape=mxgraph.aws4.resourceIcon;resIcon=mxgraph.aws4.amplify;" vertex="1" parent="4rNJ4vwEb-hpk1fD-wyn-29">
          <mxGeometry x="140" y="408.5" width="91.5" height="91.5" as="geometry" />
        </mxCell>
        <mxCell id="acgDZ-SoyNHMQ0wOxpw4-29" value="" style="endArrow=classic;html=1;rounded=0;endSize=21;startSize=19;strokeWidth=7;entryX=0.04;entryY=0.5;entryDx=0;entryDy=0;entryPerimeter=0;exitX=1;exitY=0.5;exitDx=0;exitDy=0;" parent="1" source="acgDZ-SoyNHMQ0wOxpw4-43" target="acgDZ-SoyNHMQ0wOxpw4-30" edge="1">
          <mxGeometry width="50" height="50" relative="1" as="geometry">
            <mxPoint x="990" y="538.33" as="sourcePoint" />
            <mxPoint x="1090" y="538.33" as="targetPoint" />
          </mxGeometry>
        </mxCell>
        <mxCell id="acgDZ-SoyNHMQ0wOxpw4-24" value="" style="endArrow=classic;html=1;rounded=0;endSize=21;startSize=19;strokeWidth=7;entryX=0;entryY=0.5;entryDx=0;entryDy=0;exitX=0.97;exitY=0.5;exitDx=0;exitDy=0;exitPerimeter=0;" parent="1" source="acgDZ-SoyNHMQ0wOxpw4-22" target="acgDZ-SoyNHMQ0wOxpw4-43" edge="1">
          <mxGeometry width="50" height="50" relative="1" as="geometry">
            <mxPoint x="570" y="485" as="sourcePoint" />
            <mxPoint x="670" y="485" as="targetPoint" />
          </mxGeometry>
        </mxCell>
        <mxCell id="4rNJ4vwEb-hpk1fD-wyn-5" value="" style="group" parent="1" vertex="1" connectable="0">
          <mxGeometry x="1150" y="687" width="160" height="163" as="geometry" />
        </mxCell>
        <mxCell id="acgDZ-SoyNHMQ0wOxpw4-30" value="" style="outlineConnect=0;dashed=0;verticalLabelPosition=bottom;verticalAlign=top;align=center;html=1;shape=mxgraph.aws3.ssl_padlock;fillColor=#D2D3D3;gradientColor=none;" parent="4rNJ4vwEb-hpk1fD-wyn-5" vertex="1">
          <mxGeometry x="35" width="90" height="103" as="geometry" />
        </mxCell>
        <mxCell id="acgDZ-SoyNHMQ0wOxpw4-31" value="&lt;span style=&quot;font-size: 26px;&quot;&gt;SSL&lt;/span&gt;" style="text;html=1;strokeColor=none;fillColor=none;align=center;verticalAlign=middle;whiteSpace=wrap;rounded=0;" parent="4rNJ4vwEb-hpk1fD-wyn-5" vertex="1">
          <mxGeometry y="103" width="160" height="60" as="geometry" />
        </mxCell>
        <mxCell id="4rNJ4vwEb-hpk1fD-wyn-6" value="" style="group" parent="1" vertex="1" connectable="0">
          <mxGeometry x="500" y="690" width="160" height="165.5" as="geometry" />
        </mxCell>
        <mxCell id="acgDZ-SoyNHMQ0wOxpw4-22" value="" style="outlineConnect=0;dashed=0;verticalLabelPosition=bottom;verticalAlign=top;align=center;html=1;shape=mxgraph.aws3.ssl_padlock;fillColor=#D2D3D3;gradientColor=none;" parent="4rNJ4vwEb-hpk1fD-wyn-6" vertex="1">
          <mxGeometry x="30" width="90" height="103" as="geometry" />
        </mxCell>
        <mxCell id="acgDZ-SoyNHMQ0wOxpw4-23" value="&lt;span style=&quot;font-size: 26px;&quot;&gt;SSL&lt;/span&gt;" style="text;html=1;strokeColor=none;fillColor=none;align=center;verticalAlign=middle;whiteSpace=wrap;rounded=0;" parent="4rNJ4vwEb-hpk1fD-wyn-6" vertex="1">
          <mxGeometry y="105.5" width="160" height="60" as="geometry" />
        </mxCell>
        <mxCell id="4rNJ4vwEb-hpk1fD-wyn-7" value="" style="group;fillColor=#f8cecc;strokeColor=#b85450;container=0;" parent="1" vertex="1" connectable="0">
          <mxGeometry x="20" y="210" width="399.63" height="1060" as="geometry" />
        </mxCell>
        <mxCell id="4rNJ4vwEb-hpk1fD-wyn-9" value="" style="group" parent="1" vertex="1" connectable="0">
          <mxGeometry x="495" y="1858.5" width="160" height="163" as="geometry" />
        </mxCell>
        <mxCell id="W28Hg_RXF8OLAKR3yMh1-43" value="" style="outlineConnect=0;dashed=0;verticalLabelPosition=bottom;verticalAlign=top;align=center;html=1;shape=mxgraph.aws3.ssl_padlock;fillColor=#D2D3D3;gradientColor=none;" parent="4rNJ4vwEb-hpk1fD-wyn-9" vertex="1">
          <mxGeometry x="35" width="90" height="103" as="geometry" />
        </mxCell>
        <mxCell id="W28Hg_RXF8OLAKR3yMh1-44" value="&lt;span style=&quot;font-size: 26px;&quot;&gt;SSL&lt;/span&gt;" style="text;html=1;strokeColor=none;fillColor=none;align=center;verticalAlign=middle;whiteSpace=wrap;rounded=0;" parent="4rNJ4vwEb-hpk1fD-wyn-9" vertex="1">
          <mxGeometry y="103" width="160" height="60" as="geometry" />
        </mxCell>
        <mxCell id="4rNJ4vwEb-hpk1fD-wyn-10" value="" style="group;fillColor=#f8cecc;strokeColor=#b85450;" parent="1" vertex="1" connectable="0">
          <mxGeometry x="20.000000000000007" y="1380" width="399.63" height="1060" as="geometry" />
        </mxCell>
        <mxCell id="W28Hg_RXF8OLAKR3yMh1-27" value="" style="rounded=0;whiteSpace=wrap;html=1;fillColor=#dae8fc;strokeColor=#6c8ebf;" parent="4rNJ4vwEb-hpk1fD-wyn-10" vertex="1">
          <mxGeometry width="399.63" height="1060" as="geometry" />
        </mxCell>
        <mxCell id="W28Hg_RXF8OLAKR3yMh1-28" value="" style="sketch=0;pointerEvents=1;shadow=0;dashed=0;html=1;strokeColor=none;labelPosition=center;verticalLabelPosition=bottom;verticalAlign=top;align=center;fillColor=#505050;shape=mxgraph.mscae.intune.user_group" parent="4rNJ4vwEb-hpk1fD-wyn-10" vertex="1">
          <mxGeometry x="109.63" y="170" width="120" height="100" as="geometry" />
        </mxCell>
        <mxCell id="W28Hg_RXF8OLAKR3yMh1-29" value="Cloud" style="ellipse;shape=cloud;whiteSpace=wrap;html=1;align=center;strokeWidth=5;" parent="4rNJ4vwEb-hpk1fD-wyn-10" vertex="1">
          <mxGeometry x="64.63" y="370" width="210" height="160" as="geometry" />
        </mxCell>
        <mxCell id="W28Hg_RXF8OLAKR3yMh1-31" value="&lt;font style=&quot;font-size: 26px;&quot;&gt;ExposiciÃ³n a internet&lt;/font&gt;" style="text;html=1;strokeColor=none;fillColor=none;align=center;verticalAlign=middle;whiteSpace=wrap;rounded=0;" parent="4rNJ4vwEb-hpk1fD-wyn-10" vertex="1">
          <mxGeometry x="239.63" y="360" width="160" height="80" as="geometry" />
        </mxCell>
        <mxCell id="W28Hg_RXF8OLAKR3yMh1-32" value="" style="endArrow=classic;html=1;rounded=0;entryX=0.492;entryY=0.094;entryDx=0;entryDy=0;entryPerimeter=0;strokeWidth=8;" parent="4rNJ4vwEb-hpk1fD-wyn-10" target="W28Hg_RXF8OLAKR3yMh1-29" edge="1">
          <mxGeometry width="50" height="50" relative="1" as="geometry">
            <mxPoint x="167.63" y="290" as="sourcePoint" />
            <mxPoint x="879.63" y="490" as="targetPoint" />
          </mxGeometry>
        </mxCell>
        <mxCell id="W28Hg_RXF8OLAKR3yMh1-33" value="&lt;font style=&quot;font-size: 30px;&quot;&gt;Usuarios&lt;/font&gt;" style="text;html=1;strokeColor=none;fillColor=none;align=center;verticalAlign=middle;whiteSpace=wrap;rounded=0;" parent="4rNJ4vwEb-hpk1fD-wyn-10" vertex="1">
          <mxGeometry x="97.32000000000001" y="20" width="154.63" height="70" as="geometry" />
        </mxCell>
        <mxCell id="W28Hg_RXF8OLAKR3yMh1-34" value="" style="shape=curlyBracket;whiteSpace=wrap;html=1;rounded=1;labelPosition=left;verticalLabelPosition=middle;align=right;verticalAlign=middle;strokeWidth=9;" parent="4rNJ4vwEb-hpk1fD-wyn-10" vertex="1">
          <mxGeometry x="69.63" y="560" width="50" height="180" as="geometry" />
        </mxCell>
        <mxCell id="W28Hg_RXF8OLAKR3yMh1-35" value="&lt;font style=&quot;font-size: 25px;&quot;&gt;Navegadores&lt;/font&gt;" style="text;html=1;strokeColor=none;fillColor=none;align=center;verticalAlign=middle;whiteSpace=wrap;rounded=0;rotation=-90;" parent="4rNJ4vwEb-hpk1fD-wyn-10" vertex="1">
          <mxGeometry x="-40.370000000000005" y="620" width="170" height="70" as="geometry" />
        </mxCell>
        <mxCell id="W28Hg_RXF8OLAKR3yMh1-36" value="&lt;font style=&quot;font-size: 25px;&quot;&gt;Chrome&lt;br&gt;FireFox&lt;br&gt;Opera&lt;br&gt;Safari&lt;br&gt;Edge&lt;br&gt;&lt;/font&gt;" style="text;html=1;strokeColor=none;fillColor=none;align=center;verticalAlign=middle;whiteSpace=wrap;rounded=0;" parent="4rNJ4vwEb-hpk1fD-wyn-10" vertex="1">
          <mxGeometry x="109.63" y="562.5" width="130" height="175" as="geometry" />
        </mxCell>
        <mxCell id="W28Hg_RXF8OLAKR3yMh1-37" value="" style="shape=curlyBracket;whiteSpace=wrap;html=1;rounded=1;labelPosition=left;verticalLabelPosition=middle;align=right;verticalAlign=middle;strokeWidth=9;" parent="4rNJ4vwEb-hpk1fD-wyn-10" vertex="1">
          <mxGeometry x="69.63" y="780" width="50" height="180" as="geometry" />
        </mxCell>
        <mxCell id="W28Hg_RXF8OLAKR3yMh1-38" value="&lt;font style=&quot;font-size: 25px;&quot;&gt;Dispositivos&lt;br&gt;&lt;/font&gt;" style="text;html=1;strokeColor=none;fillColor=none;align=center;verticalAlign=middle;whiteSpace=wrap;rounded=0;rotation=-90;" parent="4rNJ4vwEb-hpk1fD-wyn-10" vertex="1">
          <mxGeometry x="-40.370000000000005" y="840" width="170" height="70" as="geometry" />
        </mxCell>
        <mxCell id="W28Hg_RXF8OLAKR3yMh1-39" value="" style="shape=image;verticalLabelPosition=bottom;labelBackgroundColor=#ffffff;verticalAlign=top;aspect=fixed;imageAspect=0;image=data:image/svg+xml,PHN2ZyB4bWxuczpjYz0iaHR0cDovL2NyZWF0aXZlY29tbW9ucy5vcmcvbnMjIiB4bWxuczpkYz0iaHR0cDovL3B1cmwub3JnL2RjL2VsZW1lbnRzLzEuMS8iIHhtbG5zOmlua3NjYXBlPSJodHRwOi8vd3d3Lmlua3NjYXBlLm9yZy9uYW1lc3BhY2VzL2lua3NjYXBlIiB4bWxuczpyZGY9Imh0dHA6Ly93d3cudzMub3JnLzE5OTkvMDIvMjItcmRmLXN5bnRheC1ucyMiIHhtbG5zOnNvZGlwb2RpPSJodHRwOi8vc29kaXBvZGkuc291cmNlZm9yZ2UubmV0L0RURC9zb2RpcG9kaS0wLmR0ZCIgeG1sbnM6c3ZnPSJodHRwOi8vd3d3LnczLm9yZy8yMDAwL3N2ZyIgeG1sbnM9Imh0dHA6Ly93d3cudzMub3JnLzIwMDAvc3ZnIiB4bWxuczp4bGluaz0iaHR0cDovL3d3dy53My5vcmcvMTk5OS94bGluayIgdmVyc2lvbj0iMS4xIiBpZD0ic3ZnMTE5NSIgaW5rc2NhcGU6dmVyc2lvbj0iMC45Mi4zICgyNDA1NTQ2LCAyMDE4LTAzLTExKSIgc29kaXBvZGk6ZG9jbmFtZT0iYW5kcm9pZC5zdmciIHg9IjBweCIgeT0iMHB4IiB2aWV3Qm94PSIwIDAgMjkuMzggNTAuODUiIHN0eWxlPSJlbmFibGUtYmFja2dyb3VuZDpuZXcgMCAwIDI5LjM4IDUwLjg1OyIgeG1sOnNwYWNlPSJwcmVzZXJ2ZSI+JiN4YTs8c29kaXBvZGk6bmFtZWR2aWV3IGJvcmRlcmNvbG9yPSIjNjY2NjY2IiBib3JkZXJvcGFjaXR5PSIxIiBmaXQtbWFyZ2luLWJvdHRvbT0iMCIgZml0LW1hcmdpbi1sZWZ0PSIwIiBmaXQtbWFyZ2luLXJpZ2h0PSIwIiBmaXQtbWFyZ2luLXRvcD0iMCIgZ3JpZHRvbGVyYW5jZT0iMTAiIGd1aWRldG9sZXJhbmNlPSIxMCIgaWQ9Im5hbWVkdmlldzExOTciIGlua3NjYXBlOmN1cnJlbnQtbGF5ZXI9InN2ZzExOTUiIGlua3NjYXBlOmN4PSIxOS41ODkzNCIgaW5rc2NhcGU6Y3k9IjMzLjg5NzQ3NiIgaW5rc2NhcGU6cGFnZW9wYWNpdHk9IjAiIGlua3NjYXBlOnBhZ2VzaGFkb3c9IjIiIGlua3NjYXBlOndpbmRvdy1oZWlnaHQ9IjEwMTciIGlua3NjYXBlOndpbmRvdy1tYXhpbWl6ZWQ9IjEiIGlua3NjYXBlOndpbmRvdy13aWR0aD0iMTkyMCIgaW5rc2NhcGU6d2luZG93LXg9Ii04IiBpbmtzY2FwZTp3aW5kb3cteT0iLTgiIGlua3NjYXBlOnpvb209IjEyLjc4NjY1MSIgb2JqZWN0dG9sZXJhbmNlPSIxMCIgcGFnZWNvbG9yPSIjZmZmZmZmIiBzaG93Z3JpZD0iZmFsc2UiPiYjeGE7CTwvc29kaXBvZGk6bmFtZWR2aWV3PiYjeGE7PGcgaWQ9ImcxMTkzIiB0cmFuc2Zvcm09InRyYW5zbGF0ZSgtMi42ODI2ODU1ZS01KSI+JiN4YTsJPHRpdGxlIGlkPSJ0aXRsZTExNjMiPlBhZ2UtMTwvdGl0bGU+JiN4YTsJPGcgaWQ9Imdyb3VwMzQ5OS0xIj4mI3hhOwkJPHRpdGxlIGlkPSJ0aXRsZTExNjUiPkFuZHJvaWQ8L3RpdGxlPiYjeGE7CQk8ZyBpZD0ic2hhcGUzNTAwLTIiPiYjeGE7CQkJPHRpdGxlIGlkPSJ0aXRsZTExNjciPlNoZWV0LjM1MDA8L3RpdGxlPiYjeGE7CQkJPHBhdGggaWQ9InBhdGgxMTY5IiBpbmtzY2FwZTpjb25uZWN0b3ItY3VydmF0dXJlPSIwIiBzdHlsZT0iZmlsbDojM0Y1NzY1OyIgZD0iTTI3LjQzLDBDMi4xLDAsMi4xLDAsMi4xLDBDMC45MiwwLDAsMC44LDAsMS44NCAgICAgYzAsNDYuOTUsMCw0Ni45NSwwLDQ2Ljk1YzAsMC45MiwwLjkyLDIuMDYsMi4xLDIuMDZjMjUuMzMsMCwyNS4zMywwLDI1LjMzLDBjMS4wNywwLDEuOTUtMS4xNCwxLjk1LTIuMDYgICAgIGMwLTQ2Ljk1LDAtNDYuOTUsMC00Ni45NUMyOS4zOCwwLjgsMjguNSwwLDI3LjQzLDB6Ii8+JiN4YTsJCTwvZz4mI3hhOwkJPGcgaWQ9InNoYXBlMzUwMS00IiB0cmFuc2Zvcm09InRyYW5zbGF0ZSgzLjA2MDg0LC03LjI1MTY3KSI+JiN4YTsJCQk8dGl0bGUgaWQ9InRpdGxlMTE3MiI+U2hlZXQuMzUwMTwvdGl0bGU+JiN4YTsJCQk8cGF0aCBpZD0icGF0aDExNzQiIGlua3NjYXBlOmNvbm5lY3Rvci1jdXJ2YXR1cmU9IjAiIHN0eWxlPSJmaWxsOiNGRkZGRkY7IiBkPSJNMCwxMC41OWgyMy4yNnY0MC4yNkgwVjEwLjU5eiIvPiYjeGE7CQk8L2c+JiN4YTsJCTxnIGlkPSJzaGFwZTM1MDItNiIgdHJhbnNmb3JtPSJ0cmFuc2xhdGUoMTIuODU1NSwtMy4wNjM0OCkiPiYjeGE7CQkJPHRpdGxlIGlkPSJ0aXRsZTExNzciPlNoZWV0LjM1MDI8L3RpdGxlPiYjeGE7CQkJPHBhdGggaWQ9InBhdGgxMTc5IiBpbmtzY2FwZTpjb25uZWN0b3ItY3VydmF0dXJlPSIwIiBzdHlsZT0iZmlsbDojRkZGRkZGOyIgZD0iTTAsNDkuMzJjMC0wLjg0LDAuNzctMS41MywxLjY0LTEuNTMgICAgIGMwLjkzLDAsMS42NSwwLjY5LDEuNjUsMS41M2MwLDAuODgtMC43MiwxLjUzLTEuNjUsMS41M0MwLjc3LDUwLjg1LDAsNTAuMiwwLDQ5LjMyeiIvPiYjeGE7CQk8L2c+JiN4YTsJCTxnIGlkPSJzaGFwZTM1MDMtOCIgdHJhbnNmb3JtPSJ0cmFuc2xhdGUoMTcuNzUyOSwtMy42NzYxOCkiPiYjeGE7CQkJPHRpdGxlIGlkPSJ0aXRsZTExODIiPlNoZWV0LjM1MDM8L3RpdGxlPiYjeGE7CQkJPHBhdGggaWQ9InBhdGgxMTg0IiBpbmtzY2FwZTpjb25uZWN0b3ItY3VydmF0dXJlPSIwIiBzdHlsZT0iZmlsbDojRkZGRkZGOyIgZD0iTTAsNDkuOTNjMC0wLjQ5LDAuMzEtMC45MSwwLjYxLTAuOTEgICAgIGMwLjM1LDAsMC42MSwwLjQyLDAuNjEsMC45MWMwLDAuNTQtMC4yNiwwLjkyLTAuNjEsMC45MkMwLjMxLDUwLjg1LDAsNTAuNDcsMCw0OS45M3oiLz4mI3hhOwkJPC9nPiYjeGE7CQk8ZyBpZD0ic2hhcGUzNTA0LTEwIiB0cmFuc2Zvcm09InRyYW5zbGF0ZSg5LjE4MjUxLC0zLjY3NjE4KSI+JiN4YTsJCQk8dGl0bGUgaWQ9InRpdGxlMTE4NyI+U2hlZXQuMzUwNDwvdGl0bGU+JiN4YTsJCQk8cGF0aCBpZD0icGF0aDExODkiIGlua3NjYXBlOmNvbm5lY3Rvci1jdXJ2YXR1cmU9IjAiIHN0eWxlPSJmaWxsOiNGRkZGRkY7IiBkPSJNMCw0OS45M2MwLTAuNDksMC4zMS0wLjkxLDAuNjEtMC45MSAgICAgYzAuMzUsMCwwLjYxLDAuNDIsMC42MSwwLjkxYzAsMC41NC0wLjI2LDAuOTItMC42MSwwLjkyQzAuMzEsNTAuODUsMCw1MC40NywwLDQ5LjkzeiIvPiYjeGE7CQk8L2c+JiN4YTsJPC9nPiYjeGE7PC9nPiYjeGE7PC9zdmc+;" parent="4rNJ4vwEb-hpk1fD-wyn-10" vertex="1">
          <mxGeometry x="129.63" y="780" width="57.43" height="101" as="geometry" />
        </mxCell>
        <mxCell id="W28Hg_RXF8OLAKR3yMh1-40" value="" style="shape=image;verticalLabelPosition=bottom;labelBackgroundColor=#ffffff;verticalAlign=top;aspect=fixed;imageAspect=0;image=data:image/svg+xml,PHN2ZyB4bWxuczpjYz0iaHR0cDovL2NyZWF0aXZlY29tbW9ucy5vcmcvbnMjIiB4bWxuczpkYz0iaHR0cDovL3B1cmwub3JnL2RjL2VsZW1lbnRzLzEuMS8iIHhtbG5zOmlua3NjYXBlPSJodHRwOi8vd3d3Lmlua3NjYXBlLm9yZy9uYW1lc3BhY2VzL2lua3NjYXBlIiB4bWxuczpyZGY9Imh0dHA6Ly93d3cudzMub3JnLzE5OTkvMDIvMjItcmRmLXN5bnRheC1ucyMiIHhtbG5zOnNvZGlwb2RpPSJodHRwOi8vc29kaXBvZGkuc291cmNlZm9yZ2UubmV0L0RURC9zb2RpcG9kaS0wLmR0ZCIgeG1sbnM6c3ZnPSJodHRwOi8vd3d3LnczLm9yZy8yMDAwL3N2ZyIgeG1sbnM9Imh0dHA6Ly93d3cudzMub3JnLzIwMDAvc3ZnIiB4bWxuczp4bGluaz0iaHR0cDovL3d3dy53My5vcmcvMTk5OS94bGluayIgdmVyc2lvbj0iMS4xIiBpZD0ic3ZnMTkxOCIgaW5rc2NhcGU6dmVyc2lvbj0iMC45Mi4zICgyNDA1NTQ2LCAyMDE4LTAzLTExKSIgc29kaXBvZGk6ZG9jbmFtZT0iZGVza3RvcC5zdmciIHg9IjBweCIgeT0iMHB4IiB2aWV3Qm94PSIwIDAgNTUuNjYgMzMuMzMiIHN0eWxlPSJlbmFibGUtYmFja2dyb3VuZDpuZXcgMCAwIDU1LjY2IDMzLjMzOyIgeG1sOnNwYWNlPSJwcmVzZXJ2ZSI+JiN4YTs8c29kaXBvZGk6bmFtZWR2aWV3IGJvcmRlcmNvbG9yPSIjNjY2NjY2IiBib3JkZXJvcGFjaXR5PSIxIiBmaXQtbWFyZ2luLWJvdHRvbT0iMCIgZml0LW1hcmdpbi1sZWZ0PSIwIiBmaXQtbWFyZ2luLXJpZ2h0PSIwIiBmaXQtbWFyZ2luLXRvcD0iMCIgZ3JpZHRvbGVyYW5jZT0iMTAiIGd1aWRldG9sZXJhbmNlPSIxMCIgaWQ9Im5hbWVkdmlldzE5MjAiIGlua3NjYXBlOmN1cnJlbnQtbGF5ZXI9InN2ZzE5MTgiIGlua3NjYXBlOmN4PSI1NC43MjUwMzkiIGlua3NjYXBlOmN5PSIxNy4zOTkwNDQiIGlua3NjYXBlOnBhZ2VvcGFjaXR5PSIwIiBpbmtzY2FwZTpwYWdlc2hhZG93PSIyIiBpbmtzY2FwZTp3aW5kb3ctaGVpZ2h0PSIxMDE3IiBpbmtzY2FwZTp3aW5kb3ctbWF4aW1pemVkPSIxIiBpbmtzY2FwZTp3aW5kb3ctd2lkdGg9IjE5MjAiIGlua3NjYXBlOndpbmRvdy14PSItOCIgaW5rc2NhcGU6d2luZG93LXk9Ii04IiBpbmtzY2FwZTp6b29tPSIxMS4xMTE0NjQiIG9iamVjdHRvbGVyYW5jZT0iMTAiIHBhZ2Vjb2xvcj0iI2ZmZmZmZiIgc2hvd2dyaWQ9ImZhbHNlIj4mI3hhOwk8L3NvZGlwb2RpOm5hbWVkdmlldz4mI3hhOzxnIGlkPSJncm91cDM1MTgtMyIgdHJhbnNmb3JtPSJ0cmFuc2xhdGUoMTAuMTE4ODU4LC04LjA0Njc1MikiPiYjeGE7CTx0aXRsZSBpZD0idGl0bGUxNzYyIj5nOTk5NDwvdGl0bGU+JiN4YTsJPGcgaWQ9Imdyb3VwMzUxOS00IiB0cmFuc2Zvcm09InRyYW5zbGF0ZSg1LjM1NzA2KSI+JiN4YTsJCTx0aXRsZSBpZD0idGl0bGUxNzY0Ij5nOTk4MDwvdGl0bGU+JiN4YTsJCTxnIGlkPSJzaGFwZTM1MjAtNSIgdHJhbnNmb3JtPSJ0cmFuc2xhdGUoMCwtMC44OTI4NDQpIj4mI3hhOwkJCTx0aXRsZSBpZD0idGl0bGUxNzY2Ij5wb2x5Z29uOTk3NDwvdGl0bGU+JiN4YTsJCQk8cGF0aCBpZD0icGF0aDE3NjgiIGlua3NjYXBlOmNvbm5lY3Rvci1jdXJ2YXR1cmU9IjAiIHN0eWxlPSJmaWxsOiM4MDgwODA7IiBkPSJNMi4xOCwzOWgzMC42bDIuMDQsMi4zOEgwTDIuMTgsMzl6Ii8+JiN4YTsJCTwvZz4mI3hhOwkJPGcgaWQ9InNoYXBlMzUyMS03IiB0cmFuc2Zvcm09InRyYW5zbGF0ZSgzLjI3Mzc2LC0xLjE5MDQ2KSI+JiN4YTsJCQk8dGl0bGUgaWQ9InRpdGxlMTc3MSI+cG9seWdvbjk5NzY8L3RpdGxlPiYjeGE7CQkJPHBhdGggaWQ9InBhdGgxNzczIiBpbmtzY2FwZTpjb25uZWN0b3ItY3VydmF0dXJlPSIwIiBzdHlsZT0iZmlsbDojMkUyRTJFOyIgZD0iTTAuOTksMzkuODloMjYuMzJsMC45NiwxLjQ5SDBMMC45OSwzOS44OXoiLz4mI3hhOwkJPC9nPiYjeGE7CQk8ZyBpZD0ic2hhcGUzNTIyLTkiPiYjeGE7CQkJPHRpdGxlIGlkPSJ0aXRsZTE3NzYiPnBhdGg5OTc4PC90aXRsZT4mI3hhOwkJCTxwYXRoIGlkPSJwYXRoMTc3OCIgaW5rc2NhcGU6Y29ubmVjdG9yLWN1cnZhdHVyZT0iMCIgc3R5bGU9ImZpbGw6IzFBMUExQTsiIGQ9Ik0zMy4zNyw0MS4zOEgxLjQ5QzAuMDEsNDEuMzgsMCw0MC41MSwwLDQwLjUxICAgICBoMzQuNzRDMzQuNzQsNDAuNTEsMzQuOTEsNDEuMzgsMzMuMzcsNDEuMzh6Ii8+JiN4YTsJCTwvZz4mI3hhOwk8L2c+JiN4YTsJPGcgaWQ9InNoYXBlMzUyMy0xMSIgdHJhbnNmb3JtPSJ0cmFuc2xhdGUoMTkuNjQyNiwtNC45MTA2NCkiPiYjeGE7CQk8dGl0bGUgaWQ9InRpdGxlMTc4MiI+cG9seWdvbjk5ODI8L3RpdGxlPiYjeGE7CQk8cGF0aCBpZD0icGF0aDE3ODQiIGlua3NjYXBlOmNvbm5lY3Rvci1jdXJ2YXR1cmU9IjAiIHN0eWxlPSJmaWxsOiMxQTFBMUE7IiBkPSJNMC42LDM3LjIxaDQuNzZsMC4wNCwwLjNsMC41NSwzLjg3SDBMMC42LDM3LjIxeiIvPiYjeGE7CTwvZz4mI3hhOwk8ZyBpZD0ic2hhcGUzNTI0LTEzIiB0cmFuc2Zvcm09InRyYW5zbGF0ZSgyMi42MTg3LC00LjkxMDY0KSI+JiN4YTsJCTx0aXRsZSBpZD0idGl0bGUxNzg3Ij5wb2x5Z29uOTk4NDwvdGl0bGU+JiN4YTsJCTxwYXRoIGlkPSJwYXRoMTc4OSIgaW5rc2NhcGU6Y29ubmVjdG9yLWN1cnZhdHVyZT0iMCIgc3R5bGU9ImZpbGw6IzJFMkUyRTsiIGQ9Ik0wLDM3LjUxaDIuNDJsMC41NiwzLjg3SDBWMzcuNTF6Ii8+JiN4YTsJPC9nPiYjeGE7CTxnIGlkPSJzaGFwZTM1MjUtMTUiIHRyYW5zZm9ybT0idHJhbnNsYXRlKDAsLTguMzMzMjEpIj4mI3hhOwkJPHRpdGxlIGlkPSJ0aXRsZTE3OTIiPnJlY3Q5OTg2PC90aXRsZT4mI3hhOwkJPHBhdGggaWQ9InBhdGgxNzk0IiBpbmtzY2FwZTpjb25uZWN0b3ItY3VydmF0dXJlPSIwIiBzdHlsZT0iZmlsbDojMjIxRjFGOyIgZD0iTTAsNDAuMTljMCwwLjY2LDAuNTMsMS4xOSwxLjE5LDEuMTloNDMuMTUgICAgYzAuNjYsMC4wMSwxLjE5LTAuNTIsMS4yLTEuMThjMCwwLDAtMC4wMSwwLTAuMDFWMTcuNTdjMC0wLjY2LTAuNTMtMS4xOS0xLjE5LTEuMTljMCwwLTAuMDEsMC0wLjAxLDBIMS4xOSAgICBDMC41MywxNi4zOCwwLDE2LjkxLDAsMTcuNTdWNDAuMTl6Ii8+JiN4YTsJPC9nPiYjeGE7CTxnIGlkPSJzaGFwZTM1MjYtMTciIHRyYW5zZm9ybT0idHJhbnNsYXRlKDEuMTkwNDYsLTkuNTIzNjcpIj4mI3hhOwkJPHRpdGxlIGlkPSJ0aXRsZTE3OTciPnJlY3Q5OTg4PC90aXRsZT4mI3hhOwkJPHJlY3QgaWQ9InJlY3QxNzk5IiB4PSIwIiB5PSIxOC43NiIgc3R5bGU9ImZpbGw6IzgwQkNFQjsiIHdpZHRoPSI0My4xNSIgaGVpZ2h0PSIyMi42MiIvPiYjeGE7CTwvZz4mI3hhOwk8ZyBpZD0ic2hhcGUzNTI3LTE5IiB0cmFuc2Zvcm09InRyYW5zbGF0ZSgxMy4zOTI3LC0zLjg2ODk5KSI+JiN4YTsJCTx0aXRsZSBpZD0idGl0bGUxODAyIj5wYXRoOTk5MDwvdGl0bGU+JiN4YTsJCTxwYXRoIGlkPSJwYXRoMTgwNCIgaW5rc2NhcGU6Y29ubmVjdG9yLWN1cnZhdHVyZT0iMCIgc3R5bGU9ImZpbGw6IzJFMkUyRTsiIGQ9Ik0xOC4wOSw0MS4zOEgwLjY2QzAuMzEsNDEuNCwwLjAyLDQxLjEzLDAsNDAuNzggICAgYzAsMC4wMSwxLjExLTAuODksMS4xNy0wLjg5aDE2LjEyYzAuNjcsMCwxLjQ2LDAuOSwxLjQ2LDAuOUMxOC43Myw0MS4xNCwxOC40NCw0MS40LDE4LjA5LDQxLjM4TDE4LjA5LDQxLjM4eiIvPiYjeGE7CTwvZz4mI3hhOwk8ZyBpZD0ic2hhcGUzNTI4LTIxIiB0cmFuc2Zvcm09InRyYW5zbGF0ZSgzMi43Mzc2LC0yMC41MzU0KSI+JiN4YTsJCTx0aXRsZSBpZD0idGl0bGUxODA3Ij5wb2x5Z29uOTk5MjwvdGl0bGU+JiN4YTsJCTxwYXRoIGlkPSJwYXRoMTgwOSIgaW5rc2NhcGU6Y29ubmVjdG9yLWN1cnZhdHVyZT0iMCIgc3R5bGU9ImZpbGw6I0FBRDJGMjsiIGQ9Ik0wLDI5Ljc3aDExLjYxdjExLjYxTDAsMjkuNzd6Ii8+JiN4YTsJPC9nPiYjeGE7PC9nPiYjeGE7PGcgaWQ9InNoYXBlMzUyOS0yMyIgdHJhbnNmb3JtPSJ0cmFuc2xhdGUoNy43Mzc5Mzc4LC02LjI2MTA2MikiPiYjeGE7CTx0aXRsZSBpZD0idGl0bGUxODEzIj5yZWN0OTk5NjwvdGl0bGU+JiN4YTsJPHJlY3QgaWQ9InJlY3QxODE1IiB4PSIwIiB5PSIxLjUiIHN0eWxlPSJmaWxsOm5vbmU7IiB3aWR0aD0iNTAiIGhlaWdodD0iMzkuODgiLz4mI3hhOzwvZz4mI3hhOzxnIGlkPSJzaGFwZTM1MzEtMjYiIHRyYW5zZm9ybT0idHJhbnNsYXRlKC00LjIyMzMzMTNlLTUsLTguMzQ0MzYyKSI+JiN4YTsJPHRpdGxlIGlkPSJ0aXRsZTE4MjEiPnJlY3QxMDAwMDwvdGl0bGU+JiN4YTsJPHJlY3QgaWQ9InJlY3QxODIzIiB4PSIwIiB5PSIxNCIgc3R5bGU9ImZpbGw6IzY2NjY2NjsiIHdpZHRoPSIxMy42OSIgaGVpZ2h0PSIyNy4zOCIvPiYjeGE7PC9nPiYjeGE7PGcgaWQ9Imdyb3VwMzUzMi0yOCIgdHJhbnNmb3JtPSJ0cmFuc2xhdGUoMC4yMzIwOTY3NywtOC4zNDQzNjIpIj4mI3hhOwk8dGl0bGUgaWQ9InRpdGxlMTgyNiI+ZzEwMDE0PC90aXRsZT4mI3hhOwk8ZyBpZD0ic2hhcGUzNTMzLTI5IiB0cmFuc2Zvcm09InRyYW5zbGF0ZSg4LjM5ODY4KSI+JiN4YTsJCTx0aXRsZSBpZD0idGl0bGUxODI4Ij5yZWN0MTAwMDI8L3RpdGxlPiYjeGE7CQk8cmVjdCBpZD0icmVjdDE4MzAiIHg9IjAiIHk9IjE0IiBzdHlsZT0iZmlsbDojNEQ0RDREOyIgd2lkdGg9IjUuMDYiIGhlaWdodD0iMjcuMzgiLz4mI3hhOwk8L2c+JiN4YTsJPGcgaWQ9InNoYXBlMzUzNC0zMSIgdHJhbnNmb3JtPSJ0cmFuc2xhdGUoMCwtMjMuOTgxOCkiPiYjeGE7CQk8dGl0bGUgaWQ9InRpdGxlMTgzMyI+cG9seWdvbjEwMDA0PC90aXRsZT4mI3hhOwkJPHJlY3QgaWQ9InJlY3QxODM1IiB4PSIwIiB5PSI0MC42NCIgc3R5bGU9ImZpbGw6bm9uZTsiIHdpZHRoPSI5LjE1IiBoZWlnaHQ9IjAuNzQiLz4mI3hhOwk8L2c+JiN4YTsJPGcgaWQ9InNoYXBlMzUzNS0zMyIgdHJhbnNmb3JtPSJ0cmFuc2xhdGUoMCwtMjMuOTgxOCkiPiYjeGE7CQk8dGl0bGUgaWQ9InRpdGxlMTgzOCI+cG9seWxpbmUxMDAwNjwvdGl0bGU+JiN4YTsJCTxyZWN0IGlkPSJyZWN0MTg0MCIgeD0iMCIgeT0iNDAuNjQiIHN0eWxlPSJmaWxsOm5vbmU7IiB3aWR0aD0iOS4xNSIgaGVpZ2h0PSIwLjc0Ii8+JiN4YTsJPC9nPiYjeGE7CTxnIGlkPSJzaGFwZTM1MzYtMzUiIHRyYW5zZm9ybT0idHJhbnNsYXRlKDguMTAxMDcsLTI0LjEwNjgpIj4mI3hhOwkJPHRpdGxlIGlkPSJ0aXRsZTE4NDMiPnJlY3QxMDAwODwvdGl0bGU+JiN4YTsJCTxyZWN0IGlkPSJyZWN0MTg0NSIgeD0iMCIgeT0iNDAuNzkiIHdpZHRoPSI0Ljc2IiBoZWlnaHQ9IjAuNiIvPiYjeGE7CTwvZz4mI3hhOwk8ZyBpZD0ic2hhcGUzNTM3LTM3IiB0cmFuc2Zvcm09InRyYW5zbGF0ZSgwLjM2MzA5LC0yNC4xMDY4KSI+JiN4YTsJCTx0aXRsZSBpZD0idGl0bGUxODQ4Ij5yZWN0MTAwMTA8L3RpdGxlPiYjeGE7CQk8cmVjdCBpZD0icmVjdDE4NTAiIHg9IjAiIHk9IjQwLjc5IiBzdHlsZT0iZmlsbDojMzMzMzMzOyIgd2lkdGg9IjUuMDYiIGhlaWdodD0iMC42Ii8+JiN4YTsJPC9nPiYjeGE7CTxnIGlkPSJzaGFwZTM1MzgtMzkiIHRyYW5zZm9ybT0idHJhbnNsYXRlKDUuNDIyNTQsLTI0LjEwNjgpIj4mI3hhOwkJPHRpdGxlIGlkPSJ0aXRsZTE4NTMiPnBvbHlnb24xMDAxMjwvdGl0bGU+JiN4YTsJCTxyZWN0IGlkPSJyZWN0MTg1NSIgeD0iMCIgeT0iNDAuNzkiIHN0eWxlPSJmaWxsOiNENEU4Rjg7IiB3aWR0aD0iMi45OCIgaGVpZ2h0PSIwLjYiLz4mI3hhOwk8L2c+JiN4YTs8L2c+JiN4YTs8ZyBpZD0ic2hhcGUzNTM5LTQxIiB0cmFuc2Zvcm09InRyYW5zbGF0ZSgtNC4yMjMzMzEzZS01LC0zMi40NTExNjIpIj4mI3hhOwk8dGl0bGUgaWQ9InRpdGxlMTg1OSI+cmVjdDEwMDE2PC90aXRsZT4mI3hhOwk8cmVjdCBpZD0icmVjdDE4NjEiIHg9IjAiIHk9IjQwLjc5IiBzdHlsZT0iZmlsbDojRkZGRkZGOyIgd2lkdGg9IjAuNiIgaGVpZ2h0PSIwLjYiLz4mI3hhOzwvZz4mI3hhOzxnIGlkPSJzaGFwZTM1NDAtNDMiIHRyYW5zZm9ybT0idHJhbnNsYXRlKDguMzMzMTY3OCwtMzAuNjY1NDYyKSI+JiN4YTsJPHRpdGxlIGlkPSJ0aXRsZTE4NjQiPnJlY3QxMDAxODwvdGl0bGU+JiN4YTsJPHJlY3QgaWQ9InJlY3QxODY2IiB4PSIwIiB5PSI0MC43OSIgd2lkdGg9IjQuNzYiIGhlaWdodD0iMC42Ii8+JiN4YTs8L2c+JiN4YTs8ZyBpZD0ic2hhcGUzNTQxLTQ1IiB0cmFuc2Zvcm09InRyYW5zbGF0ZSgwLjU5NTE4Njc3LC0zMC42NjU0NjIpIj4mI3hhOwk8dGl0bGUgaWQ9InRpdGxlMTg2OSI+cmVjdDEwMDIwPC90aXRsZT4mI3hhOwk8cmVjdCBpZD0icmVjdDE4NzEiIHg9IjAiIHk9IjQwLjc5IiBzdHlsZT0iZmlsbDojMzMzMzMzOyIgd2lkdGg9IjUuMDYiIGhlaWdodD0iMC42Ii8+JiN4YTs8L2c+JiN4YTs8ZyBpZD0ic2hhcGUzNTQyLTQ3IiB0cmFuc2Zvcm09InRyYW5zbGF0ZSg1LjY1NDYzNzgsLTMwLjY2NTQ2MikiPiYjeGE7CTx0aXRsZSBpZD0idGl0bGUxODc0Ij5wb2x5Z29uMTAwMjI8L3RpdGxlPiYjeGE7CTxyZWN0IGlkPSJyZWN0MTg3NiIgeD0iMCIgeT0iNDAuNzkiIHN0eWxlPSJmaWxsOiNENEU4Rjg7IiB3aWR0aD0iMi45OCIgaGVpZ2h0PSIwLjYiLz4mI3hhOzwvZz4mI3hhOzxnIGlkPSJzaGFwZTM1NDMtNDkiIHRyYW5zZm9ybT0idHJhbnNsYXRlKC00LjIyMzMzMTNlLTUsLTMwLjY2NTQ2MikiPiYjeGE7CTx0aXRsZSBpZD0idGl0bGUxODc5Ij5yZWN0MTAwMjQ8L3RpdGxlPiYjeGE7CTxyZWN0IGlkPSJyZWN0MTg4MSIgeD0iMCIgeT0iNDAuNzkiIHN0eWxlPSJmaWxsOiNGRkZGRkY7IiB3aWR0aD0iMC42IiBoZWlnaHQ9IjAuNiIvPiYjeGE7PC9nPiYjeGE7PGcgaWQ9InNoYXBlMzU0NC01MSIgdHJhbnNmb3JtPSJ0cmFuc2xhdGUoOC4zMzMxNjc4LC0yOC44Nzk3NjIpIj4mI3hhOwk8dGl0bGUgaWQ9InRpdGxlMTg4NCI+cmVjdDEwMDI2PC90aXRsZT4mI3hhOwk8cmVjdCBpZD0icmVjdDE4ODYiIHg9IjAiIHk9IjQwLjc5IiB3aWR0aD0iNC43NiIgaGVpZ2h0PSIwLjYiLz4mI3hhOzwvZz4mI3hhOzxnIGlkPSJzaGFwZTM1NDUtNTMiIHRyYW5zZm9ybT0idHJhbnNsYXRlKDAuNTk1MTg2NzcsLTI4Ljg3OTc2MikiPiYjeGE7CTx0aXRsZSBpZD0idGl0bGUxODg5Ij5yZWN0MTAwMjg8L3RpdGxlPiYjeGE7CTxyZWN0IGlkPSJyZWN0MTg5MSIgeD0iMCIgeT0iNDAuNzkiIHN0eWxlPSJmaWxsOiMzMzMzMzM7IiB3aWR0aD0iNS4wNiIgaGVpZ2h0PSIwLjYiLz4mI3hhOzwvZz4mI3hhOzxnIGlkPSJzaGFwZTM1NDYtNTUiIHRyYW5zZm9ybT0idHJhbnNsYXRlKDUuNjU0NjM3OCwtMjguODc5NzYyKSI+JiN4YTsJPHRpdGxlIGlkPSJ0aXRsZTE4OTQiPnBvbHlnb24xMDAzMDwvdGl0bGU+JiN4YTsJPHJlY3QgaWQ9InJlY3QxODk2IiB4PSIwIiB5PSI0MC43OSIgc3R5bGU9ImZpbGw6I0Q0RThGODsiIHdpZHRoPSIyLjk4IiBoZWlnaHQ9IjAuNiIvPiYjeGE7PC9nPiYjeGE7PGcgaWQ9InNoYXBlMzU0Ny01NyIgdHJhbnNmb3JtPSJ0cmFuc2xhdGUoLTQuMjIzMzMxM2UtNSwtMjguODc5NzYyKSI+JiN4YTsJPHRpdGxlIGlkPSJ0aXRsZTE4OTkiPnJlY3QxMDAzMjwvdGl0bGU+JiN4YTsJPHJlY3QgaWQ9InJlY3QxOTAxIiB4PSIwIiB5PSI0MC43OSIgc3R5bGU9ImZpbGw6I0ZGRkZGRjsiIHdpZHRoPSIwLjYiIGhlaWdodD0iMC42Ii8+JiN4YTs8L2c+JiN4YTs8ZyBpZD0ic2hhcGUzNTQ4LTU5IiB0cmFuc2Zvcm09InRyYW5zbGF0ZSgtNC4yMjMzMzEzZS01LC0yNy4wOTQwNjIpIj4mI3hhOwk8dGl0bGUgaWQ9InRpdGxlMTkwNCI+cmVjdDEwMDM0PC90aXRsZT4mI3hhOwk8cmVjdCBpZD0icmVjdDE5MDYiIHg9IjAiIHk9IjQwLjc5IiBzdHlsZT0iZmlsbDojRkZGRkZGOyIgd2lkdGg9IjAuNiIgaGVpZ2h0PSIwLjYiLz4mI3hhOzwvZz4mI3hhOzxnIGlkPSJzaGFwZTM1NDktNjEiIHRyYW5zZm9ybT0idHJhbnNsYXRlKC00LjIyMzMzMTNlLTUsLTI1LjMwODM2MikiPiYjeGE7CTx0aXRsZSBpZD0idGl0bGUxOTA5Ij5yZWN0MTAwMzY8L3RpdGxlPiYjeGE7CTxyZWN0IGlkPSJyZWN0MTkxMSIgeD0iMCIgeT0iNDAuNzkiIHN0eWxlPSJmaWxsOiNGRkZGRkY7IiB3aWR0aD0iMC42IiBoZWlnaHQ9IjAuNiIvPiYjeGE7PC9nPiYjeGE7PC9zdmc+;" parent="4rNJ4vwEb-hpk1fD-wyn-10" vertex="1">
          <mxGeometry x="199.63" y="780" width="135.76" height="80" as="geometry" />
        </mxCell>
        <mxCell id="W28Hg_RXF8OLAKR3yMh1-41" value="" style="shape=image;verticalLabelPosition=bottom;labelBackgroundColor=#ffffff;verticalAlign=top;aspect=fixed;imageAspect=0;image=data:image/svg+xml,PHN2ZyB4bWxuczpjYz0iaHR0cDovL2NyZWF0aXZlY29tbW9ucy5vcmcvbnMjIiB4bWxuczpkYz0iaHR0cDovL3B1cmwub3JnL2RjL2VsZW1lbnRzLzEuMS8iIHhtbG5zOmlua3NjYXBlPSJodHRwOi8vd3d3Lmlua3NjYXBlLm9yZy9uYW1lc3BhY2VzL2lua3NjYXBlIiB4bWxuczpyZGY9Imh0dHA6Ly93d3cudzMub3JnLzE5OTkvMDIvMjItcmRmLXN5bnRheC1ucyMiIHhtbG5zOnNvZGlwb2RpPSJodHRwOi8vc29kaXBvZGkuc291cmNlZm9yZ2UubmV0L0RURC9zb2RpcG9kaS0wLmR0ZCIgeG1sbnM6c3ZnPSJodHRwOi8vd3d3LnczLm9yZy8yMDAwL3N2ZyIgeG1sbnM9Imh0dHA6Ly93d3cudzMub3JnLzIwMDAvc3ZnIiB4bWxuczp4bGluaz0iaHR0cDovL3d3dy53My5vcmcvMTk5OS94bGluayIgdmVyc2lvbj0iMS4xIiBpZD0ic3ZnMzQ4NiIgaW5rc2NhcGU6dmVyc2lvbj0iMC45Mi4zICgyNDA1NTQ2LCAyMDE4LTAzLTExKSIgc29kaXBvZGk6ZG9jbmFtZT0iZGV2aWNlX2lwYWQuc3ZnIiB4PSIwcHgiIHk9IjBweCIgdmlld0JveD0iMCAwIDU5LjMxIDQxLjIyIiBzdHlsZT0iZW5hYmxlLWJhY2tncm91bmQ6bmV3IDAgMCA1OS4zMSA0MS4yMjsiIHhtbDpzcGFjZT0icHJlc2VydmUiPiYjeGE7PHNvZGlwb2RpOm5hbWVkdmlldyBib3JkZXJjb2xvcj0iIzY2NjY2NiIgYm9yZGVyb3BhY2l0eT0iMSIgZml0LW1hcmdpbi1ib3R0b209IjAiIGZpdC1tYXJnaW4tbGVmdD0iMCIgZml0LW1hcmdpbi1yaWdodD0iMCIgZml0LW1hcmdpbi10b3A9IjAiIGdyaWR0b2xlcmFuY2U9IjEwIiBndWlkZXRvbGVyYW5jZT0iMTAiIGlkPSJuYW1lZHZpZXczNDg4IiBpbmtzY2FwZTpjdXJyZW50LWxheWVyPSJzdmczNDg2IiBpbmtzY2FwZTpjeD0iMzkuNTM4MzE5IiBpbmtzY2FwZTpjeT0iMjcuNDc5MzkiIGlua3NjYXBlOnBhZ2VvcGFjaXR5PSIwIiBpbmtzY2FwZTpwYWdlc2hhZG93PSIyIiBpbmtzY2FwZTp3aW5kb3ctaGVpZ2h0PSIxMDE3IiBpbmtzY2FwZTp3aW5kb3ctbWF4aW1pemVkPSIxIiBpbmtzY2FwZTp3aW5kb3ctd2lkdGg9IjE5MjAiIGlua3NjYXBlOndpbmRvdy14PSItOCIgaW5rc2NhcGU6d2luZG93LXk9Ii04IiBpbmtzY2FwZTp6b29tPSIxNS43NzQ3NTEiIG9iamVjdHRvbGVyYW5jZT0iMTAiIHBhZ2Vjb2xvcj0iI2ZmZmZmZiIgc2hvd2dyaWQ9ImZhbHNlIj4mI3hhOwk8L3NvZGlwb2RpOm5hbWVkdmlldz4mI3hhOzxnIGlkPSJnMzQ4NCIgdHJhbnNmb3JtPSJ0cmFuc2xhdGUoMCwtMi41MDk2MzU2ZS01KSI+JiN4YTsJPHRpdGxlIGlkPSJ0aXRsZTM0NTkiPlBhZ2UtMTwvdGl0bGU+JiN4YTsJPGcgaWQ9Imdyb3VwMzIyNi0xIj4mI3hhOwkJPHRpdGxlIGlkPSJ0aXRsZTM0NjEiPkRldmljZTogaVBhZDwvdGl0bGU+JiN4YTsJCTxnIGlkPSJzaGFwZTMyMjctMiI+JiN4YTsJCQk8dGl0bGUgaWQ9InRpdGxlMzQ2MyI+U2hlZXQuMzIyNzwvdGl0bGU+JiN4YTsJCQk8cGF0aCBpZD0icGF0aDM0NjUiIGlua3NjYXBlOmNvbm5lY3Rvci1jdXJ2YXR1cmU9IjAiIHN0eWxlPSJmaWxsOiMzRjU3NjU7IiBkPSJNNTYuNDYsMEMyLjkxLDAsMi45MSwwLDIuOTEsMCAgICAgQzEuMzEsMCwwLDEuMywwLDIuOTFjMCwzNS40NiwwLDM1LjQ2LDAsMzUuNDZjMCwxLjU2LDEuMzEsMi44NSwyLjkxLDIuODVjNTMuNTUsMCw1My41NSwwLDUzLjU1LDBjMS41NSwwLDIuODUtMS4yOSwyLjg1LTIuODUgICAgIGMwLTM1LjQ2LDAtMzUuNDYsMC0zNS40NkM1OS4zMSwxLjMsNTguMDEsMCw1Ni40NiwweiBNMjkuNjUsMWMwLjM4LDAsMC42OSwwLjMsMC42OSwwLjYxYzAsMC4zNy0wLjMxLDAuNjgtMC42OSwwLjY4ICAgICBjLTAuMywwLTAuNjctMC4zMS0wLjY3LTAuNjhDMjguOTgsMS4zLDI5LjM1LDEsMjkuNjUsMXogTTI5LjY1LDQwLjExYy0wLjc0LDAtMS4yOS0wLjU2LTEuMjktMS4zYzAtMC42OCwwLjU1LTEuMywxLjI5LTEuMyAgICAgYzAuNzUsMCwxLjMxLDAuNjIsMS4zMSwxLjNDMzAuOTYsMzkuNTUsMzAuNCw0MC4xMSwyOS42NSw0MC4xMXogTTU2LjAzLDM2Ljc2Yy01Mi43NCwwLTUyLjc0LDAtNTIuNzQsMGMwLTMzLjQ4LDAtMzMuNDgsMC0zMy40OCAgICAgYzUyLjc0LDAsNTIuNzQsMCw1Mi43NCwwVjM2Ljc2eiIvPiYjeGE7CQk8L2c+JiN4YTsJCTxnIGlkPSJzaGFwZTMyMjgtNCIgdHJhbnNmb3JtPSJ0cmFuc2xhdGUoMi4xNjEsLTQuNDMzNjQpIj4mI3hhOwkJCTx0aXRsZSBpZD0idGl0bGUzNDY4Ij5TaGVldC4zMjI4PC90aXRsZT4mI3hhOwkJCTxwYXRoIGlkPSJwYXRoMzQ3MCIgaW5rc2NhcGU6Y29ubmVjdG9yLWN1cnZhdHVyZT0iMCIgc3R5bGU9ImZpbGw6IzhEOUZCMDsiIGQ9Ik0wLDguNDdjMC0wLjY0LDAuNTMtMS4xNiwxLjE2LTEuMTZoNTIuNjcgICAgIGMwLjY0LDAsMS4xNiwwLjUyLDEuMTYsMS4xNnYzMS42YzAsMC42My0wLjUyLDEuMTUtMS4xNiwxLjE1SDEuMTZDMC41Myw0MS4yMiwwLDQwLjcsMCw0MC4wN1Y4LjQ3eiIvPiYjeGE7CQk8L2c+JiN4YTsJCTxnIGlkPSJzaGFwZTMyMjktNiIgdHJhbnNmb3JtPSJ0cmFuc2xhdGUoMjMuNjg1NSwtMTQuMzc5NCkiPiYjeGE7CQkJPHRpdGxlIGlkPSJ0aXRsZTM0NzMiPlNoZWV0LjMyMjk8L3RpdGxlPiYjeGE7CQkJPHBhdGggaWQ9InBhdGgzNDc1IiBpbmtzY2FwZTpjb25uZWN0b3ItY3VydmF0dXJlPSIwIiBzdHlsZT0iZmlsbDojRkZGRkZGOyIgZD0iTTEyLjMzLDM3LjM5Yy0wLjM0LDAuNzMtMC41MSwxLjA3LTAuOTQsMS43MyAgICAgYy0wLjYsMC45NC0xLjQ2LDIuMDYtMi41LDIuMWMtMC45NCwwLTEuMi0wLjY0LTIuNDUtMC42Yy0xLjI4LDAtMS41NCwwLjYtMi40OSwwLjZjLTEuMDctMC4wNC0xLjg1LTEuMDctMi40NS0xLjk4ICAgICBjLTEuNzItMi41OC0xLjg5LTUuNi0wLjg2LTcuMjNjMC43Ny0xLjEyLDEuOTQtMS44MSwzLjAxLTEuODFjMS4xMiwwLDEuODUsMC42NSwyLjc1LDAuNjVzMS40Ny0wLjY1LDIuNzUtMC42NSAgICAgYzAuOTksMCwyLjAzLDAuNTYsMi43NSwxLjQ2QzkuNDksMzMsOS44OSwzNi40NCwxMi4zMywzNy4zOXoiLz4mI3hhOwkJPC9nPiYjeGE7CQk8ZyBpZD0ic2hhcGUzMjMwLTgiIHRyYW5zZm9ybT0idHJhbnNsYXRlKDI5LjU1MSwtMjUuMjgzOCkiPiYjeGE7CQkJPHRpdGxlIGlkPSJ0aXRsZTM0NzgiPlNoZWV0LjMyMzA8L3RpdGxlPiYjeGE7CQkJPHBhdGggaWQ9InBhdGgzNDgwIiBpbmtzY2FwZTpjb25uZWN0b3ItY3VydmF0dXJlPSIwIiBzdHlsZT0iZmlsbDojRkZGRkZGOyIgZD0iTTIuMjgsNDAuMDdjMC40OC0wLjYsMC44Mi0xLjQyLDAuNy0yLjMyICAgICBjLTAuNzUsMC4wOS0xLjY3LDAuNTYtMi4yNCwxLjJjLTAuNDgsMC41Ni0wLjg4LDEuNDItMC43LDIuMjdDMC44OCw0MS4yMiwxLjc5LDQwLjc1LDIuMjgsNDAuMDd6Ii8+JiN4YTsJCTwvZz4mI3hhOwk8L2c+JiN4YTs8L2c+JiN4YTs8L3N2Zz4=;" parent="4rNJ4vwEb-hpk1fD-wyn-10" vertex="1">
          <mxGeometry x="129.63" y="900" width="100.73" height="70" as="geometry" />
        </mxCell>
        <mxCell id="W28Hg_RXF8OLAKR3yMh1-42" value="" style="shape=image;verticalLabelPosition=bottom;labelBackgroundColor=#ffffff;verticalAlign=top;aspect=fixed;imageAspect=0;image=data:image/svg+xml,PHN2ZyB4bWxuczpjYz0iaHR0cDovL2NyZWF0aXZlY29tbW9ucy5vcmcvbnMjIiB4bWxuczpkYz0iaHR0cDovL3B1cmwub3JnL2RjL2VsZW1lbnRzLzEuMS8iIHhtbG5zOmlua3NjYXBlPSJodHRwOi8vd3d3Lmlua3NjYXBlLm9yZy9uYW1lc3BhY2VzL2lua3NjYXBlIiB4bWxuczpyZGY9Imh0dHA6Ly93d3cudzMub3JnLzE5OTkvMDIvMjItcmRmLXN5bnRheC1ucyMiIHhtbG5zOnNvZGlwb2RpPSJodHRwOi8vc29kaXBvZGkuc291cmNlZm9yZ2UubmV0L0RURC9zb2RpcG9kaS0wLmR0ZCIgeG1sbnM6c3ZnPSJodHRwOi8vd3d3LnczLm9yZy8yMDAwL3N2ZyIgeG1sbnM9Imh0dHA6Ly93d3cudzMub3JnLzIwMDAvc3ZnIiB4bWxuczp4bGluaz0iaHR0cDovL3d3dy53My5vcmcvMTk5OS94bGluayIgdmVyc2lvbj0iMS4xIiBpZD0ic3ZnMTA5NDgiIGlua3NjYXBlOnZlcnNpb249IjAuOTIuMyAoMjQwNTU0NiwgMjAxOC0wMy0xMSkiIHNvZGlwb2RpOmRvY25hbWU9ImxhcHRvcC5zdmciIHg9IjBweCIgeT0iMHB4IiB2aWV3Qm94PSIwIDAgODEuNzUgNTYuMjYiIHN0eWxlPSJlbmFibGUtYmFja2dyb3VuZDpuZXcgMCAwIDgxLjc1IDU2LjI2OyIgeG1sOnNwYWNlPSJwcmVzZXJ2ZSI+JiN4YTs8c29kaXBvZGk6bmFtZWR2aWV3IGJvcmRlcmNvbG9yPSIjNjY2NjY2IiBib3JkZXJvcGFjaXR5PSIxIiBmaXQtbWFyZ2luLWJvdHRvbT0iMCIgZml0LW1hcmdpbi1sZWZ0PSIwIiBmaXQtbWFyZ2luLXJpZ2h0PSIwIiBmaXQtbWFyZ2luLXRvcD0iMCIgZ3JpZHRvbGVyYW5jZT0iMTAiIGd1aWRldG9sZXJhbmNlPSIxMCIgaWQ9Im5hbWVkdmlldzEwOTUwIiBpbmtzY2FwZTpjdXJyZW50LWxheWVyPSJzdmcxMDk0OCIgaW5rc2NhcGU6Y3g9IjU0LjUiIGlua3NjYXBlOmN5PSIzNy41MDcwMzkiIGlua3NjYXBlOnBhZ2VvcGFjaXR5PSIwIiBpbmtzY2FwZTpwYWdlc2hhZG93PSIyIiBpbmtzY2FwZTp3aW5kb3ctaGVpZ2h0PSIxMDE3IiBpbmtzY2FwZTp3aW5kb3ctbWF4aW1pemVkPSIxIiBpbmtzY2FwZTp3aW5kb3ctd2lkdGg9IjE5MjAiIGlua3NjYXBlOndpbmRvdy14PSItOCIgaW5rc2NhcGU6d2luZG93LXk9Ii04IiBpbmtzY2FwZTp6b29tPSIxMS4yNTgwNDYiIG9iamVjdHRvbGVyYW5jZT0iMTAiIHBhZ2Vjb2xvcj0iI2ZmZmZmZiIgc2hvd2dyaWQ9ImZhbHNlIj4mI3hhOwk8L3NvZGlwb2RpOm5hbWVkdmlldz4mI3hhOzxnIGlkPSJnMTA5NDYiIHRyYW5zZm9ybT0idHJhbnNsYXRlKC0wLjc1LC0wLjc1MTMyMSkiPiYjeGE7CTx0aXRsZSBpZD0idGl0bGUxMDkxNiI+UGFnZS0xPC90aXRsZT4mI3hhOwk8ZyBpZD0iZ3JvdXAzNjE4LTEiIHRyYW5zZm9ybT0idHJhbnNsYXRlKDAuNzUsLTAuNzU4Njc5KSI+JiN4YTsJCTx0aXRsZSBpZD0idGl0bGUxMDkxOCI+TGFwdG9wPC90aXRsZT4mI3hhOwkJPGcgaWQ9InNoYXBlMzYxOS0yIiB0cmFuc2Zvcm09InRyYW5zbGF0ZSg2Ljc1LC00LjUpIj4mI3hhOwkJCTx0aXRsZSBpZD0idGl0bGUxMDkyMCI+cmVjdDE0OTc8L3RpdGxlPiYjeGE7CQkJJiN4YTsJCQkJPHBhdGggaWQ9InBhdGgxMDkyMiIgaW5rc2NhcGU6Y29ubmVjdG9yLWN1cnZhdHVyZT0iMCIgc3R5bGU9ImZpbGw6I0ZDRkNGQztzdHJva2U6IzU1NkE4QTtzdHJva2Utd2lkdGg6MS41O3N0cm9rZS1taXRlcmxpbWl0OjM7IiBkPSIgICAgIE0wLDU0Ljc2YzAsMS42NiwxLjM0LDMsMywzaDYzYzEuNjYsMCwzLTEuMzQsMy0zdi00NWMwLTEuNjYtMS4zNC0zLTMtM0gzYy0xLjY2LDAtMywxLjM0LTMsM1Y1NC43NnoiLz4mI3hhOwkJPC9nPiYjeGE7CQk8ZyBpZD0ic2hhcGUzNjIwLTQiPiYjeGE7CQkJPHRpdGxlIGlkPSJ0aXRsZTEwOTI1Ij5wYXRoMTQ5OTwvdGl0bGU+JiN4YTsJCQk8cGF0aCBpZD0icGF0aDEwOTI3IiBpbmtzY2FwZTpjb25uZWN0b3ItY3VydmF0dXJlPSIwIiBzdHlsZT0iZmlsbDojNDE0MDQyOyIgZD0iTTc4Ljc1LDU3Ljc2SDMuMTMgICAgIEMxLjY4LDU3Ljg3LDAuMzYsNTYuOTIsMCw1NS41MWg4MS43NUM4MS43NSw1NS41MSw4MC44NCw1Ny43Niw3OC43NSw1Ny43NnoiLz4mI3hhOwkJPC9nPiYjeGE7CQk8ZyBpZD0ic2hhcGUzNjIxLTYiIHRyYW5zZm9ybT0idHJhbnNsYXRlKDAuMDc1LC0yLjI1KSI+JiN4YTsJCQk8dGl0bGUgaWQ9InRpdGxlMTA5MzAiPnBvbHlnb24xNTAxPC90aXRsZT4mI3hhOwkJCTxwYXRoIGlkPSJwYXRoMTA5MzIiIGlua3NjYXBlOmNvbm5lY3Rvci1jdXJ2YXR1cmU9IjAiIHN0eWxlPSJmaWxsOiM1NTZBOEE7IiBkPSJNNzYuNDIsNTQuMDFsNS4yNSwzLjc1SDBsNS45NC0zLjc1SDc2LjQyeiIvPiYjeGE7CQk8L2c+JiN4YTsJCTxnIGlkPSJzaGFwZTM2MjItOCIgdHJhbnNmb3JtPSJ0cmFuc2xhdGUoMywtMi4yNSkiPiYjeGE7CQkJPHRpdGxlIGlkPSJ0aXRsZTEwOTM1Ij5wb2x5Z29uMTUwMzwvdGl0bGU+JiN4YTsJCQk8cGF0aCBpZD0icGF0aDEwOTM3IiBpbmtzY2FwZTpjb25uZWN0b3ItY3VydmF0dXJlPSIwIiBzdHlsZT0iZmlsbDojRTRFREYxOyIgZD0iTTczLjAyLDU1LjUxbDIuNzMsMi4yNUgwbDMuNDUtMi4yNUg3My4wMnoiLz4mI3hhOwkJPC9nPiYjeGE7CQk8ZyBpZD0ic2hhcGUzNjIzLTEwIiB0cmFuc2Zvcm09InRyYW5zbGF0ZSgxMS4yNSwtMTAuNSkiPiYjeGE7CQkJPHRpdGxlIGlkPSJ0aXRsZTEwOTQwIj5yZWN0MTUwNTwvdGl0bGU+JiN4YTsJCQk8cmVjdCBpZD0icmVjdDEwOTQyIiB5PSIxOC4wMSIgc3R5bGU9ImZpbGw6IzJCQzdGNDsiIHdpZHRoPSI2MCIgaGVpZ2h0PSIzOS43NSIvPiYjeGE7CQk8L2c+JiN4YTsJPC9nPiYjeGE7PC9nPiYjeGE7PC9zdmc+;" parent="4rNJ4vwEb-hpk1fD-wyn-10" vertex="1">
          <mxGeometry x="239.63" y="890" width="131.79" height="90" as="geometry" />
        </mxCell>
        <mxCell id="4rNJ4vwEb-hpk1fD-wyn-11" value="&lt;font style=&quot;font-size: 50px;&quot;&gt;Diagrama de infraestructura URARA&lt;/font&gt;" style="text;html=1;strokeColor=none;fillColor=none;align=center;verticalAlign=middle;whiteSpace=wrap;rounded=0;" parent="1" vertex="1">
          <mxGeometry x="625" y="10" width="1210" height="120" as="geometry" />
        </mxCell>
        <mxCell id="4rNJ4vwEb-hpk1fD-wyn-12" value="" style="group" parent="1" vertex="1" connectable="0">
          <mxGeometry x="1480" y="1860" width="160" height="163" as="geometry" />
        </mxCell>
        <mxCell id="4rNJ4vwEb-hpk1fD-wyn-13" value="" style="outlineConnect=0;dashed=0;verticalLabelPosition=bottom;verticalAlign=top;align=center;html=1;shape=mxgraph.aws3.ssl_padlock;fillColor=#D2D3D3;gradientColor=none;" parent="4rNJ4vwEb-hpk1fD-wyn-12" vertex="1">
          <mxGeometry x="35" width="90" height="103" as="geometry" />
        </mxCell>
        <mxCell id="4rNJ4vwEb-hpk1fD-wyn-14" value="&lt;span style=&quot;font-size: 26px;&quot;&gt;SSL&lt;/span&gt;" style="text;html=1;strokeColor=none;fillColor=none;align=center;verticalAlign=middle;whiteSpace=wrap;rounded=0;" parent="4rNJ4vwEb-hpk1fD-wyn-12" vertex="1">
          <mxGeometry y="103" width="160" height="60" as="geometry" />
        </mxCell>
        <mxCell id="4rNJ4vwEb-hpk1fD-wyn-15" value="" style="endArrow=classic;html=1;rounded=0;strokeWidth=7;entryX=0.04;entryY=0.5;entryDx=0;entryDy=0;entryPerimeter=0;exitX=1;exitY=0.5;exitDx=0;exitDy=0;" parent="1" source="W28Hg_RXF8OLAKR3yMh1-1" target="4rNJ4vwEb-hpk1fD-wyn-13" edge="1">
          <mxGeometry width="50" height="50" relative="1" as="geometry">
            <mxPoint x="1130" y="1780" as="sourcePoint" />
            <mxPoint x="1180" y="1730" as="targetPoint" />
          </mxGeometry>
        </mxCell>
        <mxCell id="4rNJ4vwEb-hpk1fD-wyn-16" value="" style="endArrow=classic;html=1;rounded=0;strokeWidth=7;entryX=0.5;entryY=1;entryDx=0;entryDy=0;exitX=0.5;exitY=0;exitDx=0;exitDy=0;exitPerimeter=0;" parent="1" source="4rNJ4vwEb-hpk1fD-wyn-13" target="acgDZ-SoyNHMQ0wOxpw4-46" edge="1">
          <mxGeometry width="50" height="50" relative="1" as="geometry">
            <mxPoint x="1220" y="1588" as="sourcePoint" />
            <mxPoint x="1689" y="1560" as="targetPoint" />
          </mxGeometry>
        </mxCell>
        <mxCell id="4rNJ4vwEb-hpk1fD-wyn-17" value="" style="group" parent="1" vertex="1" connectable="0">
          <mxGeometry x="20" y="210" width="399.63" height="1060" as="geometry" />
        </mxCell>
        <mxCell id="acgDZ-SoyNHMQ0wOxpw4-48" value="" style="rounded=0;whiteSpace=wrap;html=1;fillColor=#dae8fc;strokeColor=#6c8ebf;" parent="4rNJ4vwEb-hpk1fD-wyn-17" vertex="1">
          <mxGeometry width="399.63" height="1060" as="geometry" />
        </mxCell>
        <mxCell id="acgDZ-SoyNHMQ0wOxpw4-1" value="" style="sketch=0;pointerEvents=1;shadow=0;dashed=0;html=1;strokeColor=none;labelPosition=center;verticalLabelPosition=bottom;verticalAlign=top;align=center;fillColor=#505050;shape=mxgraph.mscae.intune.user_group" parent="4rNJ4vwEb-hpk1fD-wyn-17" vertex="1">
          <mxGeometry x="109.63" y="170" width="120" height="100" as="geometry" />
        </mxCell>
        <mxCell id="acgDZ-SoyNHMQ0wOxpw4-2" value="Cloud" style="ellipse;shape=cloud;whiteSpace=wrap;html=1;align=center;strokeWidth=5;" parent="4rNJ4vwEb-hpk1fD-wyn-17" vertex="1">
          <mxGeometry x="64.63" y="370" width="210" height="160" as="geometry" />
        </mxCell>
        <mxCell id="acgDZ-SoyNHMQ0wOxpw4-4" value="&lt;font style=&quot;font-size: 26px;&quot;&gt;ExposiciÃ³n a internet&lt;/font&gt;" style="text;html=1;strokeColor=none;fillColor=none;align=center;verticalAlign=middle;whiteSpace=wrap;rounded=0;" parent="4rNJ4vwEb-hpk1fD-wyn-17" vertex="1">
          <mxGeometry x="239.63" y="360" width="160" height="80" as="geometry" />
        </mxCell>
        <mxCell id="acgDZ-SoyNHMQ0wOxpw4-6" value="" style="endArrow=classic;html=1;rounded=0;entryX=0.492;entryY=0.094;entryDx=0;entryDy=0;entryPerimeter=0;strokeWidth=8;" parent="4rNJ4vwEb-hpk1fD-wyn-17" target="acgDZ-SoyNHMQ0wOxpw4-2" edge="1">
          <mxGeometry width="50" height="50" relative="1" as="geometry">
            <mxPoint x="167.63" y="290" as="sourcePoint" />
            <mxPoint x="879.63" y="490" as="targetPoint" />
          </mxGeometry>
        </mxCell>
        <mxCell id="acgDZ-SoyNHMQ0wOxpw4-7" value="&lt;font style=&quot;font-size: 30px;&quot;&gt;Empleados&lt;/font&gt;" style="text;html=1;strokeColor=none;fillColor=none;align=center;verticalAlign=middle;whiteSpace=wrap;rounded=0;" parent="4rNJ4vwEb-hpk1fD-wyn-17" vertex="1">
          <mxGeometry x="102.68" y="10" width="154.63" height="70" as="geometry" />
        </mxCell>
        <mxCell id="acgDZ-SoyNHMQ0wOxpw4-8" value="" style="shape=curlyBracket;whiteSpace=wrap;html=1;rounded=1;labelPosition=left;verticalLabelPosition=middle;align=right;verticalAlign=middle;strokeWidth=9;" parent="4rNJ4vwEb-hpk1fD-wyn-17" vertex="1">
          <mxGeometry x="69.63" y="560" width="50" height="180" as="geometry" />
        </mxCell>
        <mxCell id="acgDZ-SoyNHMQ0wOxpw4-9" value="&lt;font style=&quot;font-size: 25px;&quot;&gt;Navegadores&lt;/font&gt;" style="text;html=1;strokeColor=none;fillColor=none;align=center;verticalAlign=middle;whiteSpace=wrap;rounded=0;rotation=-90;" parent="4rNJ4vwEb-hpk1fD-wyn-17" vertex="1">
          <mxGeometry x="-40.37" y="620" width="170" height="70" as="geometry" />
        </mxCell>
        <mxCell id="acgDZ-SoyNHMQ0wOxpw4-10" value="&lt;font style=&quot;font-size: 25px;&quot;&gt;Chrome&lt;br&gt;FireFox&lt;br&gt;Opera&lt;br&gt;Safari&lt;br&gt;Edge&lt;br&gt;&lt;/font&gt;" style="text;html=1;strokeColor=none;fillColor=none;align=center;verticalAlign=middle;whiteSpace=wrap;rounded=0;" parent="4rNJ4vwEb-hpk1fD-wyn-17" vertex="1">
          <mxGeometry x="109.63" y="562.5" width="130" height="175" as="geometry" />
        </mxCell>
        <mxCell id="acgDZ-SoyNHMQ0wOxpw4-11" value="" style="shape=curlyBracket;whiteSpace=wrap;html=1;rounded=1;labelPosition=left;verticalLabelPosition=middle;align=right;verticalAlign=middle;strokeWidth=9;" parent="4rNJ4vwEb-hpk1fD-wyn-17" vertex="1">
          <mxGeometry x="69.63" y="780" width="50" height="180" as="geometry" />
        </mxCell>
        <mxCell id="acgDZ-SoyNHMQ0wOxpw4-12" value="&lt;font style=&quot;font-size: 25px;&quot;&gt;Dispositivos&lt;br&gt;&lt;/font&gt;" style="text;html=1;strokeColor=none;fillColor=none;align=center;verticalAlign=middle;whiteSpace=wrap;rounded=0;rotation=-90;" parent="4rNJ4vwEb-hpk1fD-wyn-17" vertex="1">
          <mxGeometry x="-40.37" y="840" width="170" height="70" as="geometry" />
        </mxCell>
        <mxCell id="acgDZ-SoyNHMQ0wOxpw4-13" value="" style="shape=image;verticalLabelPosition=bottom;labelBackgroundColor=#ffffff;verticalAlign=top;aspect=fixed;imageAspect=0;image=data:image/svg+xml,PHN2ZyB4bWxuczpjYz0iaHR0cDovL2NyZWF0aXZlY29tbW9ucy5vcmcvbnMjIiB4bWxuczpkYz0iaHR0cDovL3B1cmwub3JnL2RjL2VsZW1lbnRzLzEuMS8iIHhtbG5zOmlua3NjYXBlPSJodHRwOi8vd3d3Lmlua3NjYXBlLm9yZy9uYW1lc3BhY2VzL2lua3NjYXBlIiB4bWxuczpyZGY9Imh0dHA6Ly93d3cudzMub3JnLzE5OTkvMDIvMjItcmRmLXN5bnRheC1ucyMiIHhtbG5zOnNvZGlwb2RpPSJodHRwOi8vc29kaXBvZGkuc291cmNlZm9yZ2UubmV0L0RURC9zb2RpcG9kaS0wLmR0ZCIgeG1sbnM6c3ZnPSJodHRwOi8vd3d3LnczLm9yZy8yMDAwL3N2ZyIgeG1sbnM9Imh0dHA6Ly93d3cudzMub3JnLzIwMDAvc3ZnIiB4bWxuczp4bGluaz0iaHR0cDovL3d3dy53My5vcmcvMTk5OS94bGluayIgdmVyc2lvbj0iMS4xIiBpZD0ic3ZnMTE5NSIgaW5rc2NhcGU6dmVyc2lvbj0iMC45Mi4zICgyNDA1NTQ2LCAyMDE4LTAzLTExKSIgc29kaXBvZGk6ZG9jbmFtZT0iYW5kcm9pZC5zdmciIHg9IjBweCIgeT0iMHB4IiB2aWV3Qm94PSIwIDAgMjkuMzggNTAuODUiIHN0eWxlPSJlbmFibGUtYmFja2dyb3VuZDpuZXcgMCAwIDI5LjM4IDUwLjg1OyIgeG1sOnNwYWNlPSJwcmVzZXJ2ZSI+JiN4YTs8c29kaXBvZGk6bmFtZWR2aWV3IGJvcmRlcmNvbG9yPSIjNjY2NjY2IiBib3JkZXJvcGFjaXR5PSIxIiBmaXQtbWFyZ2luLWJvdHRvbT0iMCIgZml0LW1hcmdpbi1sZWZ0PSIwIiBmaXQtbWFyZ2luLXJpZ2h0PSIwIiBmaXQtbWFyZ2luLXRvcD0iMCIgZ3JpZHRvbGVyYW5jZT0iMTAiIGd1aWRldG9sZXJhbmNlPSIxMCIgaWQ9Im5hbWVkdmlldzExOTciIGlua3NjYXBlOmN1cnJlbnQtbGF5ZXI9InN2ZzExOTUiIGlua3NjYXBlOmN4PSIxOS41ODkzNCIgaW5rc2NhcGU6Y3k9IjMzLjg5NzQ3NiIgaW5rc2NhcGU6cGFnZW9wYWNpdHk9IjAiIGlua3NjYXBlOnBhZ2VzaGFkb3c9IjIiIGlua3NjYXBlOndpbmRvdy1oZWlnaHQ9IjEwMTciIGlua3NjYXBlOndpbmRvdy1tYXhpbWl6ZWQ9IjEiIGlua3NjYXBlOndpbmRvdy13aWR0aD0iMTkyMCIgaW5rc2NhcGU6d2luZG93LXg9Ii04IiBpbmtzY2FwZTp3aW5kb3cteT0iLTgiIGlua3NjYXBlOnpvb209IjEyLjc4NjY1MSIgb2JqZWN0dG9sZXJhbmNlPSIxMCIgcGFnZWNvbG9yPSIjZmZmZmZmIiBzaG93Z3JpZD0iZmFsc2UiPiYjeGE7CTwvc29kaXBvZGk6bmFtZWR2aWV3PiYjeGE7PGcgaWQ9ImcxMTkzIiB0cmFuc2Zvcm09InRyYW5zbGF0ZSgtMi42ODI2ODU1ZS01KSI+JiN4YTsJPHRpdGxlIGlkPSJ0aXRsZTExNjMiPlBhZ2UtMTwvdGl0bGU+JiN4YTsJPGcgaWQ9Imdyb3VwMzQ5OS0xIj4mI3hhOwkJPHRpdGxlIGlkPSJ0aXRsZTExNjUiPkFuZHJvaWQ8L3RpdGxlPiYjeGE7CQk8ZyBpZD0ic2hhcGUzNTAwLTIiPiYjeGE7CQkJPHRpdGxlIGlkPSJ0aXRsZTExNjciPlNoZWV0LjM1MDA8L3RpdGxlPiYjeGE7CQkJPHBhdGggaWQ9InBhdGgxMTY5IiBpbmtzY2FwZTpjb25uZWN0b3ItY3VydmF0dXJlPSIwIiBzdHlsZT0iZmlsbDojM0Y1NzY1OyIgZD0iTTI3LjQzLDBDMi4xLDAsMi4xLDAsMi4xLDBDMC45MiwwLDAsMC44LDAsMS44NCAgICAgYzAsNDYuOTUsMCw0Ni45NSwwLDQ2Ljk1YzAsMC45MiwwLjkyLDIuMDYsMi4xLDIuMDZjMjUuMzMsMCwyNS4zMywwLDI1LjMzLDBjMS4wNywwLDEuOTUtMS4xNCwxLjk1LTIuMDYgICAgIGMwLTQ2Ljk1LDAtNDYuOTUsMC00Ni45NUMyOS4zOCwwLjgsMjguNSwwLDI3LjQzLDB6Ii8+JiN4YTsJCTwvZz4mI3hhOwkJPGcgaWQ9InNoYXBlMzUwMS00IiB0cmFuc2Zvcm09InRyYW5zbGF0ZSgzLjA2MDg0LC03LjI1MTY3KSI+JiN4YTsJCQk8dGl0bGUgaWQ9InRpdGxlMTE3MiI+U2hlZXQuMzUwMTwvdGl0bGU+JiN4YTsJCQk8cGF0aCBpZD0icGF0aDExNzQiIGlua3NjYXBlOmNvbm5lY3Rvci1jdXJ2YXR1cmU9IjAiIHN0eWxlPSJmaWxsOiNGRkZGRkY7IiBkPSJNMCwxMC41OWgyMy4yNnY0MC4yNkgwVjEwLjU5eiIvPiYjeGE7CQk8L2c+JiN4YTsJCTxnIGlkPSJzaGFwZTM1MDItNiIgdHJhbnNmb3JtPSJ0cmFuc2xhdGUoMTIuODU1NSwtMy4wNjM0OCkiPiYjeGE7CQkJPHRpdGxlIGlkPSJ0aXRsZTExNzciPlNoZWV0LjM1MDI8L3RpdGxlPiYjeGE7CQkJPHBhdGggaWQ9InBhdGgxMTc5IiBpbmtzY2FwZTpjb25uZWN0b3ItY3VydmF0dXJlPSIwIiBzdHlsZT0iZmlsbDojRkZGRkZGOyIgZD0iTTAsNDkuMzJjMC0wLjg0LDAuNzctMS41MywxLjY0LTEuNTMgICAgIGMwLjkzLDAsMS42NSwwLjY5LDEuNjUsMS41M2MwLDAuODgtMC43MiwxLjUzLTEuNjUsMS41M0MwLjc3LDUwLjg1LDAsNTAuMiwwLDQ5LjMyeiIvPiYjeGE7CQk8L2c+JiN4YTsJCTxnIGlkPSJzaGFwZTM1MDMtOCIgdHJhbnNmb3JtPSJ0cmFuc2xhdGUoMTcuNzUyOSwtMy42NzYxOCkiPiYjeGE7CQkJPHRpdGxlIGlkPSJ0aXRsZTExODIiPlNoZWV0LjM1MDM8L3RpdGxlPiYjeGE7CQkJPHBhdGggaWQ9InBhdGgxMTg0IiBpbmtzY2FwZTpjb25uZWN0b3ItY3VydmF0dXJlPSIwIiBzdHlsZT0iZmlsbDojRkZGRkZGOyIgZD0iTTAsNDkuOTNjMC0wLjQ5LDAuMzEtMC45MSwwLjYxLTAuOTEgICAgIGMwLjM1LDAsMC42MSwwLjQyLDAuNjEsMC45MWMwLDAuNTQtMC4yNiwwLjkyLTAuNjEsMC45MkMwLjMxLDUwLjg1LDAsNTAuNDcsMCw0OS45M3oiLz4mI3hhOwkJPC9nPiYjeGE7CQk8ZyBpZD0ic2hhcGUzNTA0LTEwIiB0cmFuc2Zvcm09InRyYW5zbGF0ZSg5LjE4MjUxLC0zLjY3NjE4KSI+JiN4YTsJCQk8dGl0bGUgaWQ9InRpdGxlMTE4NyI+U2hlZXQuMzUwNDwvdGl0bGU+JiN4YTsJCQk8cGF0aCBpZD0icGF0aDExODkiIGlua3NjYXBlOmNvbm5lY3Rvci1jdXJ2YXR1cmU9IjAiIHN0eWxlPSJmaWxsOiNGRkZGRkY7IiBkPSJNMCw0OS45M2MwLTAuNDksMC4zMS0wLjkxLDAuNjEtMC45MSAgICAgYzAuMzUsMCwwLjYxLDAuNDIsMC42MSwwLjkxYzAsMC41NC0wLjI2LDAuOTItMC42MSwwLjkyQzAuMzEsNTAuODUsMCw1MC40NywwLDQ5LjkzeiIvPiYjeGE7CQk8L2c+JiN4YTsJPC9nPiYjeGE7PC9nPiYjeGE7PC9zdmc+;" parent="4rNJ4vwEb-hpk1fD-wyn-17" vertex="1">
          <mxGeometry x="129.63" y="780" width="57.43" height="101" as="geometry" />
        </mxCell>
        <mxCell id="acgDZ-SoyNHMQ0wOxpw4-14" value="" style="shape=image;verticalLabelPosition=bottom;labelBackgroundColor=#ffffff;verticalAlign=top;aspect=fixed;imageAspect=0;image=data:image/svg+xml,PHN2ZyB4bWxuczpjYz0iaHR0cDovL2NyZWF0aXZlY29tbW9ucy5vcmcvbnMjIiB4bWxuczpkYz0iaHR0cDovL3B1cmwub3JnL2RjL2VsZW1lbnRzLzEuMS8iIHhtbG5zOmlua3NjYXBlPSJodHRwOi8vd3d3Lmlua3NjYXBlLm9yZy9uYW1lc3BhY2VzL2lua3NjYXBlIiB4bWxuczpyZGY9Imh0dHA6Ly93d3cudzMub3JnLzE5OTkvMDIvMjItcmRmLXN5bnRheC1ucyMiIHhtbG5zOnNvZGlwb2RpPSJodHRwOi8vc29kaXBvZGkuc291cmNlZm9yZ2UubmV0L0RURC9zb2RpcG9kaS0wLmR0ZCIgeG1sbnM6c3ZnPSJodHRwOi8vd3d3LnczLm9yZy8yMDAwL3N2ZyIgeG1sbnM9Imh0dHA6Ly93d3cudzMub3JnLzIwMDAvc3ZnIiB4bWxuczp4bGluaz0iaHR0cDovL3d3dy53My5vcmcvMTk5OS94bGluayIgdmVyc2lvbj0iMS4xIiBpZD0ic3ZnMTkxOCIgaW5rc2NhcGU6dmVyc2lvbj0iMC45Mi4zICgyNDA1NTQ2LCAyMDE4LTAzLTExKSIgc29kaXBvZGk6ZG9jbmFtZT0iZGVza3RvcC5zdmciIHg9IjBweCIgeT0iMHB4IiB2aWV3Qm94PSIwIDAgNTUuNjYgMzMuMzMiIHN0eWxlPSJlbmFibGUtYmFja2dyb3VuZDpuZXcgMCAwIDU1LjY2IDMzLjMzOyIgeG1sOnNwYWNlPSJwcmVzZXJ2ZSI+JiN4YTs8c29kaXBvZGk6bmFtZWR2aWV3IGJvcmRlcmNvbG9yPSIjNjY2NjY2IiBib3JkZXJvcGFjaXR5PSIxIiBmaXQtbWFyZ2luLWJvdHRvbT0iMCIgZml0LW1hcmdpbi1sZWZ0PSIwIiBmaXQtbWFyZ2luLXJpZ2h0PSIwIiBmaXQtbWFyZ2luLXRvcD0iMCIgZ3JpZHRvbGVyYW5jZT0iMTAiIGd1aWRldG9sZXJhbmNlPSIxMCIgaWQ9Im5hbWVkdmlldzE5MjAiIGlua3NjYXBlOmN1cnJlbnQtbGF5ZXI9InN2ZzE5MTgiIGlua3NjYXBlOmN4PSI1NC43MjUwMzkiIGlua3NjYXBlOmN5PSIxNy4zOTkwNDQiIGlua3NjYXBlOnBhZ2VvcGFjaXR5PSIwIiBpbmtzY2FwZTpwYWdlc2hhZG93PSIyIiBpbmtzY2FwZTp3aW5kb3ctaGVpZ2h0PSIxMDE3IiBpbmtzY2FwZTp3aW5kb3ctbWF4aW1pemVkPSIxIiBpbmtzY2FwZTp3aW5kb3ctd2lkdGg9IjE5MjAiIGlua3NjYXBlOndpbmRvdy14PSItOCIgaW5rc2NhcGU6d2luZG93LXk9Ii04IiBpbmtzY2FwZTp6b29tPSIxMS4xMTE0NjQiIG9iamVjdHRvbGVyYW5jZT0iMTAiIHBhZ2Vjb2xvcj0iI2ZmZmZmZiIgc2hvd2dyaWQ9ImZhbHNlIj4mI3hhOwk8L3NvZGlwb2RpOm5hbWVkdmlldz4mI3hhOzxnIGlkPSJncm91cDM1MTgtMyIgdHJhbnNmb3JtPSJ0cmFuc2xhdGUoMTAuMTE4ODU4LC04LjA0Njc1MikiPiYjeGE7CTx0aXRsZSBpZD0idGl0bGUxNzYyIj5nOTk5NDwvdGl0bGU+JiN4YTsJPGcgaWQ9Imdyb3VwMzUxOS00IiB0cmFuc2Zvcm09InRyYW5zbGF0ZSg1LjM1NzA2KSI+JiN4YTsJCTx0aXRsZSBpZD0idGl0bGUxNzY0Ij5nOTk4MDwvdGl0bGU+JiN4YTsJCTxnIGlkPSJzaGFwZTM1MjAtNSIgdHJhbnNmb3JtPSJ0cmFuc2xhdGUoMCwtMC44OTI4NDQpIj4mI3hhOwkJCTx0aXRsZSBpZD0idGl0bGUxNzY2Ij5wb2x5Z29uOTk3NDwvdGl0bGU+JiN4YTsJCQk8cGF0aCBpZD0icGF0aDE3NjgiIGlua3NjYXBlOmNvbm5lY3Rvci1jdXJ2YXR1cmU9IjAiIHN0eWxlPSJmaWxsOiM4MDgwODA7IiBkPSJNMi4xOCwzOWgzMC42bDIuMDQsMi4zOEgwTDIuMTgsMzl6Ii8+JiN4YTsJCTwvZz4mI3hhOwkJPGcgaWQ9InNoYXBlMzUyMS03IiB0cmFuc2Zvcm09InRyYW5zbGF0ZSgzLjI3Mzc2LC0xLjE5MDQ2KSI+JiN4YTsJCQk8dGl0bGUgaWQ9InRpdGxlMTc3MSI+cG9seWdvbjk5NzY8L3RpdGxlPiYjeGE7CQkJPHBhdGggaWQ9InBhdGgxNzczIiBpbmtzY2FwZTpjb25uZWN0b3ItY3VydmF0dXJlPSIwIiBzdHlsZT0iZmlsbDojMkUyRTJFOyIgZD0iTTAuOTksMzkuODloMjYuMzJsMC45NiwxLjQ5SDBMMC45OSwzOS44OXoiLz4mI3hhOwkJPC9nPiYjeGE7CQk8ZyBpZD0ic2hhcGUzNTIyLTkiPiYjeGE7CQkJPHRpdGxlIGlkPSJ0aXRsZTE3NzYiPnBhdGg5OTc4PC90aXRsZT4mI3hhOwkJCTxwYXRoIGlkPSJwYXRoMTc3OCIgaW5rc2NhcGU6Y29ubmVjdG9yLWN1cnZhdHVyZT0iMCIgc3R5bGU9ImZpbGw6IzFBMUExQTsiIGQ9Ik0zMy4zNyw0MS4zOEgxLjQ5QzAuMDEsNDEuMzgsMCw0MC41MSwwLDQwLjUxICAgICBoMzQuNzRDMzQuNzQsNDAuNTEsMzQuOTEsNDEuMzgsMzMuMzcsNDEuMzh6Ii8+JiN4YTsJCTwvZz4mI3hhOwk8L2c+JiN4YTsJPGcgaWQ9InNoYXBlMzUyMy0xMSIgdHJhbnNmb3JtPSJ0cmFuc2xhdGUoMTkuNjQyNiwtNC45MTA2NCkiPiYjeGE7CQk8dGl0bGUgaWQ9InRpdGxlMTc4MiI+cG9seWdvbjk5ODI8L3RpdGxlPiYjeGE7CQk8cGF0aCBpZD0icGF0aDE3ODQiIGlua3NjYXBlOmNvbm5lY3Rvci1jdXJ2YXR1cmU9IjAiIHN0eWxlPSJmaWxsOiMxQTFBMUE7IiBkPSJNMC42LDM3LjIxaDQuNzZsMC4wNCwwLjNsMC41NSwzLjg3SDBMMC42LDM3LjIxeiIvPiYjeGE7CTwvZz4mI3hhOwk8ZyBpZD0ic2hhcGUzNTI0LTEzIiB0cmFuc2Zvcm09InRyYW5zbGF0ZSgyMi42MTg3LC00LjkxMDY0KSI+JiN4YTsJCTx0aXRsZSBpZD0idGl0bGUxNzg3Ij5wb2x5Z29uOTk4NDwvdGl0bGU+JiN4YTsJCTxwYXRoIGlkPSJwYXRoMTc4OSIgaW5rc2NhcGU6Y29ubmVjdG9yLWN1cnZhdHVyZT0iMCIgc3R5bGU9ImZpbGw6IzJFMkUyRTsiIGQ9Ik0wLDM3LjUxaDIuNDJsMC41NiwzLjg3SDBWMzcuNTF6Ii8+JiN4YTsJPC9nPiYjeGE7CTxnIGlkPSJzaGFwZTM1MjUtMTUiIHRyYW5zZm9ybT0idHJhbnNsYXRlKDAsLTguMzMzMjEpIj4mI3hhOwkJPHRpdGxlIGlkPSJ0aXRsZTE3OTIiPnJlY3Q5OTg2PC90aXRsZT4mI3hhOwkJPHBhdGggaWQ9InBhdGgxNzk0IiBpbmtzY2FwZTpjb25uZWN0b3ItY3VydmF0dXJlPSIwIiBzdHlsZT0iZmlsbDojMjIxRjFGOyIgZD0iTTAsNDAuMTljMCwwLjY2LDAuNTMsMS4xOSwxLjE5LDEuMTloNDMuMTUgICAgYzAuNjYsMC4wMSwxLjE5LTAuNTIsMS4yLTEuMThjMCwwLDAtMC4wMSwwLTAuMDFWMTcuNTdjMC0wLjY2LTAuNTMtMS4xOS0xLjE5LTEuMTljMCwwLTAuMDEsMC0wLjAxLDBIMS4xOSAgICBDMC41MywxNi4zOCwwLDE2LjkxLDAsMTcuNTdWNDAuMTl6Ii8+JiN4YTsJPC9nPiYjeGE7CTxnIGlkPSJzaGFwZTM1MjYtMTciIHRyYW5zZm9ybT0idHJhbnNsYXRlKDEuMTkwNDYsLTkuNTIzNjcpIj4mI3hhOwkJPHRpdGxlIGlkPSJ0aXRsZTE3OTciPnJlY3Q5OTg4PC90aXRsZT4mI3hhOwkJPHJlY3QgaWQ9InJlY3QxNzk5IiB4PSIwIiB5PSIxOC43NiIgc3R5bGU9ImZpbGw6IzgwQkNFQjsiIHdpZHRoPSI0My4xNSIgaGVpZ2h0PSIyMi42MiIvPiYjeGE7CTwvZz4mI3hhOwk8ZyBpZD0ic2hhcGUzNTI3LTE5IiB0cmFuc2Zvcm09InRyYW5zbGF0ZSgxMy4zOTI3LC0zLjg2ODk5KSI+JiN4YTsJCTx0aXRsZSBpZD0idGl0bGUxODAyIj5wYXRoOTk5MDwvdGl0bGU+JiN4YTsJCTxwYXRoIGlkPSJwYXRoMTgwNCIgaW5rc2NhcGU6Y29ubmVjdG9yLWN1cnZhdHVyZT0iMCIgc3R5bGU9ImZpbGw6IzJFMkUyRTsiIGQ9Ik0xOC4wOSw0MS4zOEgwLjY2QzAuMzEsNDEuNCwwLjAyLDQxLjEzLDAsNDAuNzggICAgYzAsMC4wMSwxLjExLTAuODksMS4xNy0wLjg5aDE2LjEyYzAuNjcsMCwxLjQ2LDAuOSwxLjQ2LDAuOUMxOC43Myw0MS4xNCwxOC40NCw0MS40LDE4LjA5LDQxLjM4TDE4LjA5LDQxLjM4eiIvPiYjeGE7CTwvZz4mI3hhOwk8ZyBpZD0ic2hhcGUzNTI4LTIxIiB0cmFuc2Zvcm09InRyYW5zbGF0ZSgzMi43Mzc2LC0yMC41MzU0KSI+JiN4YTsJCTx0aXRsZSBpZD0idGl0bGUxODA3Ij5wb2x5Z29uOTk5MjwvdGl0bGU+JiN4YTsJCTxwYXRoIGlkPSJwYXRoMTgwOSIgaW5rc2NhcGU6Y29ubmVjdG9yLWN1cnZhdHVyZT0iMCIgc3R5bGU9ImZpbGw6I0FBRDJGMjsiIGQ9Ik0wLDI5Ljc3aDExLjYxdjExLjYxTDAsMjkuNzd6Ii8+JiN4YTsJPC9nPiYjeGE7PC9nPiYjeGE7PGcgaWQ9InNoYXBlMzUyOS0yMyIgdHJhbnNmb3JtPSJ0cmFuc2xhdGUoNy43Mzc5Mzc4LC02LjI2MTA2MikiPiYjeGE7CTx0aXRsZSBpZD0idGl0bGUxODEzIj5yZWN0OTk5NjwvdGl0bGU+JiN4YTsJPHJlY3QgaWQ9InJlY3QxODE1IiB4PSIwIiB5PSIxLjUiIHN0eWxlPSJmaWxsOm5vbmU7IiB3aWR0aD0iNTAiIGhlaWdodD0iMzkuODgiLz4mI3hhOzwvZz4mI3hhOzxnIGlkPSJzaGFwZTM1MzEtMjYiIHRyYW5zZm9ybT0idHJhbnNsYXRlKC00LjIyMzMzMTNlLTUsLTguMzQ0MzYyKSI+JiN4YTsJPHRpdGxlIGlkPSJ0aXRsZTE4MjEiPnJlY3QxMDAwMDwvdGl0bGU+JiN4YTsJPHJlY3QgaWQ9InJlY3QxODIzIiB4PSIwIiB5PSIxNCIgc3R5bGU9ImZpbGw6IzY2NjY2NjsiIHdpZHRoPSIxMy42OSIgaGVpZ2h0PSIyNy4zOCIvPiYjeGE7PC9nPiYjeGE7PGcgaWQ9Imdyb3VwMzUzMi0yOCIgdHJhbnNmb3JtPSJ0cmFuc2xhdGUoMC4yMzIwOTY3NywtOC4zNDQzNjIpIj4mI3hhOwk8dGl0bGUgaWQ9InRpdGxlMTgyNiI+ZzEwMDE0PC90aXRsZT4mI3hhOwk8ZyBpZD0ic2hhcGUzNTMzLTI5IiB0cmFuc2Zvcm09InRyYW5zbGF0ZSg4LjM5ODY4KSI+JiN4YTsJCTx0aXRsZSBpZD0idGl0bGUxODI4Ij5yZWN0MTAwMDI8L3RpdGxlPiYjeGE7CQk8cmVjdCBpZD0icmVjdDE4MzAiIHg9IjAiIHk9IjE0IiBzdHlsZT0iZmlsbDojNEQ0RDREOyIgd2lkdGg9IjUuMDYiIGhlaWdodD0iMjcuMzgiLz4mI3hhOwk8L2c+JiN4YTsJPGcgaWQ9InNoYXBlMzUzNC0zMSIgdHJhbnNmb3JtPSJ0cmFuc2xhdGUoMCwtMjMuOTgxOCkiPiYjeGE7CQk8dGl0bGUgaWQ9InRpdGxlMTgzMyI+cG9seWdvbjEwMDA0PC90aXRsZT4mI3hhOwkJPHJlY3QgaWQ9InJlY3QxODM1IiB4PSIwIiB5PSI0MC42NCIgc3R5bGU9ImZpbGw6bm9uZTsiIHdpZHRoPSI5LjE1IiBoZWlnaHQ9IjAuNzQiLz4mI3hhOwk8L2c+JiN4YTsJPGcgaWQ9InNoYXBlMzUzNS0zMyIgdHJhbnNmb3JtPSJ0cmFuc2xhdGUoMCwtMjMuOTgxOCkiPiYjeGE7CQk8dGl0bGUgaWQ9InRpdGxlMTgzOCI+cG9seWxpbmUxMDAwNjwvdGl0bGU+JiN4YTsJCTxyZWN0IGlkPSJyZWN0MTg0MCIgeD0iMCIgeT0iNDAuNjQiIHN0eWxlPSJmaWxsOm5vbmU7IiB3aWR0aD0iOS4xNSIgaGVpZ2h0PSIwLjc0Ii8+JiN4YTsJPC9nPiYjeGE7CTxnIGlkPSJzaGFwZTM1MzYtMzUiIHRyYW5zZm9ybT0idHJhbnNsYXRlKDguMTAxMDcsLTI0LjEwNjgpIj4mI3hhOwkJPHRpdGxlIGlkPSJ0aXRsZTE4NDMiPnJlY3QxMDAwODwvdGl0bGU+JiN4YTsJCTxyZWN0IGlkPSJyZWN0MTg0NSIgeD0iMCIgeT0iNDAuNzkiIHdpZHRoPSI0Ljc2IiBoZWlnaHQ9IjAuNiIvPiYjeGE7CTwvZz4mI3hhOwk8ZyBpZD0ic2hhcGUzNTM3LTM3IiB0cmFuc2Zvcm09InRyYW5zbGF0ZSgwLjM2MzA5LC0yNC4xMDY4KSI+JiN4YTsJCTx0aXRsZSBpZD0idGl0bGUxODQ4Ij5yZWN0MTAwMTA8L3RpdGxlPiYjeGE7CQk8cmVjdCBpZD0icmVjdDE4NTAiIHg9IjAiIHk9IjQwLjc5IiBzdHlsZT0iZmlsbDojMzMzMzMzOyIgd2lkdGg9IjUuMDYiIGhlaWdodD0iMC42Ii8+JiN4YTsJPC9nPiYjeGE7CTxnIGlkPSJzaGFwZTM1MzgtMzkiIHRyYW5zZm9ybT0idHJhbnNsYXRlKDUuNDIyNTQsLTI0LjEwNjgpIj4mI3hhOwkJPHRpdGxlIGlkPSJ0aXRsZTE4NTMiPnBvbHlnb24xMDAxMjwvdGl0bGU+JiN4YTsJCTxyZWN0IGlkPSJyZWN0MTg1NSIgeD0iMCIgeT0iNDAuNzkiIHN0eWxlPSJmaWxsOiNENEU4Rjg7IiB3aWR0aD0iMi45OCIgaGVpZ2h0PSIwLjYiLz4mI3hhOwk8L2c+JiN4YTs8L2c+JiN4YTs8ZyBpZD0ic2hhcGUzNTM5LTQxIiB0cmFuc2Zvcm09InRyYW5zbGF0ZSgtNC4yMjMzMzEzZS01LC0zMi40NTExNjIpIj4mI3hhOwk8dGl0bGUgaWQ9InRpdGxlMTg1OSI+cmVjdDEwMDE2PC90aXRsZT4mI3hhOwk8cmVjdCBpZD0icmVjdDE4NjEiIHg9IjAiIHk9IjQwLjc5IiBzdHlsZT0iZmlsbDojRkZGRkZGOyIgd2lkdGg9IjAuNiIgaGVpZ2h0PSIwLjYiLz4mI3hhOzwvZz4mI3hhOzxnIGlkPSJzaGFwZTM1NDAtNDMiIHRyYW5zZm9ybT0idHJhbnNsYXRlKDguMzMzMTY3OCwtMzAuNjY1NDYyKSI+JiN4YTsJPHRpdGxlIGlkPSJ0aXRsZTE4NjQiPnJlY3QxMDAxODwvdGl0bGU+JiN4YTsJPHJlY3QgaWQ9InJlY3QxODY2IiB4PSIwIiB5PSI0MC43OSIgd2lkdGg9IjQuNzYiIGhlaWdodD0iMC42Ii8+JiN4YTs8L2c+JiN4YTs8ZyBpZD0ic2hhcGUzNTQxLTQ1IiB0cmFuc2Zvcm09InRyYW5zbGF0ZSgwLjU5NTE4Njc3LC0zMC42NjU0NjIpIj4mI3hhOwk8dGl0bGUgaWQ9InRpdGxlMTg2OSI+cmVjdDEwMDIwPC90aXRsZT4mI3hhOwk8cmVjdCBpZD0icmVjdDE4NzEiIHg9IjAiIHk9IjQwLjc5IiBzdHlsZT0iZmlsbDojMzMzMzMzOyIgd2lkdGg9IjUuMDYiIGhlaWdodD0iMC42Ii8+JiN4YTs8L2c+JiN4YTs8ZyBpZD0ic2hhcGUzNTQyLTQ3IiB0cmFuc2Zvcm09InRyYW5zbGF0ZSg1LjY1NDYzNzgsLTMwLjY2NTQ2MikiPiYjeGE7CTx0aXRsZSBpZD0idGl0bGUxODc0Ij5wb2x5Z29uMTAwMjI8L3RpdGxlPiYjeGE7CTxyZWN0IGlkPSJyZWN0MTg3NiIgeD0iMCIgeT0iNDAuNzkiIHN0eWxlPSJmaWxsOiNENEU4Rjg7IiB3aWR0aD0iMi45OCIgaGVpZ2h0PSIwLjYiLz4mI3hhOzwvZz4mI3hhOzxnIGlkPSJzaGFwZTM1NDMtNDkiIHRyYW5zZm9ybT0idHJhbnNsYXRlKC00LjIyMzMzMTNlLTUsLTMwLjY2NTQ2MikiPiYjeGE7CTx0aXRsZSBpZD0idGl0bGUxODc5Ij5yZWN0MTAwMjQ8L3RpdGxlPiYjeGE7CTxyZWN0IGlkPSJyZWN0MTg4MSIgeD0iMCIgeT0iNDAuNzkiIHN0eWxlPSJmaWxsOiNGRkZGRkY7IiB3aWR0aD0iMC42IiBoZWlnaHQ9IjAuNiIvPiYjeGE7PC9nPiYjeGE7PGcgaWQ9InNoYXBlMzU0NC01MSIgdHJhbnNmb3JtPSJ0cmFuc2xhdGUoOC4zMzMxNjc4LC0yOC44Nzk3NjIpIj4mI3hhOwk8dGl0bGUgaWQ9InRpdGxlMTg4NCI+cmVjdDEwMDI2PC90aXRsZT4mI3hhOwk8cmVjdCBpZD0icmVjdDE4ODYiIHg9IjAiIHk9IjQwLjc5IiB3aWR0aD0iNC43NiIgaGVpZ2h0PSIwLjYiLz4mI3hhOzwvZz4mI3hhOzxnIGlkPSJzaGFwZTM1NDUtNTMiIHRyYW5zZm9ybT0idHJhbnNsYXRlKDAuNTk1MTg2NzcsLTI4Ljg3OTc2MikiPiYjeGE7CTx0aXRsZSBpZD0idGl0bGUxODg5Ij5yZWN0MTAwMjg8L3RpdGxlPiYjeGE7CTxyZWN0IGlkPSJyZWN0MTg5MSIgeD0iMCIgeT0iNDAuNzkiIHN0eWxlPSJmaWxsOiMzMzMzMzM7IiB3aWR0aD0iNS4wNiIgaGVpZ2h0PSIwLjYiLz4mI3hhOzwvZz4mI3hhOzxnIGlkPSJzaGFwZTM1NDYtNTUiIHRyYW5zZm9ybT0idHJhbnNsYXRlKDUuNjU0NjM3OCwtMjguODc5NzYyKSI+JiN4YTsJPHRpdGxlIGlkPSJ0aXRsZTE4OTQiPnBvbHlnb24xMDAzMDwvdGl0bGU+JiN4YTsJPHJlY3QgaWQ9InJlY3QxODk2IiB4PSIwIiB5PSI0MC43OSIgc3R5bGU9ImZpbGw6I0Q0RThGODsiIHdpZHRoPSIyLjk4IiBoZWlnaHQ9IjAuNiIvPiYjeGE7PC9nPiYjeGE7PGcgaWQ9InNoYXBlMzU0Ny01NyIgdHJhbnNmb3JtPSJ0cmFuc2xhdGUoLTQuMjIzMzMxM2UtNSwtMjguODc5NzYyKSI+JiN4YTsJPHRpdGxlIGlkPSJ0aXRsZTE4OTkiPnJlY3QxMDAzMjwvdGl0bGU+JiN4YTsJPHJlY3QgaWQ9InJlY3QxOTAxIiB4PSIwIiB5PSI0MC43OSIgc3R5bGU9ImZpbGw6I0ZGRkZGRjsiIHdpZHRoPSIwLjYiIGhlaWdodD0iMC42Ii8+JiN4YTs8L2c+JiN4YTs8ZyBpZD0ic2hhcGUzNTQ4LTU5IiB0cmFuc2Zvcm09InRyYW5zbGF0ZSgtNC4yMjMzMzEzZS01LC0yNy4wOTQwNjIpIj4mI3hhOwk8dGl0bGUgaWQ9InRpdGxlMTkwNCI+cmVjdDEwMDM0PC90aXRsZT4mI3hhOwk8cmVjdCBpZD0icmVjdDE5MDYiIHg9IjAiIHk9IjQwLjc5IiBzdHlsZT0iZmlsbDojRkZGRkZGOyIgd2lkdGg9IjAuNiIgaGVpZ2h0PSIwLjYiLz4mI3hhOzwvZz4mI3hhOzxnIGlkPSJzaGFwZTM1NDktNjEiIHRyYW5zZm9ybT0idHJhbnNsYXRlKC00LjIyMzMzMTNlLTUsLTI1LjMwODM2MikiPiYjeGE7CTx0aXRsZSBpZD0idGl0bGUxOTA5Ij5yZWN0MTAwMzY8L3RpdGxlPiYjeGE7CTxyZWN0IGlkPSJyZWN0MTkxMSIgeD0iMCIgeT0iNDAuNzkiIHN0eWxlPSJmaWxsOiNGRkZGRkY7IiB3aWR0aD0iMC42IiBoZWlnaHQ9IjAuNiIvPiYjeGE7PC9nPiYjeGE7PC9zdmc+;" parent="4rNJ4vwEb-hpk1fD-wyn-17" vertex="1">
          <mxGeometry x="199.63" y="780" width="135.76" height="80" as="geometry" />
        </mxCell>
        <mxCell id="acgDZ-SoyNHMQ0wOxpw4-16" value="" style="shape=image;verticalLabelPosition=bottom;labelBackgroundColor=#ffffff;verticalAlign=top;aspect=fixed;imageAspect=0;image=data:image/svg+xml,PHN2ZyB4bWxuczpjYz0iaHR0cDovL2NyZWF0aXZlY29tbW9ucy5vcmcvbnMjIiB4bWxuczpkYz0iaHR0cDovL3B1cmwub3JnL2RjL2VsZW1lbnRzLzEuMS8iIHhtbG5zOmlua3NjYXBlPSJodHRwOi8vd3d3Lmlua3NjYXBlLm9yZy9uYW1lc3BhY2VzL2lua3NjYXBlIiB4bWxuczpyZGY9Imh0dHA6Ly93d3cudzMub3JnLzE5OTkvMDIvMjItcmRmLXN5bnRheC1ucyMiIHhtbG5zOnNvZGlwb2RpPSJodHRwOi8vc29kaXBvZGkuc291cmNlZm9yZ2UubmV0L0RURC9zb2RpcG9kaS0wLmR0ZCIgeG1sbnM6c3ZnPSJodHRwOi8vd3d3LnczLm9yZy8yMDAwL3N2ZyIgeG1sbnM9Imh0dHA6Ly93d3cudzMub3JnLzIwMDAvc3ZnIiB4bWxuczp4bGluaz0iaHR0cDovL3d3dy53My5vcmcvMTk5OS94bGluayIgdmVyc2lvbj0iMS4xIiBpZD0ic3ZnMzQ4NiIgaW5rc2NhcGU6dmVyc2lvbj0iMC45Mi4zICgyNDA1NTQ2LCAyMDE4LTAzLTExKSIgc29kaXBvZGk6ZG9jbmFtZT0iZGV2aWNlX2lwYWQuc3ZnIiB4PSIwcHgiIHk9IjBweCIgdmlld0JveD0iMCAwIDU5LjMxIDQxLjIyIiBzdHlsZT0iZW5hYmxlLWJhY2tncm91bmQ6bmV3IDAgMCA1OS4zMSA0MS4yMjsiIHhtbDpzcGFjZT0icHJlc2VydmUiPiYjeGE7PHNvZGlwb2RpOm5hbWVkdmlldyBib3JkZXJjb2xvcj0iIzY2NjY2NiIgYm9yZGVyb3BhY2l0eT0iMSIgZml0LW1hcmdpbi1ib3R0b209IjAiIGZpdC1tYXJnaW4tbGVmdD0iMCIgZml0LW1hcmdpbi1yaWdodD0iMCIgZml0LW1hcmdpbi10b3A9IjAiIGdyaWR0b2xlcmFuY2U9IjEwIiBndWlkZXRvbGVyYW5jZT0iMTAiIGlkPSJuYW1lZHZpZXczNDg4IiBpbmtzY2FwZTpjdXJyZW50LWxheWVyPSJzdmczNDg2IiBpbmtzY2FwZTpjeD0iMzkuNTM4MzE5IiBpbmtzY2FwZTpjeT0iMjcuNDc5MzkiIGlua3NjYXBlOnBhZ2VvcGFjaXR5PSIwIiBpbmtzY2FwZTpwYWdlc2hhZG93PSIyIiBpbmtzY2FwZTp3aW5kb3ctaGVpZ2h0PSIxMDE3IiBpbmtzY2FwZTp3aW5kb3ctbWF4aW1pemVkPSIxIiBpbmtzY2FwZTp3aW5kb3ctd2lkdGg9IjE5MjAiIGlua3NjYXBlOndpbmRvdy14PSItOCIgaW5rc2NhcGU6d2luZG93LXk9Ii04IiBpbmtzY2FwZTp6b29tPSIxNS43NzQ3NTEiIG9iamVjdHRvbGVyYW5jZT0iMTAiIHBhZ2Vjb2xvcj0iI2ZmZmZmZiIgc2hvd2dyaWQ9ImZhbHNlIj4mI3hhOwk8L3NvZGlwb2RpOm5hbWVkdmlldz4mI3hhOzxnIGlkPSJnMzQ4NCIgdHJhbnNmb3JtPSJ0cmFuc2xhdGUoMCwtMi41MDk2MzU2ZS01KSI+JiN4YTsJPHRpdGxlIGlkPSJ0aXRsZTM0NTkiPlBhZ2UtMTwvdGl0bGU+JiN4YTsJPGcgaWQ9Imdyb3VwMzIyNi0xIj4mI3hhOwkJPHRpdGxlIGlkPSJ0aXRsZTM0NjEiPkRldmljZTogaVBhZDwvdGl0bGU+JiN4YTsJCTxnIGlkPSJzaGFwZTMyMjctMiI+JiN4YTsJCQk8dGl0bGUgaWQ9InRpdGxlMzQ2MyI+U2hlZXQuMzIyNzwvdGl0bGU+JiN4YTsJCQk8cGF0aCBpZD0icGF0aDM0NjUiIGlua3NjYXBlOmNvbm5lY3Rvci1jdXJ2YXR1cmU9IjAiIHN0eWxlPSJmaWxsOiMzRjU3NjU7IiBkPSJNNTYuNDYsMEMyLjkxLDAsMi45MSwwLDIuOTEsMCAgICAgQzEuMzEsMCwwLDEuMywwLDIuOTFjMCwzNS40NiwwLDM1LjQ2LDAsMzUuNDZjMCwxLjU2LDEuMzEsMi44NSwyLjkxLDIuODVjNTMuNTUsMCw1My41NSwwLDUzLjU1LDBjMS41NSwwLDIuODUtMS4yOSwyLjg1LTIuODUgICAgIGMwLTM1LjQ2LDAtMzUuNDYsMC0zNS40NkM1OS4zMSwxLjMsNTguMDEsMCw1Ni40NiwweiBNMjkuNjUsMWMwLjM4LDAsMC42OSwwLjMsMC42OSwwLjYxYzAsMC4zNy0wLjMxLDAuNjgtMC42OSwwLjY4ICAgICBjLTAuMywwLTAuNjctMC4zMS0wLjY3LTAuNjhDMjguOTgsMS4zLDI5LjM1LDEsMjkuNjUsMXogTTI5LjY1LDQwLjExYy0wLjc0LDAtMS4yOS0wLjU2LTEuMjktMS4zYzAtMC42OCwwLjU1LTEuMywxLjI5LTEuMyAgICAgYzAuNzUsMCwxLjMxLDAuNjIsMS4zMSwxLjNDMzAuOTYsMzkuNTUsMzAuNCw0MC4xMSwyOS42NSw0MC4xMXogTTU2LjAzLDM2Ljc2Yy01Mi43NCwwLTUyLjc0LDAtNTIuNzQsMGMwLTMzLjQ4LDAtMzMuNDgsMC0zMy40OCAgICAgYzUyLjc0LDAsNTIuNzQsMCw1Mi43NCwwVjM2Ljc2eiIvPiYjeGE7CQk8L2c+JiN4YTsJCTxnIGlkPSJzaGFwZTMyMjgtNCIgdHJhbnNmb3JtPSJ0cmFuc2xhdGUoMi4xNjEsLTQuNDMzNjQpIj4mI3hhOwkJCTx0aXRsZSBpZD0idGl0bGUzNDY4Ij5TaGVldC4zMjI4PC90aXRsZT4mI3hhOwkJCTxwYXRoIGlkPSJwYXRoMzQ3MCIgaW5rc2NhcGU6Y29ubmVjdG9yLWN1cnZhdHVyZT0iMCIgc3R5bGU9ImZpbGw6IzhEOUZCMDsiIGQ9Ik0wLDguNDdjMC0wLjY0LDAuNTMtMS4xNiwxLjE2LTEuMTZoNTIuNjcgICAgIGMwLjY0LDAsMS4xNiwwLjUyLDEuMTYsMS4xNnYzMS42YzAsMC42My0wLjUyLDEuMTUtMS4xNiwxLjE1SDEuMTZDMC41Myw0MS4yMiwwLDQwLjcsMCw0MC4wN1Y4LjQ3eiIvPiYjeGE7CQk8L2c+JiN4YTsJCTxnIGlkPSJzaGFwZTMyMjktNiIgdHJhbnNmb3JtPSJ0cmFuc2xhdGUoMjMuNjg1NSwtMTQuMzc5NCkiPiYjeGE7CQkJPHRpdGxlIGlkPSJ0aXRsZTM0NzMiPlNoZWV0LjMyMjk8L3RpdGxlPiYjeGE7CQkJPHBhdGggaWQ9InBhdGgzNDc1IiBpbmtzY2FwZTpjb25uZWN0b3ItY3VydmF0dXJlPSIwIiBzdHlsZT0iZmlsbDojRkZGRkZGOyIgZD0iTTEyLjMzLDM3LjM5Yy0wLjM0LDAuNzMtMC41MSwxLjA3LTAuOTQsMS43MyAgICAgYy0wLjYsMC45NC0xLjQ2LDIuMDYtMi41LDIuMWMtMC45NCwwLTEuMi0wLjY0LTIuNDUtMC42Yy0xLjI4LDAtMS41NCwwLjYtMi40OSwwLjZjLTEuMDctMC4wNC0xLjg1LTEuMDctMi40NS0xLjk4ICAgICBjLTEuNzItMi41OC0xLjg5LTUuNi0wLjg2LTcuMjNjMC43Ny0xLjEyLDEuOTQtMS44MSwzLjAxLTEuODFjMS4xMiwwLDEuODUsMC42NSwyLjc1LDAuNjVzMS40Ny0wLjY1LDIuNzUtMC42NSAgICAgYzAuOTksMCwyLjAzLDAuNTYsMi43NSwxLjQ2QzkuNDksMzMsOS44OSwzNi40NCwxMi4zMywzNy4zOXoiLz4mI3hhOwkJPC9nPiYjeGE7CQk8ZyBpZD0ic2hhcGUzMjMwLTgiIHRyYW5zZm9ybT0idHJhbnNsYXRlKDI5LjU1MSwtMjUuMjgzOCkiPiYjeGE7CQkJPHRpdGxlIGlkPSJ0aXRsZTM0NzgiPlNoZWV0LjMyMzA8L3RpdGxlPiYjeGE7CQkJPHBhdGggaWQ9InBhdGgzNDgwIiBpbmtzY2FwZTpjb25uZWN0b3ItY3VydmF0dXJlPSIwIiBzdHlsZT0iZmlsbDojRkZGRkZGOyIgZD0iTTIuMjgsNDAuMDdjMC40OC0wLjYsMC44Mi0xLjQyLDAuNy0yLjMyICAgICBjLTAuNzUsMC4wOS0xLjY3LDAuNTYtMi4yNCwxLjJjLTAuNDgsMC41Ni0wLjg4LDEuNDItMC43LDIuMjdDMC44OCw0MS4yMiwxLjc5LDQwLjc1LDIuMjgsNDAuMDd6Ii8+JiN4YTsJCTwvZz4mI3hhOwk8L2c+JiN4YTs8L2c+JiN4YTs8L3N2Zz4=;" parent="4rNJ4vwEb-hpk1fD-wyn-17" vertex="1">
          <mxGeometry x="129.63" y="900" width="100.73" height="70" as="geometry" />
        </mxCell>
        <mxCell id="acgDZ-SoyNHMQ0wOxpw4-17" value="" style="shape=image;verticalLabelPosition=bottom;labelBackgroundColor=#ffffff;verticalAlign=top;aspect=fixed;imageAspect=0;image=data:image/svg+xml,PHN2ZyB4bWxuczpjYz0iaHR0cDovL2NyZWF0aXZlY29tbW9ucy5vcmcvbnMjIiB4bWxuczpkYz0iaHR0cDovL3B1cmwub3JnL2RjL2VsZW1lbnRzLzEuMS8iIHhtbG5zOmlua3NjYXBlPSJodHRwOi8vd3d3Lmlua3NjYXBlLm9yZy9uYW1lc3BhY2VzL2lua3NjYXBlIiB4bWxuczpyZGY9Imh0dHA6Ly93d3cudzMub3JnLzE5OTkvMDIvMjItcmRmLXN5bnRheC1ucyMiIHhtbG5zOnNvZGlwb2RpPSJodHRwOi8vc29kaXBvZGkuc291cmNlZm9yZ2UubmV0L0RURC9zb2RpcG9kaS0wLmR0ZCIgeG1sbnM6c3ZnPSJodHRwOi8vd3d3LnczLm9yZy8yMDAwL3N2ZyIgeG1sbnM9Imh0dHA6Ly93d3cudzMub3JnLzIwMDAvc3ZnIiB4bWxuczp4bGluaz0iaHR0cDovL3d3dy53My5vcmcvMTk5OS94bGluayIgdmVyc2lvbj0iMS4xIiBpZD0ic3ZnMTA5NDgiIGlua3NjYXBlOnZlcnNpb249IjAuOTIuMyAoMjQwNTU0NiwgMjAxOC0wMy0xMSkiIHNvZGlwb2RpOmRvY25hbWU9ImxhcHRvcC5zdmciIHg9IjBweCIgeT0iMHB4IiB2aWV3Qm94PSIwIDAgODEuNzUgNTYuMjYiIHN0eWxlPSJlbmFibGUtYmFja2dyb3VuZDpuZXcgMCAwIDgxLjc1IDU2LjI2OyIgeG1sOnNwYWNlPSJwcmVzZXJ2ZSI+JiN4YTs8c29kaXBvZGk6bmFtZWR2aWV3IGJvcmRlcmNvbG9yPSIjNjY2NjY2IiBib3JkZXJvcGFjaXR5PSIxIiBmaXQtbWFyZ2luLWJvdHRvbT0iMCIgZml0LW1hcmdpbi1sZWZ0PSIwIiBmaXQtbWFyZ2luLXJpZ2h0PSIwIiBmaXQtbWFyZ2luLXRvcD0iMCIgZ3JpZHRvbGVyYW5jZT0iMTAiIGd1aWRldG9sZXJhbmNlPSIxMCIgaWQ9Im5hbWVkdmlldzEwOTUwIiBpbmtzY2FwZTpjdXJyZW50LWxheWVyPSJzdmcxMDk0OCIgaW5rc2NhcGU6Y3g9IjU0LjUiIGlua3NjYXBlOmN5PSIzNy41MDcwMzkiIGlua3NjYXBlOnBhZ2VvcGFjaXR5PSIwIiBpbmtzY2FwZTpwYWdlc2hhZG93PSIyIiBpbmtzY2FwZTp3aW5kb3ctaGVpZ2h0PSIxMDE3IiBpbmtzY2FwZTp3aW5kb3ctbWF4aW1pemVkPSIxIiBpbmtzY2FwZTp3aW5kb3ctd2lkdGg9IjE5MjAiIGlua3NjYXBlOndpbmRvdy14PSItOCIgaW5rc2NhcGU6d2luZG93LXk9Ii04IiBpbmtzY2FwZTp6b29tPSIxMS4yNTgwNDYiIG9iamVjdHRvbGVyYW5jZT0iMTAiIHBhZ2Vjb2xvcj0iI2ZmZmZmZiIgc2hvd2dyaWQ9ImZhbHNlIj4mI3hhOwk8L3NvZGlwb2RpOm5hbWVkdmlldz4mI3hhOzxnIGlkPSJnMTA5NDYiIHRyYW5zZm9ybT0idHJhbnNsYXRlKC0wLjc1LC0wLjc1MTMyMSkiPiYjeGE7CTx0aXRsZSBpZD0idGl0bGUxMDkxNiI+UGFnZS0xPC90aXRsZT4mI3hhOwk8ZyBpZD0iZ3JvdXAzNjE4LTEiIHRyYW5zZm9ybT0idHJhbnNsYXRlKDAuNzUsLTAuNzU4Njc5KSI+JiN4YTsJCTx0aXRsZSBpZD0idGl0bGUxMDkxOCI+TGFwdG9wPC90aXRsZT4mI3hhOwkJPGcgaWQ9InNoYXBlMzYxOS0yIiB0cmFuc2Zvcm09InRyYW5zbGF0ZSg2Ljc1LC00LjUpIj4mI3hhOwkJCTx0aXRsZSBpZD0idGl0bGUxMDkyMCI+cmVjdDE0OTc8L3RpdGxlPiYjeGE7CQkJJiN4YTsJCQkJPHBhdGggaWQ9InBhdGgxMDkyMiIgaW5rc2NhcGU6Y29ubmVjdG9yLWN1cnZhdHVyZT0iMCIgc3R5bGU9ImZpbGw6I0ZDRkNGQztzdHJva2U6IzU1NkE4QTtzdHJva2Utd2lkdGg6MS41O3N0cm9rZS1taXRlcmxpbWl0OjM7IiBkPSIgICAgIE0wLDU0Ljc2YzAsMS42NiwxLjM0LDMsMywzaDYzYzEuNjYsMCwzLTEuMzQsMy0zdi00NWMwLTEuNjYtMS4zNC0zLTMtM0gzYy0xLjY2LDAtMywxLjM0LTMsM1Y1NC43NnoiLz4mI3hhOwkJPC9nPiYjeGE7CQk8ZyBpZD0ic2hhcGUzNjIwLTQiPiYjeGE7CQkJPHRpdGxlIGlkPSJ0aXRsZTEwOTI1Ij5wYXRoMTQ5OTwvdGl0bGU+JiN4YTsJCQk8cGF0aCBpZD0icGF0aDEwOTI3IiBpbmtzY2FwZTpjb25uZWN0b3ItY3VydmF0dXJlPSIwIiBzdHlsZT0iZmlsbDojNDE0MDQyOyIgZD0iTTc4Ljc1LDU3Ljc2SDMuMTMgICAgIEMxLjY4LDU3Ljg3LDAuMzYsNTYuOTIsMCw1NS41MWg4MS43NUM4MS43NSw1NS41MSw4MC44NCw1Ny43Niw3OC43NSw1Ny43NnoiLz4mI3hhOwkJPC9nPiYjeGE7CQk8ZyBpZD0ic2hhcGUzNjIxLTYiIHRyYW5zZm9ybT0idHJhbnNsYXRlKDAuMDc1LC0yLjI1KSI+JiN4YTsJCQk8dGl0bGUgaWQ9InRpdGxlMTA5MzAiPnBvbHlnb24xNTAxPC90aXRsZT4mI3hhOwkJCTxwYXRoIGlkPSJwYXRoMTA5MzIiIGlua3NjYXBlOmNvbm5lY3Rvci1jdXJ2YXR1cmU9IjAiIHN0eWxlPSJmaWxsOiM1NTZBOEE7IiBkPSJNNzYuNDIsNTQuMDFsNS4yNSwzLjc1SDBsNS45NC0zLjc1SDc2LjQyeiIvPiYjeGE7CQk8L2c+JiN4YTsJCTxnIGlkPSJzaGFwZTM2MjItOCIgdHJhbnNmb3JtPSJ0cmFuc2xhdGUoMywtMi4yNSkiPiYjeGE7CQkJPHRpdGxlIGlkPSJ0aXRsZTEwOTM1Ij5wb2x5Z29uMTUwMzwvdGl0bGU+JiN4YTsJCQk8cGF0aCBpZD0icGF0aDEwOTM3IiBpbmtzY2FwZTpjb25uZWN0b3ItY3VydmF0dXJlPSIwIiBzdHlsZT0iZmlsbDojRTRFREYxOyIgZD0iTTczLjAyLDU1LjUxbDIuNzMsMi4yNUgwbDMuNDUtMi4yNUg3My4wMnoiLz4mI3hhOwkJPC9nPiYjeGE7CQk8ZyBpZD0ic2hhcGUzNjIzLTEwIiB0cmFuc2Zvcm09InRyYW5zbGF0ZSgxMS4yNSwtMTAuNSkiPiYjeGE7CQkJPHRpdGxlIGlkPSJ0aXRsZTEwOTQwIj5yZWN0MTUwNTwvdGl0bGU+JiN4YTsJCQk8cmVjdCBpZD0icmVjdDEwOTQyIiB5PSIxOC4wMSIgc3R5bGU9ImZpbGw6IzJCQzdGNDsiIHdpZHRoPSI2MCIgaGVpZ2h0PSIzOS43NSIvPiYjeGE7CQk8L2c+JiN4YTsJPC9nPiYjeGE7PC9nPiYjeGE7PC9zdmc+;" parent="4rNJ4vwEb-hpk1fD-wyn-17" vertex="1">
          <mxGeometry x="239.63" y="890" width="131.79" height="90" as="geometry" />
        </mxCell>
        <mxCell id="4rNJ4vwEb-hpk1fD-wyn-30" value="" style="group" parent="1" vertex="1" connectable="0">
          <mxGeometry x="710" y="1380" width="360" height="1060" as="geometry" />
        </mxCell>
        <mxCell id="W28Hg_RXF8OLAKR3yMh1-1" value="" style="rounded=0;whiteSpace=wrap;html=1;fillColor=#f8cecc;strokeColor=#b85450;" parent="4rNJ4vwEb-hpk1fD-wyn-30" vertex="1">
          <mxGeometry width="360" height="1060" as="geometry" />
        </mxCell>
        <mxCell id="W28Hg_RXF8OLAKR3yMh1-3" value="&lt;font style=&quot;font-size: 26px;&quot;&gt;AWS Amplify&lt;/font&gt;" style="text;html=1;strokeColor=none;fillColor=none;align=center;verticalAlign=middle;whiteSpace=wrap;rounded=0;" parent="4rNJ4vwEb-hpk1fD-wyn-30" vertex="1">
          <mxGeometry x="100" y="530" width="160" height="60" as="geometry" />
        </mxCell>
        <mxCell id="W28Hg_RXF8OLAKR3yMh1-4" value="" style="shape=image;verticalLabelPosition=bottom;labelBackgroundColor=#ffffff;verticalAlign=top;aspect=fixed;imageAspect=0;image=data:image/svg+xml,PHN2ZyB4bWxuczpjYz0iaHR0cDovL2NyZWF0aXZlY29tbW9ucy5vcmcvbnMjIiB4bWxuczpkYz0iaHR0cDovL3B1cmwub3JnL2RjL2VsZW1lbnRzLzEuMS8iIHhtbG5zOmlua3NjYXBlPSJodHRwOi8vd3d3Lmlua3NjYXBlLm9yZy9uYW1lc3BhY2VzL2lua3NjYXBlIiB4bWxuczpyZGY9Imh0dHA6Ly93d3cudzMub3JnLzE5OTkvMDIvMjItcmRmLXN5bnRheC1ucyMiIHhtbG5zOnNvZGlwb2RpPSJodHRwOi8vc29kaXBvZGkuc291cmNlZm9yZ2UubmV0L0RURC9zb2RpcG9kaS0wLmR0ZCIgeG1sbnM6c3ZnPSJodHRwOi8vd3d3LnczLm9yZy8yMDAwL3N2ZyIgeG1sbnM9Imh0dHA6Ly93d3cudzMub3JnLzIwMDAvc3ZnIiB4bWxuczp4bGluaz0iaHR0cDovL3d3dy53My5vcmcvMTk5OS94bGluayIgdmVyc2lvbj0iMS4xIiBpZD0ic3ZnMTc1NjcxIiBpbmtzY2FwZTp2ZXJzaW9uPSIwLjkyLjMgKDI0MDU1NDYsIDIwMTgtMDMtMTEpIiBzb2RpcG9kaTpkb2NuYW1lPSJnaXRodWIuc3ZnIiB4PSIwcHgiIHk9IjBweCIgdmlld0JveD0iMCAwIDQ1LjI3IDQ1LjI5IiBzdHlsZT0iZW5hYmxlLWJhY2tncm91bmQ6bmV3IDAgMCA0NS4yNyA0NS4yOTsiIHhtbDpzcGFjZT0icHJlc2VydmUiPiYjeGE7PHNvZGlwb2RpOm5hbWVkdmlldyBib3JkZXJjb2xvcj0iIzY2NjY2NiIgYm9yZGVyb3BhY2l0eT0iMSIgZml0LW1hcmdpbi1ib3R0b209IjAiIGZpdC1tYXJnaW4tbGVmdD0iMCIgZml0LW1hcmdpbi1yaWdodD0iMCIgZml0LW1hcmdpbi10b3A9IjAiIGdyaWR0b2xlcmFuY2U9IjEwIiBndWlkZXRvbGVyYW5jZT0iMTAiIGlkPSJuYW1lZHZpZXcxNzU2NzMiIGlua3NjYXBlOmN1cnJlbnQtbGF5ZXI9InN2ZzE3NTY3MSIgaW5rc2NhcGU6Y3g9IjMwLjE3ODAyNSIgaW5rc2NhcGU6Y3k9IjMwLjE5NDMxOSIgaW5rc2NhcGU6cGFnZW9wYWNpdHk9IjAiIGlua3NjYXBlOnBhZ2VzaGFkb3c9IjIiIGlua3NjYXBlOndpbmRvdy1oZWlnaHQ9IjEwMTciIGlua3NjYXBlOndpbmRvdy1tYXhpbWl6ZWQ9IjEiIGlua3NjYXBlOndpbmRvdy13aWR0aD0iMTkyMCIgaW5rc2NhcGU6d2luZG93LXg9Ii04IiBpbmtzY2FwZTp3aW5kb3cteT0iLTgiIGlua3NjYXBlOnpvb209IjEwLjA5NTE1OCIgb2JqZWN0dG9sZXJhbmNlPSIxMCIgcGFnZWNvbG9yPSIjZmZmZmZmIiBzaG93Z3JpZD0iZmFsc2UiPiYjeGE7CTwvc29kaXBvZGk6bmFtZWR2aWV3PiYjeGE7PGcgaWQ9ImcxNzU2NjkiIHRyYW5zZm9ybT0idHJhbnNsYXRlKC05LjU2MjU0MTcsLTkuNTYxMzEpIj4mI3hhOwk8dGl0bGUgaWQ9InRpdGxlMTc1NjU5Ij5QYWdlLTE8L3RpdGxlPiYjeGE7CTxnIGlkPSJncm91cDIyNTAtMSIgdHJhbnNmb3JtPSJ0cmFuc2xhdGUoOS41NjMwOCwtOS4zNzg2OSkiPiYjeGE7CQk8dGl0bGUgaWQ9InRpdGxlMTc1NjYxIj5HaXRIdWI8L3RpdGxlPiYjeGE7CQk8ZyBpZD0ic2hhcGUyMjUxLTIiPiYjeGE7CQkJPHRpdGxlIGlkPSJ0aXRsZTE3NTY2MyI+U2hlZXQuMjI1MTwvdGl0bGU+JiN4YTsJCQk8cGF0aCBpZD0icGF0aDE3NTY2NSIgaW5rc2NhcGU6Y29ubmVjdG9yLWN1cnZhdHVyZT0iMCIgZD0iTTIyLjYzLDE4Ljk0QzEwLjE0LDE4Ljk0LDAsMjkuMzMsMCw0Mi4xNSAgICAgYy0wLjA3LDkuODksNi4xNSwxOC43MywxNS40OCwyMi4wMWMxLjEzLDAuMjIsMS41NC0wLjUsMS41NC0xLjExYzAtMC42MiwwLTIuMDEsMC0zLjk1Yy02LjI5LDEuNDEtNy42Mi0zLjExLTcuNjItMy4xMSAgICAgYy0xLjAzLTIuNjgtMi41MS0zLjQtMi41MS0zLjRjLTIuMDYtMS40MSwwLjE1LTEuNDEsMC4xNS0xLjQxYzIuMjcsMC4xNiwzLjQ3LDIuMzksMy40NywyLjM5YzIuMDIsMy41NCw1LjMsMi41Miw2LjU4LDEuOTMgICAgIGMwLjEtMS4xNywwLjYtMi4yNiwxLjQyLTMuMUMxMy40OCw1MS44MSw4LjIsNDkuODIsOC4yLDQwLjkyYy0wLjA0LTIuMjksMC43OS00LjUxLDIuMzItNi4yMmMtMC42OS0yLTAuNjEtNC4xOSwwLjIyLTYuMTQgICAgIGMwLDAsMS45MS0wLjYyLDYuMjMsMi40YzMuNy0xLjA0LDcuNjItMS4wNCwxMS4zMiwwYzQuMzItMyw2LjIyLTIuMzcsNi4yMi0yLjM3YzAuODMsMS45NSwwLjkxLDQuMTQsMC4yMiw2LjE0ICAgICBjMS41MywxLjcsMi4zNywzLjkzLDIuMzMsNi4yMmMwLDguOTEtNS4yOSwxMC44OC0xMC4zMywxMS40NWMwLjgxLDAuNzEsMS41MywyLjEyLDEuNTMsNC4zYzAsMy4xMSwwLDUuNjEsMCw2LjM3ICAgICBjMCwwLjYyLDAuNDEsMS4zNCwxLjU2LDEuMTJjOS4zMy0zLjMsMTUuNTMtMTIuMTUsMTUuNDUtMjIuMDRDNDUuMjcsMjkuMzMsMzUuMTMsMTguOTQsMjIuNjMsMTguOTR6Ii8+JiN4YTsJCTwvZz4mI3hhOwk8L2c+JiN4YTs8L2c+JiN4YTs8L3N2Zz4=;" parent="4rNJ4vwEb-hpk1fD-wyn-30" vertex="1">
          <mxGeometry x="140" y="210" width="80" height="80" as="geometry" />
        </mxCell>
        <mxCell id="W28Hg_RXF8OLAKR3yMh1-5" value="" style="endArrow=classic;html=1;rounded=0;entryX=0.492;entryY=0.094;entryDx=0;entryDy=0;entryPerimeter=0;strokeWidth=8;" parent="4rNJ4vwEb-hpk1fD-wyn-30" edge="1">
          <mxGeometry width="50" height="50" relative="1" as="geometry">
            <mxPoint x="179.17000000000007" y="590" as="sourcePoint" />
            <mxPoint x="179.17000000000007" y="685" as="targetPoint" />
          </mxGeometry>
        </mxCell>
        <mxCell id="W28Hg_RXF8OLAKR3yMh1-8" value="&lt;font style=&quot;font-size: 30px;&quot;&gt;Frontend catalogo&lt;/font&gt;" style="text;html=1;strokeColor=none;fillColor=none;align=center;verticalAlign=middle;whiteSpace=wrap;rounded=0;" parent="4rNJ4vwEb-hpk1fD-wyn-30" vertex="1">
          <mxGeometry x="98.84000000000003" y="10" width="162.31" height="80" as="geometry" />
        </mxCell>
        <mxCell id="W28Hg_RXF8OLAKR3yMh1-9" value="" style="endArrow=classic;html=1;rounded=0;entryX=0.492;entryY=0.094;entryDx=0;entryDy=0;entryPerimeter=0;strokeWidth=8;" parent="4rNJ4vwEb-hpk1fD-wyn-30" edge="1">
          <mxGeometry width="50" height="50" relative="1" as="geometry">
            <mxPoint x="179.09000000000015" y="307" as="sourcePoint" />
            <mxPoint x="179.09000000000015" y="402" as="targetPoint" />
          </mxGeometry>
        </mxCell>
        <mxCell id="4rNJ4vwEb-hpk1fD-wyn-20" value="" style="group" parent="4rNJ4vwEb-hpk1fD-wyn-30" vertex="1" connectable="0">
          <mxGeometry x="35" y="690" width="290" height="210" as="geometry" />
        </mxCell>
        <mxCell id="W28Hg_RXF8OLAKR3yMh1-6" value="" style="rounded=0;whiteSpace=wrap;html=1;" parent="4rNJ4vwEb-hpk1fD-wyn-20" vertex="1">
          <mxGeometry width="290" height="210" as="geometry" />
        </mxCell>
        <mxCell id="W28Hg_RXF8OLAKR3yMh1-7" value="&lt;font style=&quot;font-size: 26px;&quot;&gt;HTML, CSS, Typescript&lt;br&gt;&lt;/font&gt;" style="text;html=1;strokeColor=none;fillColor=none;align=center;verticalAlign=middle;whiteSpace=wrap;rounded=0;" parent="4rNJ4vwEb-hpk1fD-wyn-20" vertex="1">
          <mxGeometry x="12.5" y="90" width="265" height="100" as="geometry" />
        </mxCell>
        <mxCell id="4rNJ4vwEb-hpk1fD-wyn-19" value="" style="shape=image;verticalLabelPosition=bottom;labelBackgroundColor=#ffffff;verticalAlign=top;aspect=fixed;imageAspect=0;image=data:image/svg+xml,PHN2ZyB4bWxuczpjYz0iaHR0cDovL2NyZWF0aXZlY29tbW9ucy5vcmcvbnMjIiB4bWxuczpkYz0iaHR0cDovL3B1cmwub3JnL2RjL2VsZW1lbnRzLzEuMS8iIHhtbG5zOmlua3NjYXBlPSJodHRwOi8vd3d3Lmlua3NjYXBlLm9yZy9uYW1lc3BhY2VzL2lua3NjYXBlIiB4bWxuczpyZGY9Imh0dHA6Ly93d3cudzMub3JnLzE5OTkvMDIvMjItcmRmLXN5bnRheC1ucyMiIHhtbG5zOnNvZGlwb2RpPSJodHRwOi8vc29kaXBvZGkuc291cmNlZm9yZ2UubmV0L0RURC9zb2RpcG9kaS0wLmR0ZCIgeG1sbnM6c3ZnPSJodHRwOi8vd3d3LnczLm9yZy8yMDAwL3N2ZyIgeG1sbnM9Imh0dHA6Ly93d3cudzMub3JnLzIwMDAvc3ZnIiB4bWxuczp4bGluaz0iaHR0cDovL3d3dy53My5vcmcvMTk5OS94bGluayIgdmVyc2lvbj0iMS4xIiBpZD0ic3ZnMTE0OTA2IiBpbmtzY2FwZTp2ZXJzaW9uPSIwLjkyLjMgKDI0MDU1NDYsIDIwMTgtMDMtMTEpIiBzb2RpcG9kaTpkb2NuYW1lPSJhbmd1bGFyLnN2ZyIgeD0iMHB4IiB5PSIwcHgiIHZpZXdCb3g9IjAgMCA1Ni44MiAxNS4zOSIgc3R5bGU9ImVuYWJsZS1iYWNrZ3JvdW5kOm5ldyAwIDAgNTYuODIgMTUuMzk7IiB4bWw6c3BhY2U9InByZXNlcnZlIj4mI3hhOzxzb2RpcG9kaTpuYW1lZHZpZXcgYm9yZGVyY29sb3I9IiM2NjY2NjYiIGJvcmRlcm9wYWNpdHk9IjEiIGZpdC1tYXJnaW4tYm90dG9tPSIwIiBmaXQtbWFyZ2luLWxlZnQ9IjAiIGZpdC1tYXJnaW4tcmlnaHQ9IjAiIGZpdC1tYXJnaW4tdG9wPSIwIiBncmlkdG9sZXJhbmNlPSIxMCIgZ3VpZGV0b2xlcmFuY2U9IjEwIiBpZD0ibmFtZWR2aWV3MTE0OTA4IiBpbmtzY2FwZTpjdXJyZW50LWxheWVyPSJzdmcxMTQ5MDYiIGlua3NjYXBlOmN4PSIzNy44ODExNTgiIGlua3NjYXBlOmN5PSIxMC4yNTk4NDYiIGlua3NjYXBlOnBhZ2VvcGFjaXR5PSIwIiBpbmtzY2FwZTpwYWdlc2hhZG93PSIyIiBpbmtzY2FwZTp3aW5kb3ctaGVpZ2h0PSIxMDE3IiBpbmtzY2FwZTp3aW5kb3ctbWF4aW1pemVkPSIxIiBpbmtzY2FwZTp3aW5kb3ctd2lkdGg9IjE5MjAiIGlua3NjYXBlOndpbmRvdy14PSItOCIgaW5rc2NhcGU6d2luZG93LXk9Ii04IiBpbmtzY2FwZTp6b29tPSIyMC44MzUyOTgiIG9iamVjdHRvbGVyYW5jZT0iMTAiIHBhZ2Vjb2xvcj0iI2ZmZmZmZiIgc2hvd2dyaWQ9ImZhbHNlIj4mI3hhOwk8L3NvZGlwb2RpOm5hbWVkdmlldz4mI3hhOzxnIGlkPSJnMTE0OTA0IiB0cmFuc2Zvcm09InRyYW5zbGF0ZSgtMy42NjIxMSwtMy42NTc5MzA3KSI+JiN4YTsJPHRpdGxlIGlkPSJ0aXRsZTExNDg3OSI+UGFnZS0xPC90aXRsZT4mI3hhOwk8ZyBpZD0iZ3JvdXAxMjEzLTEiIHRyYW5zZm9ybT0idHJhbnNsYXRlKDMuNjYyMTEsLTMuNjYyMTEpIj4mI3hhOwkJPHRpdGxlIGlkPSJ0aXRsZTExNDg4MSI+QW5ndWxhcjwvdGl0bGU+JiN4YTsJCTxnIGlkPSJzaGFwZTEyMTQtMiIgdHJhbnNmb3JtPSJ0cmFuc2xhdGUoMTYuNzEzNiwtMy45MTc1OSkiPiYjeGE7CQkJPHRpdGxlIGlkPSJ0aXRsZTExNDg4MyI+U2hlZXQuMTIxNDwvdGl0bGU+JiN4YTsJCQk8cGF0aCBpZD0icGF0aDExNDg4NSIgaW5rc2NhcGU6Y29ubmVjdG9yLWN1cnZhdHVyZT0iMCIgc3R5bGU9ImZpbGw6I0I1MkUzMTsiIGQ9Ik0wLDIyLjY1di02Ljk5aDAuOWw0LjI3LDUuNjN2LTUuNjNoMC44NnY2Ljk5ICAgICBoLTAuOWwtNC4yOC01LjY4djUuNjhIMHogTTEyLjk4LDIyLjM3Yy0wLjU2LDAuMjEtMS4xNywwLjMyLTEuODIsMC4zMmMtMi41MywwLTMuNzktMS4yLTMuNzktMy42NGMwLTIuMjksMS4yMi0zLjQ1LDMuNjYtMy40NSAgICAgYzAuNywwLDEuMzYsMC4xLDEuOTUsMC4yOXYwLjc4Yy0wLjU5LTAuMjMtMS4yMi0wLjM1LTEuODUtMC4zNWMtMS45MSwwLTIuODYsMC45MS0yLjg2LDIuNzFjMCwxLjk0LDAuOTQsMi45MSwyLjgyLDIuOTEgICAgIGMwLjMsMCwwLjYzLTAuMDQsMS0wLjEydi0yLjM0aDAuODlWMjIuMzd6IE0xNC40MywxOS45NXYtNC4yOWgwLjl2NC4yOWMwLDEuMzUsMC42NiwyLjAyLDIuMDEsMi4wMmMxLjMzLDAsMi0wLjY3LDItMi4wMnYtNC4yOSAgICAgaDAuOXY0LjI5YzAsMS44My0wLjk2LDIuNzYtMi45LDIuNzZDMTUuMzksMjIuNzEsMTQuNDMsMjEuNzgsMTQuNDMsMTkuOTV6IE0yMi43NSwxNS42NnY2LjI2aDMuNjZ2MC43M2gtNC41NnYtNi45OUwyMi43NSwxNS42NiAgICAgeiBNMjcuNzEsMjIuNjVoLTAuOTRsMy40Ny03LjkxbDMuNDgsNy45MWgtMWwtMC45LTIuMmgtMi4zMWwwLjI0LTAuNzNoMS43N2wtMS4zMS0zLjE2TDI3LjcxLDIyLjY1eiBNMzQuNjgsMjIuNjV2LTYuOTloMi45OSAgICAgYzEuMzMsMCwxLjk5LDAuNTUsMS45OSwxLjY3YzAsMC45MS0wLjY1LDEuNTktMS45NSwyLjAybDIuNCwzLjNoLTEuMTlsLTIuMjItMy4xNHYtMC41OWMxLjMzLTAuMjEsMi4wMS0wLjcyLDIuMDEtMS41NCAgICAgYzAtMC42NC0wLjM3LTAuOTctMS4xMS0wLjk3aC0ydjYuMjRMMzQuNjgsMjIuNjV6Ii8+JiN4YTsJCTwvZz4mI3hhOwkJPGcgaWQ9InNoYXBlMTIxNS00Ij4mI3hhOwkJCTx0aXRsZSBpZD0idGl0bGUxMTQ4ODgiPlNoZWV0LjEyMTU8L3RpdGxlPiYjeGE7CQkJPHBhdGggaWQ9InBhdGgxMTQ4OTAiIGlua3NjYXBlOmNvbm5lY3Rvci1jdXJ2YXR1cmU9IjAiIHN0eWxlPSJmaWxsOiNFMjMyMzc7IiBkPSJNMCw5Ljg4bDcuMTYtMi41Nmw3LjM1LDIuNTFsLTEuMTksOS40NyAgICAgbC02LjE2LDMuNDFMMS4xLDE5LjM0TDAsOS44OHoiLz4mI3hhOwkJPC9nPiYjeGE7CQk8ZyBpZD0ic2hhcGUxMjE2LTYiIHRyYW5zZm9ybT0idHJhbnNsYXRlKDcuMTU4MjEpIj4mI3hhOwkJCTx0aXRsZSBpZD0idGl0bGUxMTQ4OTMiPlNoZWV0LjEyMTY8L3RpdGxlPiYjeGE7CQkJPHBhdGggaWQ9InBhdGgxMTQ4OTUiIGlua3NjYXBlOmNvbm5lY3Rvci1jdXJ2YXR1cmU9IjAiIHN0eWxlPSJmaWxsOiNCNTJFMzE7IiBkPSJNNy4zNSw5LjgzTDAsNy4zMnYxNS4zOWw2LjE2LTMuNDFMNy4zNSw5LjgzeiIvPiYjeGE7CQk8L2c+JiN4YTsJCTxnIGlkPSJzaGFwZTEyMTctOCIgdHJhbnNmb3JtPSJ0cmFuc2xhdGUoMi43MDc5MSwtMy42NDAxNCkiPiYjeGE7CQkJPHRpdGxlIGlkPSJ0aXRsZTExNDg5OCI+U2hlZXQuMTIxNzwvdGl0bGU+JiN4YTsJCQk8cGF0aCBpZD0icGF0aDExNDkwMCIgaW5rc2NhcGU6Y29ubmVjdG9yLWN1cnZhdHVyZT0iMCIgc3R5bGU9ImZpbGw6I0ZGRkZGRjsiIGQ9Ik00LjQ2LDEyLjc2TDAsMjIuNjhsMS42Ni0wLjAzbDAuOS0yLjI0aDMuOTkgICAgIGwwLjk3LDIuMjZsMS41OSwwLjA0TDQuNDYsMTIuNzZ6IE00LjQ3LDE1Ljk1bDEuNTEsMy4xNUgzLjE1TDQuNDcsMTUuOTV6Ii8+JiN4YTsJCTwvZz4mI3hhOwk8L2c+JiN4YTs8L2c+JiN4YTs8L3N2Zz4=;" parent="4rNJ4vwEb-hpk1fD-wyn-20" vertex="1">
          <mxGeometry x="30.99000000000001" y="20" width="228" height="60" as="geometry" />
        </mxCell>
        <mxCell id="5a80hl0X2YX2dgV17xgM-2" value="" style="sketch=0;points=[[0,0,0],[0.25,0,0],[0.5,0,0],[0.75,0,0],[1,0,0],[0,1,0],[0.25,1,0],[0.5,1,0],[0.75,1,0],[1,1,0],[0,0.25,0],[0,0.5,0],[0,0.75,0],[1,0.25,0],[1,0.5,0],[1,0.75,0]];outlineConnect=0;fontColor=#232F3E;gradientColor=#F54749;gradientDirection=north;fillColor=#C7131F;strokeColor=#ffffff;dashed=0;verticalLabelPosition=bottom;verticalAlign=top;align=center;html=1;fontSize=12;fontStyle=0;aspect=fixed;shape=mxgraph.aws4.resourceIcon;resIcon=mxgraph.aws4.amplify;" vertex="1" parent="4rNJ4vwEb-hpk1fD-wyn-30">
          <mxGeometry x="135" y="410" width="90" height="90" as="geometry" />
        </mxCell>
      </root>
    </mxGraphModel>
  </diagram>
</mxfile>
